<svg xmlns="http://www.w3.org/2000/svg" xmlns:xlink="http://www.w3.org/1999/xlink" viewBox="0 0 24 24"><path d="M 3.185 0.636 C 4.433 0 6.066 0 9.333 0 L 14.667 0 C 17.934 0 19.567 0 20.815 0.636 C 21.913 1.195 22.805 2.087 23.364 3.185 C 24 4.433 24 6.066 24 9.333 L 24 14.667 C 24 17.934 24 19.567 23.364 20.815 C 22.805 21.913 21.913 22.805 20.815 23.364 C 19.567 24 17.934 24 14.667 24 L 9.333 24 C 6.066 24 4.433 24 3.185 23.364 C 2.087 22.805 1.195 21.913 0.636 20.815 C 0 19.567 0 17.934 0 14.667 L 0 9.333 C 0 6.066 0 4.433 0.636 3.185 C 1.195 2.087 2.087 1.195 3.185 0.636 Z M 4.96 9.499 C 4.429 9.499 4 9.94 4 10.483 C 4 13.451 5.552 16.136 8 17.586 L 8 18.191 C 8 19.006 8.644 19.667 9.44 19.667 L 14.56 19.667 C 15.355 19.667 16 19.006 16 18.191 L 16 17.586 C 18.447 16.136 20 13.451 20 10.483 C 20 9.94 19.57 9.499 19.04 9.499 L 18.96 9.499 C 18.96 7.235 17.169 5.399 14.96 5.399 C 14.589 5.399 14.225 5.451 13.875 5.552 C 12.944 4.789 11.764 4.333 10.48 4.333 C 7.61 4.333 5.259 6.611 5.054 9.499 Z M 8.96 18.191 L 8.96 17.699 L 15.04 17.699 L 15.04 18.191 C 15.04 18.462 14.825 18.683 14.56 18.683 L 9.44 18.683 C 9.175 18.683 8.96 18.462 8.96 18.191 Z M 15.8 8.74 C 15.974 8.942 16.08 9.208 16.08 9.499 L 15.905 9.499 C 15.887 9.241 15.851 8.987 15.8 8.74 Z M 18 9.499 L 17.04 9.499 C 17.04 8.455 16.307 7.586 15.34 7.403 C 15.163 7.042 14.949 6.704 14.703 6.394 C 14.788 6.387 14.873 6.383 14.96 6.383 C 16.639 6.383 18 7.778 18 9.499 Z M 10.48 6.301 C 8.671 6.301 7.181 7.7 6.982 9.499 L 6.017 9.499 C 6.22 7.155 8.14 5.317 10.48 5.317 C 12.819 5.317 14.74 7.155 14.942 9.499 L 13.977 9.499 C 13.779 7.7 12.288 6.301 10.48 6.301 Z M 12.029 9.499 C 11.852 8.792 11.225 8.269 10.48 8.269 C 9.734 8.269 9.108 8.792 8.93 9.499 L 7.951 9.499 C 8.143 8.245 9.202 7.285 10.48 7.285 C 11.757 7.285 12.816 8.245 13.009 9.499 Z M 15.551 16.715 L 8.448 16.715 C 6.312 15.434 4.96 13.082 4.96 10.483 L 19.04 10.483 C 19.04 13.082 17.687 15.434 15.551 16.715 Z" fill="rgb(15,15,15)"></path></svg>