<svg xmlns="http://www.w3.org/2000/svg" xmlns:xlink="http://www.w3.org/1999/xlink" viewBox="0 0 76 58"><path d="M 39.026 0.968 C 34.96 1.201 31.234 2.614 28.133 5.099 C 24.61 7.923 22.222 11.865 21.365 16.27 C 21.233 16.947 21.181 17.31 21.099 18.129 C 21.026 18.859 21.005 18.927 20.828 19.001 C 20.752 19.032 20.445 19.041 19.314 19.041 C 17.999 19.041 17.88 19.045 17.67 19.098 C 17.038 19.26 16.517 19.748 16.314 20.371 C 16.205 20.704 16.198 21.207 16.299 21.533 C 16.457 22.046 16.818 22.479 17.273 22.701 C 17.705 22.913 17.683 22.911 19.425 22.911 C 20.847 22.911 20.988 22.915 21.08 22.962 C 21.241 23.044 21.281 23.13 21.373 23.585 C 21.42 23.819 21.5 24.18 21.549 24.387 C 21.599 24.595 21.64 24.79 21.64 24.821 C 21.64 24.914 21.562 25.037 21.479 25.075 C 21.42 25.102 20.078 25.11 15.787 25.11 C 9.768 25.11 10.045 25.103 9.985 25.248 C 9.907 25.44 9.648 26.249 9.648 26.302 C 9.648 26.339 9.673 26.382 9.704 26.399 C 9.743 26.419 12.859 26.429 19.549 26.43 C 28.952 26.43 29.341 26.432 29.453 26.484 C 29.669 26.582 29.819 26.816 29.82 27.056 C 29.82 27.308 29.615 27.596 29.39 27.658 C 29.312 27.68 27.71 27.69 24.19 27.69 C 18.519 27.691 18.896 27.677 18.444 27.899 C 18.242 27.997 18.146 28.069 17.945 28.273 C 17.551 28.671 17.389 29.064 17.389 29.628 C 17.388 30.181 17.568 30.627 17.945 31.004 C 18.102 31.162 18.233 31.26 18.403 31.348 C 18.858 31.584 18.652 31.57 21.991 31.588 C 24.873 31.604 24.97 31.606 25.051 31.661 C 25.097 31.692 25.286 31.894 25.471 32.109 C 26.462 33.264 27.435 34.184 28.574 35.041 C 31.151 36.982 34.216 38.243 37.384 38.667 C 38.389 38.801 38.659 38.817 39.964 38.817 C 41.269 38.817 41.54 38.801 42.545 38.667 C 47.208 38.043 51.513 35.648 54.566 31.977 C 54.731 31.779 54.903 31.598 54.949 31.574 C 55.02 31.537 55.427 31.531 57.826 31.531 C 60.492 31.531 60.624 31.534 60.708 31.585 C 60.756 31.615 60.968 31.803 61.178 32.003 C 61.388 32.203 61.735 32.53 61.949 32.731 C 62.239 33.003 62.336 33.111 62.329 33.156 C 62.321 33.217 62.316 33.217 60.552 33.224 L 58.784 33.232 L 58.698 33.146 C 58.614 33.062 58.612 33.053 58.612 32.757 C 58.612 32.277 58.621 32.288 57.981 32.068 C 57.691 31.968 57.438 31.886 57.419 31.885 C 57.4 31.884 57.364 31.903 57.338 31.929 C 57.3 31.967 57.292 32.059 57.292 32.467 C 57.292 32.751 57.279 32.998 57.26 33.052 C 57.196 33.234 57.228 33.231 55.42 33.231 L 53.778 33.231 L 53.69 33.305 C 53.618 33.366 53.573 33.468 53.439 33.87 C 53.349 34.139 53.276 34.382 53.276 34.409 C 53.276 34.436 53.296 34.479 53.322 34.505 C 53.363 34.546 53.574 34.551 55.211 34.551 C 56.528 34.551 57.076 34.56 57.128 34.584 C 57.257 34.643 57.292 34.77 57.292 35.174 C 57.292 35.504 57.286 35.548 57.226 35.637 C 57.19 35.691 57.127 35.745 57.087 35.756 C 57.047 35.767 55.924 35.778 54.592 35.779 C 52.212 35.782 52.168 35.783 52.094 35.841 C 52.037 35.886 51.981 36.015 51.856 36.391 C 51.685 36.905 51.67 36.979 51.727 37.037 C 51.754 37.064 52.384 37.072 54.382 37.072 C 57.251 37.072 57.154 37.066 57.246 37.244 C 57.286 37.321 57.292 37.495 57.292 38.462 C 57.292 39.244 57.303 39.614 57.326 39.664 C 57.368 39.757 57.432 39.785 58.021 39.979 L 58.5 40.136 L 58.556 40.067 C 58.609 40.001 58.612 39.934 58.612 38.651 C 58.612 37.139 58.609 37.159 58.81 37.103 C 58.882 37.083 59.746 37.072 61.318 37.072 C 63.452 37.072 63.723 37.067 63.786 37.026 C 63.887 36.96 64.232 35.933 64.183 35.842 C 64.151 35.782 64.145 35.782 61.518 35.782 C 59.666 35.782 58.857 35.773 58.791 35.75 C 58.638 35.696 58.612 35.605 58.612 35.136 L 58.612 34.722 L 58.697 34.636 L 58.783 34.551 L 60.435 34.551 C 61.99 34.55 62.091 34.547 62.175 34.496 C 62.253 34.449 62.283 34.385 62.421 33.976 C 62.587 33.486 62.61 33.437 62.677 33.437 C 62.7 33.437 62.889 33.586 63.097 33.77 C 64.145 34.694 65.018 35.372 65.16 35.372 C 65.244 35.372 66.352 34.705 66.352 34.655 C 66.352 34.633 66.23 34.54 66.081 34.448 C 65.609 34.157 65.019 33.699 64.197 32.986 C 63.407 32.301 62.804 31.737 62.804 31.682 C 62.804 31.653 62.821 31.608 62.841 31.581 C 62.873 31.539 62.964 31.532 63.528 31.524 C 64.168 31.516 64.179 31.515 64.252 31.446 C 64.305 31.396 64.374 31.235 64.489 30.889 C 64.659 30.379 64.674 30.304 64.616 30.247 C 64.589 30.22 63.576 30.211 60.233 30.211 C 57.842 30.211 55.885 30.203 55.885 30.194 C 55.885 30.184 55.909 30.141 55.939 30.099 C 55.969 30.056 56.122 29.806 56.278 29.544 C 56.435 29.282 56.592 29.051 56.627 29.031 C 56.677 29.003 57.387 28.991 59.79 28.98 L 62.888 28.965 L 62.962 28.895 C 63.015 28.845 63.084 28.684 63.199 28.338 C 63.368 27.832 63.386 27.739 63.325 27.699 C 63.305 27.686 61.933 27.669 60.277 27.661 L 57.266 27.646 L 57.362 27.426 C 57.414 27.305 57.514 27.065 57.583 26.893 C 57.653 26.721 57.742 26.549 57.782 26.512 L 57.854 26.444 L 60.606 26.429 L 63.357 26.414 L 63.426 26.35 C 63.473 26.306 63.55 26.117 63.668 25.758 C 63.839 25.24 63.841 25.229 63.788 25.17 C 63.734 25.11 63.719 25.11 61.083 25.11 C 59.442 25.11 58.412 25.099 58.379 25.081 C 58.35 25.066 58.311 25.015 58.291 24.968 C 58.261 24.895 58.267 24.838 58.333 24.587 C 58.45 24.143 58.459 24.16 58.025 23.947 C 57.392 23.634 57.296 23.598 57.247 23.647 C 57.223 23.671 57.158 23.874 57.101 24.099 C 57.044 24.324 56.965 24.618 56.924 24.752 C 56.805 25.144 57.026 25.109 54.624 25.11 C 52.669 25.11 52.583 25.112 52.494 25.166 C 52.412 25.216 52.386 25.273 52.238 25.716 C 52.059 26.254 52.043 26.352 52.13 26.399 C 52.168 26.419 52.85 26.429 54.14 26.429 L 56.093 26.429 L 56.168 26.505 C 56.275 26.611 56.254 26.708 56.013 27.228 L 55.812 27.661 L 54.414 27.661 L 53.016 27.661 L 52.933 27.73 C 52.867 27.787 52.816 27.904 52.676 28.33 C 52.505 28.849 52.502 28.861 52.556 28.92 C 52.609 28.978 52.639 28.98 53.66 28.98 C 54.382 28.98 54.732 28.99 54.783 29.013 C 54.823 29.032 54.87 29.086 54.887 29.135 C 54.926 29.249 54.878 29.346 54.541 29.83 L 54.286 30.197 L 52.997 30.211 C 52.287 30.219 51.685 30.237 51.658 30.25 C 51.591 30.283 51.548 30.384 51.366 30.94 L 51.209 31.419 L 51.278 31.475 C 51.342 31.527 51.402 31.531 52.108 31.531 C 52.576 31.531 52.891 31.542 52.926 31.561 C 52.966 31.583 52.982 31.623 52.983 31.7 C 52.983 31.803 52.949 31.843 52.36 32.426 C 51.725 33.054 51.165 33.541 50.534 34.014 C 46.344 37.158 40.93 38.273 35.83 37.041 C 33.163 36.397 30.755 35.178 28.615 33.389 C 28.119 32.974 27.112 32.004 27.047 31.878 C 27.003 31.794 27.015 31.725 27.087 31.641 C 27.129 31.592 27.494 31.589 33.989 31.589 C 41.377 31.589 40.989 31.598 41.071 31.44 C 41.092 31.401 41.181 31.153 41.269 30.887 C 41.418 30.44 41.427 30.401 41.386 30.338 L 41.341 30.27 L 30.237 30.263 L 19.133 30.255 L 18.994 30.174 C 18.585 29.933 18.594 29.303 19.011 29.075 C 19.097 29.027 19.447 29.023 24.322 29.009 L 29.541 28.995 L 29.746 28.926 C 30.097 28.808 30.287 28.69 30.553 28.423 C 30.829 28.148 30.982 27.887 31.071 27.543 C 31.135 27.292 31.135 26.826 31.07 26.576 C 30.931 26.035 30.558 25.569 30.069 25.327 C 29.638 25.114 29.888 25.128 26.368 25.111 L 23.195 25.095 L 23.124 25.022 C 23.049 24.944 22.929 24.539 22.751 23.761 C 22.621 23.193 22.659 23.015 22.927 22.94 C 22.992 22.922 23.759 22.911 24.914 22.911 L 26.797 22.911 L 26.869 22.845 C 26.971 22.752 27.297 21.761 27.251 21.686 C 27.22 21.638 26.94 21.634 22.604 21.621 L 17.989 21.606 L 17.859 21.533 C 17.787 21.492 17.688 21.402 17.639 21.332 C 17.559 21.219 17.549 21.182 17.549 20.995 C 17.549 20.736 17.618 20.589 17.796 20.463 L 17.921 20.375 L 20.076 20.36 L 22.231 20.345 L 22.283 20.281 C 22.329 20.224 22.337 20.122 22.352 19.372 C 22.368 18.537 22.407 18.052 22.521 17.281 C 23.356 11.614 26.969 6.653 32.121 4.102 C 34.13 3.108 36.086 2.558 38.454 2.323 C 38.969 2.272 40.93 2.272 41.474 2.323 C 45.48 2.699 49.044 4.277 51.956 6.965 C 54.609 9.413 56.511 12.754 57.221 16.211 C 57.264 16.421 57.313 16.609 57.329 16.629 C 57.383 16.696 57.471 16.668 57.984 16.419 C 58.409 16.213 58.495 16.16 58.511 16.098 C 58.533 16.011 58.403 15.42 58.216 14.76 C 57.479 12.152 56.257 9.847 54.48 7.708 C 54.008 7.14 52.739 5.872 52.176 5.404 C 49.105 2.853 45.561 1.38 41.636 1.022 C 41.151 0.978 39.465 0.943 39.026 0.968 Z M 63.903 18.395 C 62.836 18.552 62.042 19.465 62.042 20.536 C 62.042 21.169 62.361 21.83 62.858 22.224 C 63.07 22.393 63.436 22.572 63.699 22.636 C 64 22.709 64.459 22.702 64.753 22.621 C 65.145 22.512 65.421 22.349 65.725 22.046 C 65.955 21.818 66.012 21.741 66.126 21.503 C 66.29 21.16 66.352 20.89 66.352 20.513 C 66.352 19.956 66.162 19.481 65.773 19.068 C 65.281 18.544 64.587 18.295 63.903 18.395 Z M 63.904 19.463 C 63.587 19.563 63.334 19.776 63.195 20.06 C 63.122 20.21 63.113 20.26 63.113 20.521 C 63.112 20.783 63.122 20.834 63.197 20.997 C 63.3 21.221 63.529 21.446 63.765 21.556 C 63.908 21.623 63.973 21.634 64.197 21.635 C 64.433 21.635 64.482 21.625 64.658 21.542 C 65.243 21.265 65.478 20.599 65.191 20.031 C 64.957 19.567 64.379 19.312 63.904 19.463 Z M 50.49 47.983 C 49.446 48.088 48.55 48.505 47.887 49.194 C 47.068 50.045 46.68 51.136 46.68 52.582 C 46.68 53.782 46.904 54.619 47.44 55.42 C 48.229 56.6 49.665 57.177 51.399 57.012 C 52.037 56.951 52.742 56.773 52.816 56.654 C 52.839 56.616 52.791 56.518 52.591 56.195 C 52.426 55.93 52.314 55.779 52.274 55.768 C 52.24 55.76 52.086 55.781 51.93 55.815 C 51.695 55.868 51.551 55.878 51.062 55.879 C 50.55 55.88 50.443 55.872 50.218 55.815 C 49.668 55.675 49.285 55.455 48.917 55.065 C 48.55 54.676 48.308 54.187 48.173 53.564 C 48.083 53.146 48.06 52.23 48.128 51.768 C 48.33 50.391 49.069 49.479 50.226 49.179 C 50.689 49.059 51.435 49.059 51.939 49.179 C 52.08 49.212 52.219 49.24 52.248 49.24 C 52.303 49.24 52.75 48.593 52.815 48.42 C 52.86 48.301 52.816 48.26 52.548 48.173 C 51.976 47.986 51.184 47.913 50.49 47.983 Z M 34.511 48.01 C 32.866 48.166 31.628 48.963 30.965 50.291 C 30.593 51.035 30.416 52.042 30.491 52.986 C 30.628 54.723 31.329 55.919 32.576 56.548 C 33.689 57.11 35.445 57.152 37.01 56.655 L 37.296 56.564 L 37.296 54.35 L 37.296 52.136 L 36.083 52.147 C 34.944 52.157 34.865 52.161 34.808 52.212 C 34.718 52.294 34.458 53.095 34.5 53.162 C 34.529 53.208 34.608 53.214 35.269 53.221 L 36.006 53.228 L 36.006 54.476 L 36.006 55.723 L 35.911 55.762 C 35.687 55.854 35.458 55.881 34.877 55.881 C 34.182 55.881 33.949 55.835 33.47 55.603 C 32.621 55.191 32.097 54.382 31.928 53.225 C 31.882 52.906 31.882 52.106 31.928 51.805 C 32.163 50.269 33.059 49.353 34.52 49.154 C 34.968 49.093 35.582 49.127 36.101 49.242 C 36.433 49.315 36.435 49.315 36.546 49.203 C 36.673 49.075 37.039 48.461 37.027 48.397 C 37.007 48.294 36.362 48.106 35.801 48.04 C 35.415 47.995 34.818 47.981 34.511 48.01 Z M 57.527 52.494 L 57.527 56.922 L 58.187 56.922 L 58.846 56.922 L 58.846 54.913 L 58.846 52.905 L 60.65 52.905 L 62.453 52.905 L 62.453 54.913 L 62.453 56.922 L 63.127 56.922 L 63.801 56.922 L 63.801 52.494 L 63.801 48.067 L 63.127 48.067 L 62.453 48.067 L 62.453 49.885 L 62.453 51.703 L 60.65 51.703 L 58.846 51.703 L 58.846 49.885 L 58.846 48.067 L 58.187 48.067 L 57.527 48.067 Z M 0.5 52.51 L 0.5 56.923 L 1.167 56.915 L 1.834 56.907 L 1.842 54.965 L 1.849 53.022 L 3.159 53.022 C 4.323 53.022 4.474 53.017 4.521 52.975 C 4.549 52.949 4.641 52.724 4.723 52.475 C 4.845 52.111 4.867 52.015 4.839 51.98 C 4.808 51.944 4.588 51.937 3.326 51.937 L 1.849 51.937 L 1.849 50.574 L 1.849 49.211 L 3.252 49.211 C 4.613 49.211 4.658 49.209 4.73 49.152 C 4.834 49.07 5.127 48.205 5.073 48.139 C 5.042 48.102 4.726 48.097 2.769 48.097 L 0.5 48.097 Z M 9.824 52.51 L 9.824 56.923 L 12.037 56.915 C 14.206 56.907 14.251 56.906 14.305 56.848 C 14.336 56.816 14.428 56.588 14.51 56.341 C 14.657 55.897 14.658 55.892 14.601 55.835 C 14.546 55.78 14.489 55.778 12.858 55.778 L 11.172 55.778 L 11.172 54.328 L 11.172 52.878 L 12.491 52.869 C 13.766 52.861 13.812 52.859 13.866 52.802 C 13.896 52.77 13.989 52.548 14.072 52.309 C 14.189 51.969 14.215 51.863 14.191 51.818 C 14.162 51.763 14.114 51.761 12.667 51.761 L 11.172 51.761 L 11.172 50.486 L 11.172 49.211 L 12.591 49.211 C 13.966 49.211 14.011 49.209 14.083 49.152 C 14.188 49.07 14.48 48.205 14.426 48.139 C 14.395 48.102 14.077 48.097 12.107 48.097 L 9.824 48.097 Z M 19.389 52.502 L 19.397 56.907 L 20.012 56.907 L 20.628 56.907 L 20.624 54.274 C 20.622 52.78 20.605 51.258 20.585 50.756 C 20.565 50.269 20.547 49.864 20.544 49.856 C 20.542 49.848 20.551 49.834 20.563 49.826 C 20.576 49.818 20.67 50.003 20.772 50.237 C 21.232 51.295 21.515 51.829 23.184 54.803 L 24.374 56.922 L 25.044 56.922 L 25.715 56.922 L 25.715 52.509 L 25.715 48.097 L 25.099 48.097 L 24.484 48.097 L 24.484 50.244 C 24.484 52.639 24.536 54.487 24.617 54.979 C 24.648 55.166 24.583 55.069 24.413 54.671 C 23.956 53.61 23.72 53.162 22.065 50.229 L 20.863 48.098 L 20.122 48.097 L 19.382 48.097 Z M 71.146 48.133 C 71.122 48.196 68.463 56.896 68.463 56.909 C 68.463 56.916 68.771 56.922 69.147 56.922 L 69.831 56.922 L 70.212 55.624 L 70.593 54.327 L 71.947 54.319 C 72.692 54.315 73.301 54.317 73.301 54.324 C 73.301 54.338 73.981 56.562 74.052 56.782 L 74.097 56.922 L 74.799 56.922 C 75.184 56.922 75.5 56.918 75.5 56.914 C 75.5 56.909 74.895 54.927 74.154 52.508 L 72.809 48.111 L 71.984 48.103 C 71.34 48.097 71.156 48.104 71.146 48.133 Z M 71.912 49.299 C 71.901 49.339 71.834 49.629 71.761 49.944 C 71.579 50.73 71.44 51.217 70.821 53.235 C 70.806 53.283 70.872 53.286 71.936 53.286 C 72.558 53.286 73.066 53.279 73.066 53.271 C 73.066 53.262 72.901 52.705 72.699 52.032 C 72.497 51.359 72.246 50.465 72.141 50.046 C 71.917 49.148 71.935 49.207 71.912 49.299 Z" fill="#0F0F0F"></path></svg>