<svg xmlns="http://www.w3.org/2000/svg" xmlns:xlink="http://www.w3.org/1999/xlink" viewBox="0 0 20 20"><path d="M 5.858 0.07 C 4.794 0.12 4.068 0.29 3.433 0.54 C 2.775 0.796 2.218 1.14 1.664 1.696 C 1.109 2.252 0.768 2.81 0.513 3.468 C 0.267 4.105 0.1 4.832 0.053 5.897 C 0.006 6.961 -0.004 7.304 0.001 10.019 C 0.006 12.735 0.018 13.075 0.07 14.142 C 0.121 15.206 0.29 15.932 0.54 16.568 C 0.796 17.225 1.14 17.782 1.696 18.337 C 2.253 18.891 2.81 19.232 3.47 19.487 C 4.106 19.732 4.833 19.9 5.898 19.947 C 6.962 19.993 7.305 20.004 10.02 19.999 C 12.734 19.994 13.076 19.982 14.143 19.931 C 15.209 19.88 15.932 19.71 16.568 19.462 C 17.225 19.204 17.782 18.862 18.337 18.305 C 18.891 17.748 19.232 17.19 19.486 16.531 C 19.733 15.895 19.9 15.168 19.946 14.104 C 19.993 13.037 20.004 12.696 19.999 9.981 C 19.993 7.266 19.981 6.925 19.931 5.859 C 19.88 4.792 19.711 4.068 19.461 3.432 C 19.204 2.775 18.861 2.218 18.305 1.663 C 17.748 1.108 17.19 0.767 16.531 0.514 C 15.895 0.268 15.168 0.1 14.104 0.054 C 13.039 0.008 12.697 -0.004 9.981 0.001 C 7.265 0.006 6.925 0.018 5.858 0.07 Z M 5.975 18.148 C 5 18.105 4.471 17.943 4.118 17.808 C 3.651 17.628 3.318 17.41 2.966 17.062 C 2.615 16.714 2.399 16.38 2.216 15.913 C 2.079 15.561 1.914 15.032 1.869 14.057 C 1.819 13.003 1.809 12.687 1.803 10.017 C 1.797 7.347 1.807 7.031 1.854 5.977 C 1.895 5.003 2.058 4.473 2.194 4.12 C 2.374 3.652 2.59 3.32 2.939 2.969 C 3.288 2.617 3.621 2.401 4.088 2.218 C 4.44 2.081 4.969 1.917 5.944 1.871 C 6.998 1.821 7.314 1.811 9.984 1.805 C 12.653 1.799 12.97 1.809 14.025 1.856 C 14.999 1.898 15.529 2.059 15.882 2.196 C 16.349 2.376 16.682 2.592 17.033 2.941 C 17.384 3.291 17.601 3.623 17.783 4.09 C 17.921 4.442 18.085 4.97 18.131 5.946 C 18.181 7 18.192 7.316 18.197 9.986 C 18.202 12.655 18.193 12.972 18.146 14.026 C 18.104 15.001 17.942 15.53 17.806 15.883 C 17.626 16.35 17.409 16.683 17.06 17.035 C 16.711 17.386 16.378 17.602 15.912 17.785 C 15.56 17.922 15.03 18.086 14.056 18.132 C 13.002 18.182 12.686 18.192 10.015 18.198 C 7.345 18.204 7.03 18.193 5.975 18.148 M 14.127 4.655 C 14.128 4.893 14.199 5.125 14.331 5.322 C 14.463 5.519 14.651 5.672 14.87 5.763 C 15.09 5.853 15.331 5.877 15.564 5.83 C 15.796 5.783 16.01 5.669 16.178 5.5 C 16.345 5.332 16.459 5.118 16.505 4.885 C 16.551 4.652 16.526 4.411 16.435 4.192 C 16.344 3.973 16.19 3.786 15.992 3.654 C 15.795 3.523 15.562 3.453 15.325 3.453 C 15.007 3.454 14.702 3.581 14.477 3.806 C 14.253 4.032 14.127 4.337 14.127 4.655 Z M 4.865 10.01 C 4.871 12.846 7.174 15.14 10.01 15.134 C 12.845 15.129 15.14 12.826 15.135 9.99 C 15.13 7.154 12.826 4.86 9.99 4.865 C 7.154 4.871 4.86 7.174 4.865 10.01 Z M 6.667 10.006 C 6.665 9.347 6.86 8.702 7.225 8.153 C 7.59 7.605 8.11 7.176 8.718 6.923 C 9.327 6.669 9.997 6.602 10.644 6.729 C 11.291 6.857 11.885 7.173 12.352 7.638 C 12.82 8.103 13.138 8.697 13.268 9.343 C 13.398 9.989 13.333 10.66 13.082 11.269 C 12.831 11.879 12.405 12.4 11.857 12.768 C 11.31 13.135 10.666 13.332 10.007 13.333 C 9.569 13.334 9.135 13.249 8.73 13.082 C 8.326 12.915 7.958 12.671 7.647 12.362 C 7.337 12.053 7.091 11.686 6.923 11.282 C 6.754 10.878 6.667 10.444 6.667 10.006 Z" fill="rgb(15,15,15)"></path></svg>