<svg xmlns="http://www.w3.org/2000/svg" xmlns:xlink="http://www.w3.org/1999/xlink" viewBox="0 0 72 68"><path d="M 66.993 30.547 L 64.729 31.29 L 64.766 33.166 C 64.81 35.182 64.729 36.653 64.492 38.286 C 63.53 44.782 60.17 50.984 55.212 55.369 C 51.024 59.084 46.117 61.439 40.7 62.336 C 34.995 63.285 29.156 62.528 23.983 60.166 C 20.668 58.65 18.041 56.826 15.428 54.222 C 13.86 52.654 12.372 50.808 11.447 49.278 C 11.255 48.954 11.055 48.696 11.003 48.696 C 10.914 48.696 9.39 49.182 7.296 49.874 C 6.563 50.116 6.556 50.124 6.496 51.087 C 6.385 52.949 7.347 54.891 8.916 55.958 C 9.76 56.524 10.344 56.716 12.269 57.047 C 13.978 57.341 14.725 57.569 15.85 58.15 C 17.249 58.871 18.337 59.666 19.432 60.769 C 20.239 61.586 20.646 62.174 21.511 63.786 C 22.286 65.223 22.303 65.242 22.714 65.701 L 22.718 65.706 C 23.206 66.235 23.865 66.728 24.494 67.023 C 25.389 67.442 25.907 67.552 26.936 67.552 C 28.068 67.56 28.608 67.398 30.355 66.545 C 31.857 65.809 32.382 65.61 33.374 65.412 C 35.639 64.955 38.014 65.066 40.064 65.735 C 40.249 65.801 41.056 66.162 41.847 66.537 C 43.527 67.346 44.141 67.53 45.177 67.53 C 46.976 67.53 48.611 66.721 49.669 65.316 C 49.84 65.095 50.269 64.374 50.624 63.705 C 51.468 62.123 51.845 61.579 52.667 60.725 C 53.769 59.577 55.013 58.658 56.418 57.959 C 57.395 57.473 58.276 57.201 59.534 56.98 C 61.31 56.671 61.473 56.635 62.058 56.414 C 63.663 55.803 64.951 54.339 65.425 52.588 C 65.617 51.897 65.587 50.697 65.351 49.175 C 65.247 48.483 65.158 47.615 65.158 47.24 C 65.158 45.57 65.691 43.451 66.535 41.751 C 67.216 40.39 67.578 39.912 69.073 38.382 C 69.991 37.44 70.294 37.05 70.62 36.396 C 71.212 35.196 71.345 33.666 70.967 32.401 C 70.716 31.54 70.331 30.841 69.798 30.26 C 69.561 30.002 69.339 29.789 69.317 29.796 C 69.288 29.796 68.244 30.135 66.993 30.547 Z M 61.68 52.154 C 61.68 52.272 61.628 52.301 61.458 52.301 L 61.236 52.301 L 61.236 52.897 C 61.236 53.471 61.229 53.486 61.073 53.464 C 60.918 53.442 60.903 53.412 60.925 53.044 C 60.962 52.478 60.903 52.301 60.681 52.301 C 60.548 52.301 60.496 52.265 60.496 52.154 C 60.496 52.022 60.548 52.007 61.088 52.007 C 61.628 52.007 61.68 52.022 61.68 52.154 Z M 62.391 52.412 C 62.465 52.632 62.539 52.816 62.568 52.816 C 62.59 52.816 62.672 52.632 62.753 52.412 C 62.872 52.051 62.909 52.007 63.094 52.007 C 63.323 52.007 63.367 52.14 63.39 52.964 C 63.404 53.39 63.397 53.442 63.264 53.442 C 63.145 53.442 63.116 53.375 63.086 52.964 C 63.042 52.471 63.02 52.478 62.849 53.037 C 62.761 53.302 62.701 53.375 62.561 53.39 C 62.398 53.412 62.361 53.368 62.235 52.986 L 62.087 52.559 L 62.05 53 C 62.021 53.375 61.991 53.442 61.872 53.442 C 61.739 53.442 61.732 53.39 61.747 52.89 C 61.769 52.103 61.806 52.007 62.058 52.007 C 62.243 52.007 62.28 52.044 62.391 52.412 Z M 18.248 12.419 C 22.881 8.733 28.039 6.695 33.966 6.217 C 34.951 6.136 38.443 6.246 39.479 6.386 C 41.996 6.725 44.134 7.284 46.428 8.211 C 54.561 11.477 60.777 18.496 62.997 26.927 C 64.182 31.4 64.226 36.138 63.123 40.611 C 62.62 42.619 61.902 44.576 60.999 46.379 C 58.476 51.396 54.591 55.457 49.655 58.268 C 46.451 60.092 42.506 61.336 38.702 61.718 C 37.666 61.829 35.106 61.865 34.003 61.784 C 27.913 61.38 22.2 59.018 17.501 54.964 C 12.602 50.749 9.301 44.827 8.258 38.397 C 8.08 37.286 8.028 36.8 7.954 35.52 C 7.562 28.31 9.96 21.336 14.711 15.847 C 15.569 14.854 17.308 13.162 18.248 12.419 Z M 48.345 10.05 C 45.437 8.557 42.684 7.718 39.072 7.232 C 38.303 7.129 35.069 7.041 34.262 7.1 C 27.498 7.6 21.563 10.263 16.827 14.942 C 12.875 18.842 10.174 23.977 9.257 29.347 C 8.48 33.857 8.835 38.441 10.271 42.634 C 11.595 46.489 13.682 49.859 16.576 52.809 C 18.722 55.001 20.823 56.546 23.539 57.944 C 25.486 58.945 27.262 59.622 29.319 60.136 C 33.382 61.166 37.807 61.218 41.959 60.284 C 49.773 58.518 56.567 53.25 60.126 46.188 C 61.577 43.318 62.354 40.81 62.879 37.256 C 63.012 36.344 63.012 31.694 62.879 30.782 C 62.339 27.162 61.614 24.786 60.148 21.887 C 58.846 19.305 57.299 17.186 55.094 14.994 C 52.985 12.89 50.913 11.374 48.345 10.05 Z M 22.636 2.296 C 23.487 1.376 24.635 0.751 25.863 0.545 C 26.61 0.42 26.973 0.412 27.676 0.537 C 28.423 0.67 28.823 0.817 30.155 1.472 C 30.747 1.759 31.435 2.075 31.68 2.171 C 33.877 2.995 37.008 3.083 39.443 2.384 C 40.079 2.2 40.405 2.06 42.292 1.148 C 43.483 0.567 44.164 0.412 45.252 0.456 C 46.265 0.501 46.784 0.626 47.583 1.023 C 48.315 1.391 49.004 1.928 49.433 2.472 C 49.61 2.7 50.047 3.429 50.402 4.091 C 51.379 5.908 51.668 6.313 52.793 7.424 C 53.91 8.527 54.939 9.27 56.241 9.91 C 57.329 10.447 57.928 10.639 59.305 10.881 C 61.717 11.315 61.939 11.374 62.731 11.845 C 64.137 12.669 65.136 14.118 65.417 15.715 C 65.551 16.465 65.551 16.671 65.447 17.377 L 65.366 17.922 L 64.729 18.121 C 64.374 18.231 63.375 18.547 62.517 18.834 C 61.651 19.114 60.903 19.342 60.851 19.342 C 60.8 19.342 60.607 19.099 60.422 18.805 C 58.417 15.575 55.36 12.426 52.112 10.234 C 50.78 9.344 49.877 8.829 48.397 8.115 C 45.54 6.754 43.091 6.018 39.664 5.518 C 37.711 5.224 34.144 5.224 32.19 5.518 C 27.92 6.143 24.435 7.35 21.112 9.351 C 13.127 14.148 7.977 22.277 7.133 31.407 C 7.022 32.548 7 34.836 7.088 35.969 L 7.14 36.748 L 4.942 37.462 C 3.729 37.852 2.7 38.176 2.656 38.176 C 2.434 38.176 1.627 37.109 1.294 36.381 C 0.931 35.586 0.82 35.064 0.82 34.056 C 0.82 32.217 1.264 31.326 3.115 29.414 C 4.328 28.155 4.802 27.523 5.357 26.434 C 6.119 24.918 6.519 23.646 6.733 22.042 C 6.889 20.835 6.874 20.475 6.615 18.68 C 6.437 17.436 6.393 16.943 6.43 16.399 C 6.57 13.868 8.554 11.683 11.099 11.257 C 13.571 10.844 14.422 10.609 15.51 10.065 C 17.205 9.226 18.714 8.049 19.824 6.732 C 20.313 6.158 20.594 5.731 21.045 4.885 C 22.022 3.076 22.229 2.737 22.636 2.296 Z M 34.891 7.541 C 31.013 7.733 27.469 8.645 24.124 10.307 C 22.755 10.992 22.252 11.279 21.016 12.117 C 14.859 16.274 10.714 22.8 9.627 30.046 C 9.397 31.554 9.353 32.224 9.353 34.019 C 9.353 35.814 9.397 36.484 9.627 37.992 C 10.833 45.996 15.865 53.191 23.014 57.142 C 25.678 58.613 28.771 59.688 31.598 60.129 C 31.961 60.182 32.477 60.263 32.815 60.317 L 32.93 60.335 C 33.759 60.46 38.021 60.46 38.961 60.335 C 41.233 60.019 42.661 59.695 44.526 59.07 C 52.889 56.267 59.438 49.285 61.71 40.751 C 61.969 39.772 62.243 38.382 62.398 37.256 C 62.583 35.895 62.583 32.224 62.398 30.819 C 61.717 25.632 59.771 21.166 56.396 17.061 C 55.686 16.193 53.651 14.199 52.755 13.486 C 49.344 10.771 45.651 9.013 41.537 8.122 C 39.516 7.696 36.749 7.453 34.891 7.541 Z M 36.726 9.586 C 36.837 9.697 36.837 9.712 36.726 9.822 C 36.623 9.925 36.578 9.925 36.334 9.844 C 36.068 9.748 36.053 9.748 35.883 9.947 C 35.787 10.065 35.705 10.182 35.705 10.212 C 35.705 10.241 35.883 10.256 36.105 10.234 C 36.46 10.204 36.527 10.227 36.697 10.388 C 37.141 10.83 36.786 11.543 36.134 11.543 C 35.764 11.543 35.528 11.404 35.372 11.102 C 35.128 10.631 35.32 9.807 35.735 9.542 C 36.009 9.373 36.541 9.395 36.726 9.586 Z M 34.521 9.594 C 34.802 9.741 34.884 10.028 34.721 10.307 C 34.654 10.418 34.632 10.513 34.669 10.513 C 34.706 10.513 34.795 10.594 34.862 10.697 C 35.239 11.271 34.344 11.875 33.641 11.507 C 33.308 11.337 33.219 10.903 33.478 10.69 C 33.611 10.572 33.611 10.565 33.478 10.433 C 33.285 10.241 33.3 9.91 33.507 9.726 C 33.796 9.461 34.166 9.41 34.521 9.594 Z M 32.575 9.881 C 33.078 10.3 33.086 11.374 32.59 11.72 C 32.405 11.845 31.813 11.882 31.642 11.772 C 31.583 11.735 31.561 11.654 31.598 11.558 C 31.635 11.418 31.687 11.404 31.961 11.44 C 32.308 11.492 32.523 11.359 32.523 11.095 C 32.523 10.977 32.501 10.962 32.383 11.028 C 32.301 11.065 32.101 11.102 31.946 11.102 C 31.702 11.102 31.613 11.058 31.45 10.867 C 30.88 10.197 31.894 9.314 32.575 9.881 Z M 30.643 10.101 C 30.666 10.16 30.777 10.609 30.895 11.102 L 31.102 11.992 L 30.91 12.066 C 30.814 12.103 30.717 12.125 30.71 12.117 C 30.695 12.103 30.614 11.764 30.525 11.359 C 30.436 10.955 30.347 10.602 30.325 10.565 C 30.31 10.536 30.222 10.55 30.14 10.594 C 30.022 10.661 29.97 10.653 29.926 10.58 C 29.807 10.396 29.852 10.322 30.177 10.16 C 30.547 9.969 30.592 9.969 30.643 10.101 Z M 28.601 10.734 C 28.675 10.867 28.653 10.896 28.401 10.999 C 28.246 11.065 28.113 11.124 28.105 11.131 C 28.09 11.139 28.201 11.492 28.342 11.904 C 28.483 12.323 28.586 12.684 28.564 12.721 C 28.549 12.75 28.46 12.794 28.379 12.816 C 28.231 12.853 28.187 12.772 27.817 11.691 C 27.742 11.47 27.676 11.279 27.669 11.264 C 27.661 11.249 27.528 11.293 27.38 11.352 C 27.069 11.485 26.973 11.455 26.973 11.227 C 26.973 11.087 27.076 11.028 27.661 10.83 C 28.483 10.55 28.497 10.55 28.601 10.734 Z M 26.603 11.654 C 26.603 11.816 26.573 11.838 26.322 11.838 C 25.981 11.838 25.759 11.977 25.804 12.176 C 25.826 12.301 25.885 12.316 26.351 12.294 C 26.995 12.264 27.225 12.397 27.225 12.816 C 27.225 13.302 26.633 13.677 26.048 13.574 C 25.841 13.53 25.811 13.5 25.848 13.339 C 25.878 13.169 25.907 13.155 26.1 13.191 C 26.403 13.25 26.825 13.066 26.825 12.875 C 26.825 12.706 26.81 12.706 26.114 12.721 C 25.7 12.728 25.641 12.713 25.5 12.529 C 25.419 12.419 25.345 12.272 25.345 12.191 C 25.345 11.808 25.789 11.47 26.292 11.47 C 26.573 11.47 26.603 11.485 26.603 11.654 Z M 24.782 12.25 C 24.856 12.448 24.842 12.463 24.353 12.721 L 23.88 12.978 L 23.983 13.184 L 24.094 13.39 L 24.538 13.147 C 24.916 12.941 24.99 12.919 25.049 13.015 C 25.175 13.206 25.13 13.28 24.849 13.412 C 24.361 13.633 24.287 13.714 24.39 13.912 C 24.435 14.008 24.486 14.096 24.501 14.111 C 24.516 14.126 24.745 14.015 25.019 13.861 C 25.493 13.603 25.53 13.596 25.619 13.721 C 25.67 13.795 25.715 13.868 25.715 13.89 C 25.715 13.934 24.553 14.582 24.412 14.619 C 24.309 14.648 23.288 12.853 23.391 12.816 C 23.428 12.801 23.709 12.647 24.013 12.47 C 24.642 12.11 24.716 12.08 24.782 12.25 Z M 55.442 18.9 C 55.508 19.04 55.516 20.247 55.471 23.866 L 55.412 28.648 L 55.153 29.428 C 54.687 30.789 54.236 31.532 53.281 32.481 C 51.083 34.681 47.324 35.939 39.257 37.175 C 36.934 37.536 34.551 37.933 33.485 38.146 C 30.436 38.757 27.809 39.603 26.122 40.53 C 23.51 41.965 21.97 44.172 21.815 46.695 C 21.756 47.733 21.667 47.843 20.971 47.799 C 20.572 47.777 20.431 47.74 20.283 47.6 C 19.943 47.284 19.906 47.078 20.046 46.246 C 20.483 43.568 21.867 41.435 24.153 39.912 C 26.773 38.168 30.133 37.168 36.704 36.189 C 37.25 36.105 37.783 36.028 38.117 35.98 L 38.118 35.98 C 38.281 35.956 38.397 35.939 38.443 35.932 C 39.65 35.777 42.876 35.248 44.097 35.005 C 48.833 34.063 51.594 32.673 52.97 30.517 C 53.569 29.583 53.828 28.634 53.88 27.214 L 53.917 26.221 L 53.673 26.684 C 52.948 28.045 51.712 28.457 50.691 27.685 C 50.543 27.574 50.417 27.501 50.402 27.515 C 50.396 27.529 50.304 27.663 50.193 27.824 L 50.193 27.825 L 50.158 27.876 C 49.825 28.369 49.226 28.891 48.752 29.105 C 47.908 29.487 47.279 29.391 46.902 28.825 L 46.695 28.516 L 46.658 25.772 C 46.628 23.366 46.606 23.013 46.502 22.903 C 46.399 22.8 46.354 22.8 46.191 22.888 C 45.607 23.197 44.726 24.83 44.401 26.184 C 44.319 26.544 44.29 27.111 44.29 28.465 C 44.29 30.017 44.275 30.296 44.171 30.444 C 43.912 30.804 43.157 30.944 42.883 30.672 C 42.739 30.528 42.736 30.532 42.42 30.839 L 42.395 30.863 C 41.884 31.356 41.255 31.65 40.686 31.657 C 40.131 31.665 39.894 31.518 39.635 31.01 C 39.457 30.664 39.457 30.65 39.465 28.332 C 39.472 25.794 39.435 25.323 39.243 25.198 C 38.865 24.963 37.896 26.353 37.355 27.913 C 37.163 28.487 37.156 28.553 37.111 30.561 L 37.111 30.565 C 37.067 32.849 37.067 32.864 36.571 33.063 C 36.216 33.202 35.927 33.202 35.72 33.055 C 35.557 32.945 35.535 32.952 35.217 33.247 C 34.736 33.688 34.144 33.938 33.596 33.938 C 33.063 33.938 32.812 33.798 32.575 33.364 C 32.42 33.07 32.412 32.967 32.375 30.326 C 32.346 28.347 32.316 27.567 32.249 27.501 C 31.894 27.148 30.843 28.56 30.347 30.076 C 30.051 30.966 30.007 31.4 30.007 33.21 C 30.007 34.659 29.992 34.931 29.889 35.078 C 29.63 35.439 28.875 35.579 28.601 35.306 C 28.46 35.167 28.453 35.064 28.453 33.423 L 28.453 31.68 L 28.142 31.952 C 27.965 32.099 27.646 32.312 27.439 32.415 C 27.099 32.592 27.04 32.651 27.01 32.879 C 26.906 33.519 26.573 34.63 26.322 35.145 C 25.767 36.278 24.812 36.999 23.791 37.057 C 22.636 37.124 21.859 36.557 21.423 35.336 L 21.23 34.784 L 20.853 35.248 C 20.646 35.505 20.283 35.895 20.061 36.116 L 19.647 36.513 L 19.647 37.146 C 19.647 38.338 19.425 42.406 19.314 43.178 C 19.04 45.18 18.714 46.026 17.996 46.688 C 17.508 47.122 16.953 47.328 16.243 47.32 C 15.591 47.32 15.214 47.203 14.763 46.864 C 13.919 46.232 13.541 45.349 13.549 44.025 C 13.564 41.942 14.481 40.199 16.975 37.536 L 18.019 36.417 L 18.019 31.371 L 18.019 26.316 L 17.708 26.559 C 15.762 28.06 14.577 30.664 14.903 32.732 C 15.118 34.071 15.887 35.042 16.59 34.85 C 16.975 34.747 17.197 34.828 17.323 35.123 C 17.656 35.917 17.145 36.476 16.176 36.388 C 14.415 36.234 13.164 34.1 13.312 31.518 C 13.401 29.921 14.045 28.281 15.14 26.868 C 15.947 25.838 17.619 24.558 18.514 24.3 C 18.855 24.205 18.921 24.205 19.166 24.3 L 19.203 24.316 C 19.266 24.341 19.319 24.363 19.365 24.395 C 19.647 24.594 19.647 25.188 19.647 29.43 L 19.647 29.43 L 19.647 29.43 L 19.647 29.43 L 19.647 29.43 L 19.647 29.43 L 19.647 29.43 L 19.647 29.43 L 19.647 29.43 L 19.647 29.43 L 19.647 29.43 L 19.647 29.43 L 19.647 29.43 L 19.647 29.43 L 19.647 29.43 L 19.647 29.43 L 19.647 29.43 L 19.647 29.43 L 19.647 29.43 L 19.647 29.43 L 19.647 29.43 L 19.647 29.43 L 19.647 29.43 L 19.647 29.43 L 19.647 29.431 L 19.647 29.431 L 19.647 29.431 L 19.647 29.899 C 19.647 32.629 19.661 34.865 19.684 34.865 C 19.75 34.865 20.357 34.174 20.646 33.769 C 21.023 33.225 21.216 32.783 21.415 31.966 C 21.615 31.135 22.015 30.326 22.474 29.826 C 22.873 29.384 23.125 29.281 23.391 29.45 C 23.672 29.642 23.695 30.017 23.45 30.429 C 22.888 31.371 22.659 32.239 22.659 33.504 C 22.651 34.975 22.969 35.674 23.65 35.674 C 24.449 35.674 25.204 34.762 25.567 33.35 C 25.648 33.041 25.715 32.761 25.715 32.739 C 25.715 32.71 25.552 32.636 25.36 32.562 C 24.886 32.4 24.353 31.922 24.102 31.451 C 23.931 31.128 23.909 30.988 23.902 30.414 C 23.902 29.84 23.931 29.701 24.102 29.347 C 24.427 28.693 24.901 28.442 25.604 28.553 C 25.804 28.582 26.055 28.671 26.159 28.744 C 26.625 29.09 27.047 30.193 27.047 31.054 C 27.047 31.363 27.077 31.481 27.143 31.481 C 27.343 31.481 27.95 30.775 28.201 30.26 L 28.453 29.737 L 28.453 26.103 C 28.453 22.984 28.438 22.439 28.342 22.255 C 28.179 21.954 28.238 21.865 28.719 21.645 C 29.038 21.505 29.208 21.468 29.437 21.497 L 29.463 21.501 L 29.503 21.506 L 29.503 21.506 C 29.611 21.52 29.696 21.53 29.763 21.571 C 30.008 21.719 30.008 22.267 30.007 24.823 L 30.007 25.22 L 30.014 28.575 L 30.325 27.979 C 31.102 26.508 31.99 25.816 32.975 25.904 C 33.389 25.948 33.574 26.081 33.811 26.515 C 33.959 26.795 33.966 26.912 33.988 29.494 C 34.018 32.415 34.04 32.584 34.41 32.584 C 34.654 32.584 35.113 32.165 35.32 31.746 C 35.491 31.415 35.491 31.393 35.476 28.376 C 35.468 25.419 35.468 25.338 35.616 25.191 C 35.809 24.992 36.319 24.838 36.601 24.896 C 36.949 24.97 37.111 25.249 37.119 25.772 L 37.119 26.221 L 37.289 25.882 C 37.637 25.183 38.007 24.654 38.399 24.278 C 38.932 23.786 39.317 23.616 39.901 23.609 C 40.279 23.609 40.39 23.638 40.575 23.793 C 40.996 24.146 41.033 24.404 41.033 27.059 C 41.041 29.509 41.078 30.009 41.278 30.208 C 41.559 30.495 42.084 30.076 42.491 29.237 L 42.743 28.722 L 42.728 25.816 L 42.713 22.917 L 42.906 22.77 C 43.017 22.689 43.261 22.616 43.49 22.594 C 43.808 22.572 43.92 22.594 44.09 22.726 C 44.275 22.873 44.29 22.925 44.29 23.41 L 44.297 23.94 L 44.623 23.315 C 45.355 21.932 46.154 21.269 47.102 21.255 C 47.561 21.255 47.886 21.468 48.086 21.902 C 48.241 22.233 48.249 22.366 48.286 24.977 C 48.323 27.92 48.33 27.95 48.715 27.95 C 49.003 27.95 49.485 27.405 49.744 26.765 L 49.973 26.221 L 49.921 23.241 C 49.892 21.6 49.899 20.203 49.929 20.136 C 50.106 19.769 51.046 19.621 51.342 19.916 C 51.505 20.077 51.505 20.1 51.542 23.224 L 51.542 23.224 L 51.542 23.224 L 51.542 23.224 L 51.542 23.224 L 51.542 23.224 L 51.542 23.224 L 51.542 23.224 L 51.542 23.224 L 51.542 23.225 L 51.542 23.225 L 51.542 23.225 L 51.542 23.225 L 51.542 23.225 L 51.542 23.225 L 51.542 23.225 L 51.542 23.225 L 51.542 23.225 L 51.542 23.225 L 51.542 23.225 L 51.542 23.225 L 51.542 23.225 L 51.542 23.225 L 51.542 23.226 L 51.542 23.226 L 51.542 23.226 L 51.542 23.226 L 51.542 23.226 L 51.542 23.241 C 51.571 26.074 51.594 26.412 51.705 26.522 C 51.875 26.699 52.186 26.559 52.57 26.147 C 52.955 25.728 53.273 25.102 53.621 24.036 L 53.91 23.16 L 53.91 21.225 C 53.91 19.415 53.917 19.276 54.058 19.106 C 54.273 18.834 54.643 18.68 55.02 18.694 C 55.294 18.716 55.368 18.753 55.442 18.9 Z M 56.759 34.453 C 57.055 34.578 57.24 34.895 57.24 35.277 C 57.24 35.483 57.181 35.601 56.988 35.792 C 56.774 36.005 56.685 36.042 56.389 36.042 C 56.093 36.042 56.004 36.005 55.79 35.792 C 55.582 35.586 55.538 35.483 55.538 35.24 C 55.538 34.872 55.708 34.586 56.019 34.453 C 56.308 34.328 56.448 34.328 56.759 34.453 Z M 54.65 35.505 C 55.027 35.726 55.198 36.145 55.205 36.844 L 55.205 37.462 L 54.694 37.631 C 54.406 37.727 54.132 37.808 54.08 37.808 C 54.013 37.808 53.984 37.675 53.984 37.322 C 53.984 36.734 53.903 36.557 53.621 36.557 C 53.155 36.557 52.755 37.109 52.837 37.631 C 52.903 38.087 53.125 38.36 53.895 38.941 C 55.027 39.802 55.279 40.228 55.272 41.229 C 55.264 41.714 55.227 41.891 55.057 42.259 C 54.62 43.164 53.74 43.774 52.785 43.826 C 51.897 43.877 51.557 43.502 51.483 42.406 L 51.446 41.803 L 52.03 41.604 C 52.356 41.501 52.637 41.413 52.674 41.413 C 52.704 41.413 52.726 41.619 52.726 41.876 C 52.726 42.605 52.955 42.803 53.495 42.553 C 54.117 42.259 54.147 41.273 53.555 40.648 C 53.444 40.537 53.17 40.317 52.948 40.162 C 52.422 39.802 52.023 39.397 51.779 38.985 C 51.601 38.691 51.579 38.573 51.579 37.992 C 51.579 37.418 51.608 37.271 51.786 36.888 C 52.089 36.241 52.578 35.792 53.281 35.505 C 53.68 35.351 54.383 35.343 54.65 35.505 Z M 51.024 37.013 L 51.024 37.624 L 50.447 37.808 L 49.877 37.999 L 49.855 41.383 L 49.84 44.768 L 49.248 44.966 C 48.922 45.077 48.626 45.165 48.582 45.165 C 48.53 45.165 48.508 44.061 48.508 41.817 C 48.508 39.721 48.478 38.47 48.434 38.47 C 48.397 38.47 48.19 38.536 47.975 38.61 C 47.909 38.633 47.849 38.655 47.795 38.675 L 47.795 38.675 L 47.795 38.675 C 47.501 38.783 47.363 38.833 47.3 38.786 C 47.245 38.743 47.249 38.622 47.259 38.394 L 47.259 38.393 C 47.261 38.347 47.263 38.297 47.264 38.242 L 47.287 37.639 L 49.1 37.028 C 50.099 36.69 50.935 36.417 50.972 36.417 C 51.002 36.41 51.024 36.682 51.024 37.013 Z M 46.717 38.448 L 46.695 39.007 L 45.77 39.316 L 44.845 39.625 L 44.822 40.699 L 44.8 41.773 L 45.451 41.553 C 45.807 41.435 46.103 41.339 46.117 41.339 C 46.132 41.339 46.14 41.582 46.14 41.884 L 46.14 42.428 L 45.496 42.641 L 44.845 42.862 L 44.822 44.039 L 44.808 45.224 L 45.636 44.944 C 46.095 44.79 46.532 44.643 46.606 44.613 C 46.717 44.569 46.732 44.62 46.732 45.18 L 46.732 45.805 L 45.148 46.335 C 44.275 46.622 43.542 46.857 43.52 46.857 C 43.498 46.857 43.483 45.062 43.49 42.87 L 43.512 38.889 L 44.993 38.389 C 45.807 38.117 46.532 37.889 46.606 37.889 C 46.724 37.881 46.739 37.94 46.717 38.448 Z M 42.661 39.272 C 42.661 39.301 42.395 40.125 42.062 41.089 C 41.736 42.053 41.463 42.899 41.455 42.958 C 41.455 43.017 41.744 43.951 42.099 45.032 C 42.454 46.114 42.75 47.026 42.75 47.056 C 42.75 47.107 41.685 47.504 41.507 47.512 C 41.396 47.519 41.329 47.357 40.922 45.959 C 40.723 45.275 40.538 44.746 40.508 44.782 C 40.486 44.812 40.397 44.996 40.323 45.202 C 40.227 45.474 40.182 45.871 40.153 46.783 L 40.108 47.997 L 39.494 48.211 C 39.161 48.328 38.873 48.409 38.858 48.395 C 38.843 48.38 38.813 46.585 38.799 44.414 L 38.762 40.464 L 39.413 40.243 C 39.775 40.125 40.071 40.052 40.071 40.081 C 40.071 40.095 40.075 40.203 40.08 40.366 C 40.086 40.543 40.093 40.785 40.101 41.045 C 40.116 41.553 40.131 42.274 40.138 42.656 C 40.145 43.039 40.16 43.333 40.182 43.318 C 40.197 43.296 40.449 42.524 40.737 41.589 C 41.026 40.662 41.292 39.831 41.329 39.75 C 41.374 39.64 41.559 39.529 41.936 39.404 C 42.536 39.198 42.661 39.176 42.661 39.272 Z M 37.481 41.376 C 37.8 41.678 37.933 42.2 37.911 43.002 L 37.888 43.642 L 37.37 43.811 C 37.089 43.907 36.83 43.988 36.8 43.988 C 36.763 43.988 36.741 43.716 36.741 43.377 C 36.741 43.039 36.697 42.693 36.645 42.59 C 36.527 42.347 36.194 42.318 35.868 42.516 C 35.424 42.789 35.409 42.877 35.461 45.673 L 35.505 48.196 L 35.676 48.27 C 35.927 48.387 36.364 48.196 36.571 47.894 C 36.719 47.674 36.741 47.549 36.741 46.931 L 36.741 46.224 L 37.245 46.062 C 37.526 45.974 37.792 45.901 37.837 45.901 C 37.97 45.901 37.948 47.262 37.807 47.74 C 37.585 48.483 37.126 48.998 36.371 49.351 C 35.816 49.609 34.973 49.623 34.625 49.38 C 34.129 49.027 34.114 48.946 34.092 46.04 C 34.07 43.576 34.077 43.392 34.218 42.995 C 34.617 41.876 35.713 41.082 36.793 41.141 C 37.185 41.155 37.289 41.192 37.481 41.376 Z M 32.523 42.825 C 32.745 42.943 32.908 43.09 33.019 43.289 C 33.174 43.576 33.182 43.671 33.204 46.342 L 33.226 49.101 L 33.026 49.52 C 32.612 50.403 31.687 51.08 30.777 51.168 C 30.414 51.205 30.288 51.183 30.007 51.036 C 29.815 50.94 29.615 50.756 29.526 50.609 C 29.385 50.366 29.378 50.226 29.378 47.482 L 29.378 44.613 L 29.593 44.223 C 30.096 43.318 31.043 42.7 31.968 42.671 C 32.094 42.664 32.346 42.737 32.523 42.825 Z M 27.994 44.473 C 28.32 44.701 28.409 44.996 28.438 46.011 C 28.475 47.115 28.409 47.453 28.053 47.909 L 27.809 48.233 L 28.053 48.365 C 28.187 48.431 28.327 48.579 28.372 48.689 C 28.416 48.792 28.453 49.403 28.468 50.035 C 28.483 50.837 28.52 51.22 28.586 51.286 C 28.631 51.33 28.675 51.477 28.675 51.602 C 28.675 51.816 28.645 51.838 28.194 51.992 C 27.676 52.161 27.417 52.132 27.299 51.882 C 27.269 51.808 27.217 51.198 27.195 50.521 C 27.15 49.005 27.128 48.954 26.492 49.174 L 26.085 49.307 L 26.085 50.984 L 26.085 52.662 L 25.456 52.86 C 25.115 52.978 24.819 53.052 24.797 53.03 C 24.782 53.015 24.76 51.227 24.745 49.064 L 24.716 45.128 L 25.826 44.746 C 27.04 44.326 27.676 44.245 27.994 44.473 Z M 55.323 47.453 C 55.693 47.696 56.004 47.887 56.012 47.872 C 56.026 47.858 56.145 47.681 56.278 47.482 C 56.411 47.276 56.53 47.1 56.544 47.092 C 56.581 47.041 56.87 47.166 56.87 47.232 C 56.87 47.35 56.123 48.402 56.041 48.402 C 56.004 48.402 55.605 48.152 55.161 47.843 C 54.443 47.35 54.361 47.276 54.428 47.144 C 54.472 47.07 54.539 47.004 54.583 47.004 C 54.62 47.004 54.953 47.203 55.323 47.453 Z M 54.213 48.321 C 54.472 48.402 54.902 48.52 55.168 48.586 L 55.299 48.618 C 55.667 48.709 55.786 48.739 55.799 48.793 C 55.805 48.819 55.787 48.851 55.76 48.898 L 55.745 48.924 C 55.664 49.049 55.597 49.071 55.338 49.035 C 55.049 48.998 55.02 49.013 54.761 49.329 C 54.594 49.53 54.526 49.611 54.523 49.695 C 54.521 49.753 54.55 49.811 54.598 49.91 C 54.709 50.146 54.709 50.168 54.583 50.329 L 54.443 50.491 L 53.925 49.461 C 53.436 48.498 53.414 48.417 53.525 48.299 L 53.538 48.286 C 53.578 48.247 53.605 48.219 53.639 48.204 C 53.714 48.171 53.818 48.202 54.158 48.305 L 54.158 48.305 Z M 53.466 50.057 C 54.124 50.712 54.154 50.764 54.036 50.881 C 53.925 50.992 53.843 50.999 53.192 50.918 C 52.792 50.867 52.415 50.83 52.356 50.83 C 52.297 50.83 52.459 51.043 52.718 51.301 C 53.148 51.735 53.17 51.771 53.059 51.889 C 52.992 51.955 52.918 52.007 52.889 52.007 C 52.815 52.007 51.468 50.661 51.468 50.58 C 51.468 50.425 51.719 50.344 52.052 50.388 C 52.237 50.418 52.607 50.469 52.874 50.491 L 53.355 50.543 L 52.881 50.065 C 52.474 49.66 52.422 49.572 52.504 49.476 C 52.556 49.41 52.637 49.358 52.681 49.358 C 52.726 49.358 53.081 49.675 53.466 50.057 Z M 51.808 51.72 C 52.422 52.419 52.452 52.47 52.319 52.566 C 52.245 52.625 52.156 52.669 52.134 52.669 C 52.06 52.669 50.802 51.22 50.802 51.131 C 50.802 51.043 51.039 50.903 51.105 50.947 C 51.135 50.962 51.446 51.308 51.808 51.72 Z M 50.58 51.86 C 50.58 52.051 50.558 52.08 50.365 52.08 C 49.832 52.08 49.551 52.831 49.943 53.221 C 50.188 53.464 50.439 53.515 50.72 53.375 C 51.016 53.221 51.127 53.015 51.024 52.816 C 50.989 52.75 50.969 52.713 50.94 52.703 C 50.901 52.691 50.845 52.731 50.713 52.823 L 50.713 52.824 C 50.491 52.985 50.484 52.985 50.387 52.853 C 50.321 52.757 50.313 52.691 50.358 52.632 C 50.461 52.507 51.024 52.125 51.046 52.161 C 51.061 52.176 51.179 52.331 51.312 52.507 C 51.601 52.875 51.586 53.059 51.224 53.449 C 50.92 53.78 50.498 53.927 50.143 53.831 C 49.314 53.611 49.041 52.559 49.662 51.992 C 49.869 51.808 50.225 51.639 50.417 51.639 C 50.55 51.639 50.58 51.683 50.58 51.86 Z M 49.226 53.662 C 49.633 54.273 49.744 54.486 49.677 54.56 C 49.522 54.751 49.388 54.641 48.841 53.824 C 48.337 53.074 48.293 52.993 48.411 52.904 C 48.478 52.853 48.574 52.824 48.619 52.838 C 48.656 52.846 48.929 53.221 49.226 53.662 Z M 48.108 53.589 C 48.197 53.648 48.308 53.795 48.36 53.912 C 48.434 54.096 48.426 54.17 48.337 54.354 L 48.227 54.574 L 48.641 54.766 C 49.041 54.95 49.055 54.964 48.922 55.067 C 48.73 55.207 48.641 55.2 48.212 55.016 C 47.93 54.898 47.827 54.884 47.701 54.95 C 47.509 55.045 47.509 55.06 47.708 55.376 C 47.864 55.627 47.864 55.634 47.731 55.73 C 47.657 55.788 47.568 55.833 47.538 55.833 C 47.486 55.833 46.51 54.17 46.51 54.082 C 46.51 54.052 46.739 53.905 47.013 53.758 C 47.546 53.464 47.864 53.412 48.108 53.589 Z M 46.169 54.611 C 46.946 54.935 46.976 56.142 46.214 56.531 C 45.792 56.745 45.237 56.671 44.933 56.362 C 44.408 55.818 44.504 55.038 45.148 54.677 C 45.481 54.486 45.814 54.464 46.169 54.611 Z M 28.734 55.45 C 28.793 55.494 28.853 55.818 28.897 56.355 C 28.934 56.818 28.993 57.319 29.015 57.466 C 29.06 57.76 29.001 57.804 28.742 57.672 C 28.645 57.62 28.601 57.517 28.601 57.348 C 28.601 57.113 28.586 57.098 28.157 56.973 C 27.874 56.888 27.771 56.858 27.69 56.887 C 27.644 56.903 27.605 56.939 27.543 56.995 C 27.365 57.164 27.091 57.208 27.017 57.091 C 26.966 57.01 28.431 55.391 28.549 55.391 C 28.601 55.391 28.682 55.421 28.734 55.45 Z M 43.105 55.56 C 43.105 55.572 43.182 55.837 43.286 56.194 L 43.365 56.465 C 43.505 56.943 43.624 57.378 43.624 57.422 C 43.624 57.466 43.557 57.525 43.468 57.547 C 43.357 57.576 43.128 57.451 42.617 57.076 C 42.232 56.796 41.921 56.576 41.921 56.59 C 41.921 56.605 42.003 56.892 42.106 57.23 C 42.247 57.709 42.269 57.863 42.203 57.907 C 41.951 58.062 41.884 57.966 41.603 57.002 C 41.448 56.473 41.329 56.031 41.344 56.016 C 41.359 56.009 41.433 55.98 41.522 55.95 C 41.633 55.913 41.84 56.024 42.336 56.377 C 42.699 56.642 43.002 56.84 43.009 56.833 C 43.024 56.826 42.965 56.576 42.876 56.274 C 42.713 55.685 42.728 55.538 42.957 55.538 C 43.039 55.538 43.105 55.553 43.105 55.56 Z M 30.103 55.899 C 30.244 55.95 30.325 56.09 30.451 56.458 C 30.465 56.501 30.478 56.54 30.49 56.576 C 30.547 56.753 30.579 56.85 30.635 56.866 C 30.703 56.887 30.809 56.786 31.043 56.563 L 31.043 56.563 L 31.044 56.561 L 31.046 56.56 C 31.085 56.522 31.129 56.481 31.176 56.436 C 31.45 56.178 31.502 56.164 31.702 56.274 C 31.835 56.34 31.828 56.384 31.628 57.238 L 31.592 57.393 C 31.433 58.085 31.393 58.26 31.303 58.291 C 31.272 58.301 31.236 58.295 31.187 58.287 L 31.162 58.282 C 31.013 58.253 30.976 58.209 31.006 58.084 C 31.213 57.149 31.25 56.973 31.243 56.958 C 31.235 56.958 31.065 57.098 30.858 57.282 L 30.488 57.606 L 30.325 57.252 C 30.236 57.061 30.162 56.855 30.162 56.804 C 30.155 56.76 30.125 56.715 30.096 56.715 C 30.066 56.715 29.985 56.988 29.911 57.319 C 29.844 57.65 29.778 57.929 29.763 57.937 C 29.748 57.951 29.667 57.944 29.578 57.915 C 29.371 57.863 29.371 57.775 29.6 56.804 C 29.624 56.706 29.645 56.617 29.664 56.537 C 29.787 56.02 29.825 55.861 29.902 55.839 C 29.936 55.83 29.978 55.847 30.038 55.872 L 30.038 55.872 C 30.058 55.881 30.079 55.89 30.103 55.899 Z M 40.915 57.157 C 41.263 57.657 41.537 58.076 41.529 58.084 C 41.524 58.089 41.477 58.101 41.412 58.117 L 41.412 58.118 L 41.412 58.118 L 41.411 58.118 C 41.382 58.125 41.349 58.133 41.315 58.143 C 41.144 58.179 41.093 58.15 40.982 57.966 C 40.834 57.716 40.819 57.716 40.293 57.826 C 39.96 57.9 39.909 57.929 39.872 58.128 C 39.827 58.334 39.539 58.562 39.435 58.459 C 39.413 58.437 39.494 57.959 39.62 57.4 C 39.849 56.414 39.968 56.164 40.197 56.215 C 40.249 56.23 40.575 56.649 40.915 57.157 Z M 33.115 56.451 C 33.715 56.531 33.744 56.546 33.744 56.715 L 33.744 56.737 C 33.745 56.789 33.745 56.825 33.727 56.848 C 33.686 56.904 33.546 56.887 33.072 56.83 L 33.034 56.826 L 32.619 56.774 L 32.582 57.002 L 32.581 57.01 C 32.57 57.083 32.562 57.133 32.581 57.169 C 32.621 57.246 32.78 57.262 33.276 57.312 L 33.337 57.319 C 33.478 57.333 33.522 57.385 33.522 57.525 C 33.522 57.701 33.507 57.709 33.115 57.686 C 32.893 57.672 32.649 57.642 32.582 57.628 C 32.471 57.598 32.449 57.635 32.449 57.841 L 32.449 58.098 L 32.982 58.165 C 33.419 58.209 33.522 58.253 33.544 58.363 C 33.596 58.628 33.47 58.636 32.249 58.437 C 32.035 58.407 32.005 58.371 32.005 58.172 C 32.005 58.047 32.035 57.738 32.079 57.495 C 32.116 57.245 32.168 56.892 32.19 56.693 C 32.193 56.669 32.196 56.645 32.199 56.624 C 32.212 56.517 32.22 56.449 32.259 56.409 C 32.328 56.338 32.495 56.362 32.963 56.429 Z M 38.813 56.62 C 39.013 56.73 39.013 56.752 38.91 56.907 C 38.806 57.068 38.791 57.068 38.554 56.958 C 37.844 56.62 37.282 57.488 37.844 58.047 C 38.103 58.297 38.317 58.312 38.658 58.106 C 38.88 57.973 38.917 57.966 39.021 58.069 C 39.117 58.165 39.117 58.201 39.035 58.297 C 38.843 58.533 38.51 58.643 38.133 58.613 C 37.037 58.503 36.83 57.002 37.851 56.554 C 38.066 56.458 38.606 56.495 38.813 56.62 Z M 35.172 56.642 C 35.35 56.642 35.483 56.708 35.639 56.855 C 35.935 57.149 35.927 57.458 35.631 57.76 C 35.611 57.779 35.593 57.796 35.576 57.812 C 35.509 57.875 35.467 57.914 35.456 57.961 C 35.438 58.036 35.498 58.13 35.657 58.375 L 35.658 58.376 C 35.686 58.418 35.716 58.466 35.75 58.518 C 35.807 58.607 35.837 58.653 35.824 58.677 C 35.811 58.702 35.75 58.702 35.624 58.702 C 35.402 58.702 35.343 58.65 35.128 58.334 C 34.95 58.054 34.847 57.966 34.706 57.966 C 34.536 57.966 34.521 57.996 34.521 58.29 C 34.521 58.658 34.477 58.716 34.24 58.65 C 34.055 58.606 34.04 58.43 34.129 57.23 L 34.173 56.554 L 34.551 56.598 C 34.758 56.62 35.039 56.642 35.172 56.642 Z M 36.697 56.87 C 36.719 56.995 36.741 57.458 36.741 57.9 L 36.741 58.702 L 36.519 58.702 L 36.297 58.702 L 36.297 57.672 L 36.297 56.642 L 36.475 56.642 C 36.608 56.642 36.66 56.693 36.697 56.87 Z M 36.053 11.175 C 35.765 11.175 35.624 10.874 35.816 10.661 C 35.987 10.477 36.186 10.477 36.372 10.661 C 36.608 10.896 36.438 11.175 36.053 11.175 Z M 33.878 9.903 C 33.744 9.954 33.759 10.271 33.9 10.322 C 34.085 10.396 34.211 10.374 34.329 10.249 C 34.566 10.021 34.225 9.756 33.878 9.903 Z M 34.107 11.213 C 33.811 11.213 33.715 11.088 33.811 10.837 C 33.87 10.683 34.44 10.698 34.499 10.852 C 34.581 11.065 34.418 11.213 34.107 11.213 Z M 31.842 10.153 C 31.687 10.241 31.665 10.514 31.798 10.646 C 31.85 10.697 31.976 10.734 32.079 10.734 C 32.316 10.734 32.449 10.609 32.449 10.388 C 32.449 10.131 32.109 9.991 31.842 10.153 Z M 24.975 30.186 C 25.019 29.988 25.093 29.789 25.138 29.73 C 25.271 29.568 25.449 29.664 25.604 29.973 C 25.708 30.186 25.752 30.466 25.774 30.988 L 25.804 31.716 L 25.582 31.599 C 25.086 31.341 24.842 30.775 24.975 30.186 Z M 17.493 38.875 C 15.828 40.883 15.318 41.869 15.059 43.517 C 14.955 44.157 15.059 44.819 15.325 45.29 C 15.577 45.724 15.754 45.827 16.25 45.827 C 16.598 45.827 16.716 45.79 16.909 45.636 C 17.331 45.276 17.567 44.621 17.753 43.289 C 17.871 42.443 18.049 39.081 18.004 38.581 L 17.982 38.294 Z M 55.834 35.417 C 55.73 35.108 55.849 34.807 56.13 34.667 C 56.352 34.556 56.367 34.556 56.604 34.645 C 56.885 34.748 57.055 35.138 56.944 35.417 L 56.855 35.638 L 56.759 35.454 C 56.692 35.329 56.685 35.233 56.737 35.138 C 56.84 34.939 56.678 34.792 56.345 34.792 L 56.056 34.792 L 56.056 35.233 C 56.056 35.579 56.078 35.675 56.167 35.675 C 56.226 35.675 56.278 35.608 56.278 35.527 C 56.278 35.447 56.33 35.38 56.389 35.38 C 56.448 35.38 56.5 35.432 56.5 35.498 C 56.5 35.564 56.567 35.63 56.655 35.653 C 56.863 35.711 56.692 35.822 56.404 35.822 C 56.093 35.822 55.93 35.704 55.834 35.417 Z M 56.278 35.086 C 56.278 35.123 56.33 35.159 56.389 35.159 C 56.448 35.159 56.5 35.123 56.5 35.086 C 56.5 35.042 56.448 35.012 56.389 35.012 C 56.33 35.012 56.278 35.042 56.278 35.086 Z M 30.673 47.07 C 30.673 44.422 30.688 44.326 31.102 44.106 C 31.346 43.973 31.65 43.959 31.768 44.076 C 31.894 44.201 31.894 49.197 31.776 49.462 C 31.672 49.682 31.169 49.947 30.962 49.896 C 30.88 49.874 30.777 49.771 30.74 49.675 C 30.703 49.579 30.673 48.402 30.673 47.07 Z M 26.381 45.71 L 26.122 45.805 L 26.1 47.034 L 26.085 48.27 L 26.248 48.218 C 26.625 48.108 26.943 47.917 27.025 47.74 C 27.121 47.549 27.158 45.945 27.077 45.724 C 27.025 45.585 26.744 45.577 26.381 45.71 Z M 54.139 49.064 C 54.058 48.925 53.984 48.785 53.984 48.748 C 53.984 48.667 54.213 48.689 54.45 48.792 L 54.65 48.88 L 54.472 49.101 L 54.295 49.314 Z M 47.361 54.008 C 47.236 54.07 47.124 54.133 47.072 54.161 L 47.072 54.161 L 47.072 54.162 L 47.071 54.162 C 47.056 54.17 47.046 54.176 47.042 54.177 C 47.028 54.185 47.094 54.317 47.183 54.464 C 47.316 54.7 47.353 54.715 47.494 54.648 C 47.731 54.523 47.99 54.273 47.99 54.17 C 47.99 54.067 47.79 53.846 47.708 53.846 C 47.679 53.854 47.523 53.92 47.361 54.008 Z M 45.703 56.274 C 45.022 56.274 44.793 55.207 45.422 54.95 C 45.644 54.862 45.733 54.862 45.955 54.964 C 46.184 55.067 46.362 55.369 46.362 55.649 C 46.362 55.921 45.992 56.274 45.703 56.274 Z M 28.202 56.252 L 27.994 56.495 L 28.239 56.598 C 28.376 56.654 28.438 56.68 28.47 56.659 C 28.497 56.641 28.502 56.592 28.513 56.502 C 28.527 56.392 28.505 56.237 28.475 56.156 C 28.416 56.017 28.401 56.024 28.202 56.252 Z M 40.035 57.319 C 40.057 57.252 40.101 57.105 40.123 56.987 C 40.146 56.877 40.175 56.789 40.183 56.789 C 40.242 56.789 40.575 57.37 40.538 57.407 C 40.508 57.429 40.375 57.451 40.234 57.451 C 40.027 57.451 39.99 57.429 40.035 57.319 Z M 34.521 57.304 L 34.521 57.606 L 34.899 57.584 C 35.335 57.562 35.505 57.4 35.365 57.172 C 35.306 57.083 35.165 57.039 34.899 57.024 L 34.521 57.002 Z M 61.621 20.048 C 61.836 19.982 62.717 19.703 63.567 19.423 C 64.426 19.144 65.151 18.908 65.181 18.908 C 65.21 18.901 65.218 19.055 65.196 19.247 C 65.179 19.391 65.152 19.616 65.126 19.821 L 65.099 20.041 C 65.07 20.287 65.057 20.394 64.998 20.456 C 64.952 20.504 64.88 20.525 64.751 20.563 L 64.523 20.635 C 64.269 20.715 63.874 20.84 63.493 20.961 L 63.437 20.979 L 63.436 20.979 C 62.927 21.143 62.392 21.315 62.228 21.358 L 61.925 21.454 L 61.577 20.806 L 61.229 20.166 Z M 63.663 21.836 C 62.983 22.064 62.405 22.27 62.376 22.3 C 62.331 22.351 62.738 23.41 62.864 23.55 C 62.909 23.609 65.144 22.91 65.254 22.807 C 65.284 22.778 65.269 22.447 65.218 22.079 C 65.144 21.556 65.099 21.402 65.01 21.409 C 64.951 21.417 64.344 21.601 63.663 21.836 Z M 63.22 24.492 C 63.22 24.47 63.716 24.286 64.315 24.08 C 64.922 23.867 65.447 23.705 65.484 23.712 C 65.543 23.727 65.973 24.867 65.973 25.007 C 65.973 25.036 65.484 25.213 64.885 25.412 C 64.333 25.586 63.848 25.747 63.732 25.786 L 63.708 25.794 C 63.642 25.816 63.22 24.698 63.22 24.492 Z M 65.047 26.273 C 64.44 26.478 63.922 26.655 63.908 26.67 C 63.893 26.685 63.952 27.008 64.041 27.383 L 64.204 28.075 L 65.587 27.634 C 66.35 27.391 66.986 27.185 67.001 27.17 C 67.075 27.104 66.372 25.89 66.268 25.897 C 66.209 25.905 65.661 26.074 65.047 26.273 Z M 64.426 28.95 C 64.44 28.935 65.106 28.707 65.898 28.443 C 66.69 28.185 67.408 27.972 67.489 27.979 C 67.63 27.986 68.696 29.024 68.629 29.083 C 68.57 29.134 64.625 30.385 64.596 30.363 C 64.559 30.319 64.396 28.98 64.426 28.95 Z M 5.142 38.331 C 6.06 38.036 6.874 37.771 6.955 37.735 C 7.17 37.639 7.2 37.646 7.244 37.786 C 7.303 37.992 7.451 39.066 7.422 39.096 C 7.407 39.103 6.726 39.331 5.897 39.603 L 4.402 40.089 L 4.151 39.817 C 3.477 39.074 3.381 38.949 3.426 38.904 C 3.455 38.882 4.225 38.617 5.142 38.331 Z M 6.696 40.272 C 6.267 40.412 5.697 40.596 5.423 40.684 L 4.928 40.839 L 5.268 41.479 C 5.373 41.668 5.467 41.842 5.532 41.962 C 5.586 42.061 5.62 42.123 5.623 42.126 C 5.631 42.148 7.902 41.405 7.947 41.369 C 8.006 41.317 7.629 40.015 7.555 40.022 C 7.51 40.022 7.125 40.14 6.696 40.272 Z M 6.008 42.987 C 6 42.965 6.43 42.803 6.955 42.627 C 7.488 42.45 7.991 42.303 8.08 42.303 C 8.213 42.296 8.265 42.391 8.45 42.943 L 8.672 43.598 L 7.621 43.936 C 7.051 44.128 6.548 44.282 6.504 44.282 C 6.444 44.282 6.259 43.796 6.008 42.987 Z M 7.747 44.819 C 6.955 45.084 6.63 45.224 6.652 45.29 C 6.674 45.342 6.733 45.673 6.785 46.011 C 6.837 46.386 6.903 46.629 6.955 46.614 C 6.979 46.6 7.24 46.516 7.606 46.397 L 7.606 46.397 L 7.607 46.397 C 7.798 46.335 8.019 46.263 8.25 46.188 C 8.924 45.974 9.486 45.79 9.493 45.783 C 9.545 45.754 9.005 44.474 8.946 44.459 C 8.909 44.451 8.369 44.613 7.747 44.819 Z M 6.941 47.549 C 6.948 47.541 7.621 47.321 8.435 47.056 C 9.249 46.791 9.915 46.577 9.923 46.585 C 9.923 46.592 10.078 46.886 10.263 47.232 L 10.596 47.872 L 10.034 48.056 C 8.539 48.557 6.83 49.079 6.8 49.049 C 6.77 49.013 6.904 47.585 6.941 47.549 Z" fill="#0F0F0F"></path></svg>