<svg xmlns="http://www.w3.org/2000/svg" xmlns:xlink="http://www.w3.org/1999/xlink" viewBox="0 0 132 34"><path d="M 4.486 0.489 C 5.295 0.102 5.638 0.045 6.761 0.107 C 7.864 0.169 8.257 0.285 9.123 0.806 C 11.817 2.426 14.424 6.588 15.539 11.046 C 16.033 13.023 16.553 16.322 16.553 17.481 C 16.553 18.375 16.782 18.44 17.501 17.751 C 17.943 17.327 18.027 17.302 18.128 17.567 C 18.317 18.059 18.056 18.75 17.404 19.483 C 16.849 20.108 16.776 20.334 16.557 22.096 C 15.976 26.783 14.851 29.932 13.055 31.896 C 11.553 33.54 10.298 34.156 9.117 33.83 C 8.328 33.612 8.001 33.043 7.747 31.442 C 7.606 30.553 7.623 29.983 7.815 29.076 C 8.425 26.203 9.562 24.228 11.91 21.96 L 13.477 20.447 L 13.353 19.113 C 12.849 13.723 11.761 8.722 10.501 6.001 C 9.357 3.529 6.63 1.553 5.44 2.332 C 4.576 2.898 4.191 3.992 4.099 6.141 C 3.947 9.692 4.696 13.404 6.264 16.881 C 6.881 18.249 7.987 19.525 8.556 19.525 C 9.473 19.525 10.412 18.141 10.604 16.509 C 10.75 15.27 11.12 15.146 11.414 16.238 C 11.894 18.02 11.044 20.841 9.775 21.683 C 8.637 22.436 7.115 22.206 5.594 21.049 C 4.404 20.146 2.461 16.902 1.707 14.565 C 0.776 11.675 0.48 7.801 1.028 5.693 C 1.643 3.333 3.089 1.156 4.486 0.489 Z M 13.096 23.016 C 13.027 23.016 12.723 23.167 12.419 23.352 C 11.768 23.75 10.792 24.825 10.406 25.572 C 9.861 26.626 9.205 29.297 9.205 30.462 C 9.205 31.825 9.517 32.299 10.287 32.106 C 10.996 31.93 11.381 31.507 12.058 30.166 C 13.107 28.084 13.843 23.012 13.096 23.016 Z M 97.193 14.198 L 97.193 17.133 L 93.338 21.59 C 91.218 24.04 89.482 26.108 89.481 26.184 C 89.479 26.259 91.214 26.321 93.336 26.321 L 97.193 26.321 L 97.193 29.449 L 91.086 29.401 L 84.978 29.352 L 84.871 26.336 L 92.819 17.229 L 89.312 17.179 L 85.804 17.128 L 85.804 14.198 Z M 70.586 14.198 L 71.66 15.271 L 71.659 19.485 C 71.65 23.058 71.511 23.739 70.825 24.003 C 70.662 24.066 69.46 24.117 68.155 24.117 L 65.782 24.117 L 65.782 29.444 L 62.476 29.444 L 62.476 14.198 Z M 77.906 29.444 L 81.396 29.444 L 81.396 14.198 L 77.906 14.198 Z M 112.807 14.198 L 112.803 15.713 L 112.798 17.229 L 108.945 21.674 C 106.826 24.118 105.092 26.165 105.092 26.22 C 105.092 26.276 106.828 26.321 108.95 26.321 L 112.807 26.321 L 112.807 29.444 L 100.683 29.444 L 100.683 26.159 L 104.541 21.755 C 106.662 19.333 108.398 17.302 108.398 17.244 C 108.398 17.185 106.828 17.136 104.908 17.136 L 101.418 17.136 L 101.418 14.198 Z M 125.952 14.381 L 128.933 21.775 C 130.573 25.841 131.914 29.23 131.913 29.306 C 131.912 29.382 131.132 29.444 130.181 29.444 L 128.45 29.444 L 127.826 27.837 L 127.203 26.229 L 124.159 26.179 L 121.114 26.129 L 120.491 27.74 L 119.868 29.353 L 118.175 29.405 C 117.243 29.434 116.48 29.393 116.479 29.313 C 116.477 29.233 117.815 25.841 119.451 21.775 L 122.425 14.381 Z M 34.448 9.166 C 35.463 8.805 35.98 8.817 36.868 9.221 C 38.703 10.053 39.324 12.587 38.251 14.856 C 37.635 16.157 35.722 18.288 34.704 18.807 C 33.868 19.233 33.797 19.704 34.488 20.246 C 35.057 20.694 36.172 20.75 36.906 20.369 C 37.687 19.962 38.151 19.356 38.839 17.842 C 39.444 16.511 40.032 15.879 40.437 16.129 C 40.937 16.438 40.213 18.955 39.152 20.597 C 38.136 22.169 37.071 22.833 35.574 22.827 C 34.359 22.823 33.432 22.483 32.198 21.59 L 31.44 21.04 L 30.578 21.476 C 30.104 21.716 29.532 21.913 29.308 21.913 C 28.982 21.913 28.875 22.051 28.773 22.601 C 28.489 24.136 27.094 26.16 25.884 26.796 C 23.714 27.934 20.499 25.254 19.666 21.613 C 19.268 19.876 19.797 17.036 20.817 15.43 C 21.471 14.4 22.193 13.969 23.146 14.037 C 23.609 14.071 24.055 13.949 24.521 13.661 C 25.058 13.328 25.377 13.256 25.963 13.335 C 27.941 13.6 29.227 15.91 29.227 19.196 C 29.227 19.983 29.27 20.627 29.322 20.627 C 29.374 20.627 29.707 20.441 30.063 20.214 C 30.656 19.835 30.7 19.747 30.59 19.157 C 30.028 16.138 30.205 13.719 31.095 12.234 C 31.846 10.983 33.443 9.522 34.448 9.166 Z M 25.465 15.483 C 24.986 15.483 24.815 15.598 24.544 16.099 C 24.267 16.615 24.248 16.815 24.424 17.321 C 24.719 18.169 24.707 18.204 24.024 18.489 C 23.166 18.848 22.929 19.537 23.008 21.443 C 23.073 23.005 23.076 23.012 23.842 23.778 C 24.674 24.61 25.34 24.759 26.193 24.303 C 27.094 23.82 27.189 22.034 26.351 21.338 C 25.912 20.973 25.71 20.287 25.924 19.886 C 26.026 19.694 26.44 19.448 26.842 19.34 C 27.558 19.147 27.574 19.125 27.574 18.318 C 27.574 16.722 26.653 15.483 25.465 15.483 Z M 124.136 18.555 C 123.902 18.934 122.178 23.446 122.243 23.511 C 122.28 23.548 123.177 23.555 124.236 23.526 L 126.161 23.474 L 125.205 20.923 C 124.679 19.52 124.198 18.454 124.136 18.555 Z M 66.715 17.32 L 65.598 17.32 L 65.598 21.178 L 66.715 21.178 C 67.704 21.178 67.892 21.117 68.368 20.641 C 68.807 20.202 68.904 19.949 68.904 19.249 C 68.904 18.549 68.807 18.297 68.368 17.857 C 67.892 17.382 67.704 17.32 66.715 17.32 Z M 46.239 3.038 C 46.853 1.984 47.229 2.006 47.229 3.096 C 47.229 4.224 47.388 4.465 48.805 5.475 C 50.777 6.883 52.119 8.315 52.787 9.725 C 53.294 10.796 53.383 11.188 53.383 12.361 C 53.383 13.534 53.305 13.88 52.856 14.689 C 52.153 15.958 50.635 17.48 49.617 17.936 C 48.471 18.449 45.926 18.574 44.947 18.165 C 44.304 17.896 44.192 17.894 43.847 18.146 C 42.789 18.917 42.616 19.015 42.509 18.907 C 42.445 18.843 42.523 18.321 42.682 17.748 C 42.958 16.756 42.955 16.658 42.602 15.773 C 42.159 14.655 42.24 13.101 42.78 12.377 C 42.971 12.122 43.596 11.593 44.168 11.202 C 45.151 10.53 45.209 10.449 45.21 9.727 C 45.21 9.307 45.359 8.343 45.54 7.585 C 45.776 6.597 45.826 5.999 45.715 5.472 C 45.528 4.585 45.641 4.066 46.239 3.038 Z M 34.619 11.365 C 34.113 12.139 33.791 13.616 33.684 15.665 C 33.57 17.854 33.477 17.81 35.081 16.32 C 36.555 14.952 37.175 12.781 36.478 11.433 C 36.096 10.694 35.084 10.657 34.619 11.365 Z M 46.702 8.274 C 46.585 8.494 46.439 9.037 46.378 9.483 C 46.282 10.187 46.355 10.451 46.932 11.483 C 47.694 12.847 47.816 13.942 47.26 14.445 C 47.076 14.612 46.798 14.749 46.643 14.749 C 46.209 14.749 45.392 15.469 45.392 15.851 C 45.392 16.345 46.262 16.953 46.966 16.953 C 48.271 16.953 49.258 16.265 49.823 14.963 C 50.601 13.17 49.962 11.119 47.965 8.995 C 46.954 7.919 46.907 7.892 46.702 8.274 Z M 39.677 2.349 C 40.697 1.795 42.107 2.175 42.839 3.201 C 43.2 3.708 43.277 4.033 43.266 5.013 C 43.255 6.02 43.128 6.473 42.459 7.906 C 42.023 8.841 41.594 9.605 41.507 9.605 C 41.42 9.605 41.37 9.019 41.396 8.303 L 41.443 7.001 L 40.483 6.639 C 39.344 6.209 38.696 5.42 38.696 4.467 C 38.696 3.556 39.113 2.656 39.677 2.349 Z" fill="#0F0F0F"></path></svg>