<svg xmlns="http://www.w3.org/2000/svg" xmlns:xlink="http://www.w3.org/1999/xlink" viewBox="0 0 88 50"><path d="M 65.443 0.706 C 65.552 3.083 65.603 5.057 65.558 5.102 C 65.529 5.132 64.467 5.551 63.198 6.035 L 60.891 6.916 L 61.4 7.066 C 61.679 7.148 62.735 7.452 63.744 7.741 C 64.754 8.03 65.608 8.293 65.642 8.326 C 65.675 8.359 65.735 9.458 65.775 10.769 C 65.814 12.079 65.855 13.16 65.865 13.171 C 65.876 13.181 66.477 12.306 67.201 11.225 C 67.926 10.144 68.537 9.233 68.559 9.201 C 68.581 9.168 69.639 9.44 70.909 9.804 C 72.179 10.168 73.245 10.457 73.278 10.446 C 73.31 10.435 72.658 9.537 71.829 8.45 L 70.321 6.473 L 70.528 6.167 C 70.642 5.999 71.272 5.071 71.928 4.105 C 72.584 3.139 73.11 2.339 73.096 2.327 C 73.083 2.314 72.064 2.681 70.832 3.141 C 69.6 3.601 68.559 3.977 68.518 3.977 C 68.478 3.977 67.842 3.191 67.105 2.23 C 66.369 1.269 65.686 0.384 65.59 0.264 L 65.413 0.044 Z M 85.108 9.259 C 84.686 9.409 84.228 9.826 83.996 10.272 C 83.728 10.785 83.713 11.589 83.961 12.094 C 84.494 13.179 85.728 13.616 86.786 13.095 C 87.58 12.704 87.993 11.972 87.928 11.068 C 87.872 10.269 87.421 9.622 86.696 9.293 C 86.3 9.113 85.562 9.098 85.108 9.259 Z M 73.366 11.986 C 71.03 12.334 69.408 13.05 68.109 14.307 C 66.783 15.588 65.984 17.484 65.984 19.348 C 65.984 21.193 66.755 22.267 68.614 23.014 C 68.985 23.163 70.582 23.608 72.239 24.026 C 75.529 24.854 76.122 25.059 76.529 25.511 L 76.798 25.81 L 76.767 26.411 C 76.728 27.153 76.543 27.57 76.024 28.083 C 75.573 28.528 74.829 28.898 74.037 29.071 C 73.328 29.227 71.706 29.187 71.015 28.997 C 70.269 28.791 69.267 28.261 68.792 27.82 C 68.049 27.13 67.752 26.376 67.637 24.888 L 67.587 24.243 L 66.313 24.243 C 65.558 24.243 65.02 24.273 64.994 24.315 C 64.949 24.389 63.781 30.963 63.781 31.144 C 63.781 31.222 64.011 31.242 64.871 31.242 L 65.961 31.242 L 66.348 30.542 C 66.561 30.156 66.765 29.822 66.802 29.8 C 66.839 29.777 67.036 29.909 67.241 30.093 C 68.016 30.793 69.142 31.324 70.492 31.628 C 71.127 31.77 71.435 31.794 72.595 31.789 C 75.799 31.775 78.184 30.825 79.68 28.967 C 80.807 27.567 81.5 25.317 81.268 23.814 C 81.039 22.336 80.293 21.41 78.727 20.664 C 77.853 20.247 76.871 19.963 74.911 19.56 C 71.644 18.888 70.792 18.548 70.388 17.753 C 69.801 16.598 70.951 15.062 72.787 14.548 C 73.454 14.361 74.979 14.324 75.629 14.479 C 76.911 14.784 78.093 15.668 78.579 16.685 C 78.874 17.304 79.012 18.015 78.972 18.721 L 78.943 19.233 L 80.243 19.233 L 81.543 19.233 L 81.585 19.031 C 81.607 18.919 81.858 17.485 82.141 15.844 C 82.425 14.203 82.673 12.786 82.694 12.695 L 82.732 12.529 L 81.629 12.529 L 80.525 12.529 L 80.216 13.154 L 79.907 13.779 L 79.684 13.572 C 78.982 12.919 78.11 12.453 77.08 12.18 C 76.467 12.018 76.198 11.991 74.982 11.974 C 74.214 11.962 73.487 11.968 73.366 11.986 Z M 3.668 12.621 C 3.651 12.672 3.558 13.185 3.46 13.763 L 3.282 14.813 L 4.025 14.813 C 5.137 14.814 5.606 14.908 5.851 15.18 C 5.993 15.337 6.053 15.484 6.053 15.67 C 6.053 15.979 4.031 27.624 3.915 27.984 C 3.807 28.32 3.501 28.663 3.192 28.795 C 3.021 28.869 2.565 28.922 1.867 28.951 L 0.802 28.995 L 0.65 29.879 C 0.567 30.366 0.477 30.871 0.45 31.003 L 0.401 31.242 L 9.58 31.242 C 14.629 31.242 18.762 31.234 18.765 31.224 C 18.827 31.015 20.195 23.085 20.175 23.046 C 20.159 23.016 19.568 22.991 18.863 22.991 C 17.899 22.991 17.573 23.014 17.553 23.083 C 17.538 23.133 17.419 23.639 17.288 24.206 C 16.749 26.538 16.058 27.658 14.765 28.298 C 13.829 28.762 13.379 28.817 10.712 28.794 L 8.431 28.774 L 9.552 22.328 C 10.427 17.299 10.711 15.808 10.842 15.55 C 10.97 15.297 11.096 15.175 11.37 15.039 C 11.693 14.879 11.848 14.857 12.894 14.827 C 13.535 14.809 14.059 14.789 14.059 14.785 C 14.059 14.78 14.142 14.313 14.243 13.748 C 14.343 13.183 14.426 12.677 14.426 12.625 C 14.426 12.486 3.713 12.482 3.668 12.621 Z M 23.94 12.695 C 23.868 13.024 23.607 14.587 23.607 14.688 C 23.607 14.769 23.82 14.8 24.616 14.833 C 25.172 14.857 25.735 14.915 25.867 14.963 C 26.156 15.067 26.324 15.36 26.324 15.759 C 26.324 15.918 25.86 18.713 25.292 21.969 C 24.508 26.474 24.222 27.969 24.096 28.219 C 23.823 28.762 23.482 28.891 22.178 28.94 C 21.165 28.978 21.105 28.989 21.073 29.135 C 20.987 29.535 20.742 30.994 20.742 31.111 C 20.742 31.236 21.173 31.242 30.281 31.242 L 39.821 31.242 L 40.2 29.271 C 40.409 28.187 40.755 26.389 40.969 25.275 L 41.358 23.249 L 40.073 23.228 C 39.367 23.217 38.775 23.222 38.759 23.238 C 38.743 23.255 38.648 23.628 38.549 24.069 C 38.318 25.094 38.118 25.699 37.798 26.343 C 37.182 27.582 36.546 28.198 35.462 28.605 C 35.042 28.763 34.918 28.77 31.887 28.794 C 28.897 28.818 28.748 28.813 28.749 28.686 C 28.75 28.613 28.975 27.277 29.25 25.717 L 29.748 22.88 L 31.088 22.86 C 31.901 22.848 32.547 22.872 32.73 22.921 C 33.157 23.037 33.424 23.331 33.488 23.758 C 33.533 24.063 33.425 25.039 33.252 25.882 L 33.211 26.085 L 34.463 26.085 C 35.592 26.085 35.719 26.072 35.753 25.956 C 35.802 25.788 37.267 17.372 37.267 17.258 C 37.267 17.194 36.935 17.17 36.025 17.17 L 34.782 17.17 L 34.742 17.373 C 34.72 17.484 34.665 17.791 34.619 18.054 C 34.395 19.358 33.986 19.996 33.228 20.224 C 32.659 20.395 30.217 20.482 30.216 20.331 C 30.216 20.274 30.421 19.043 30.672 17.594 L 31.128 14.96 L 34.106 14.961 C 37.249 14.962 37.647 14.997 38.283 15.322 C 38.693 15.532 39.137 16.055 39.293 16.513 C 39.443 16.952 39.486 18.379 39.377 19.325 L 39.32 19.823 L 40.564 19.823 L 41.809 19.823 L 41.851 19.62 C 41.921 19.275 43.07 12.651 43.07 12.588 C 43.07 12.556 38.774 12.529 33.523 12.529 L 23.977 12.529 Z M 44.979 12.588 C 44.979 12.62 44.897 13.109 44.796 13.675 C 44.695 14.24 44.612 14.722 44.612 14.747 C 44.612 14.771 45.086 14.809 45.665 14.831 C 47.115 14.885 47.369 15.032 47.346 15.807 C 47.34 16.01 46.872 18.824 46.305 22.061 C 45.158 28.607 45.205 28.422 44.587 28.73 C 44.277 28.884 44.099 28.911 43.183 28.942 L 42.134 28.978 L 41.974 29.951 C 41.885 30.486 41.795 30.996 41.772 31.083 L 41.73 31.242 L 51.285 31.242 L 60.84 31.242 L 60.88 31.076 C 60.922 30.903 62.386 23.278 62.386 23.236 C 62.386 23.223 61.796 23.212 61.075 23.212 L 59.765 23.212 L 59.633 23.856 C 59.158 26.174 58.25 27.749 57.033 28.365 C 56.22 28.776 55.905 28.808 52.673 28.81 C 51.067 28.81 49.753 28.796 49.753 28.778 C 49.753 28.734 50.699 23.305 50.753 23.041 L 50.795 22.833 L 52.276 22.856 C 53.532 22.877 53.792 22.9 53.998 23.013 C 54.362 23.212 54.526 23.537 54.527 24.059 C 54.527 24.451 54.365 25.609 54.262 25.956 C 54.226 26.075 54.318 26.085 55.497 26.085 L 56.771 26.085 L 57.314 22.972 C 57.613 21.26 57.962 19.254 58.091 18.515 L 58.324 17.17 L 57.063 17.17 L 55.801 17.17 L 55.67 17.926 C 55.361 19.701 54.913 20.21 53.544 20.343 C 52.785 20.417 51.222 20.434 51.222 20.369 C 51.222 20.303 52.096 15.314 52.14 15.126 L 52.18 14.96 L 55.12 14.96 C 58.396 14.96 58.745 14.998 59.455 15.425 C 60.29 15.927 60.517 16.601 60.454 18.386 C 60.432 19.034 60.39 19.624 60.363 19.695 C 60.315 19.818 60.392 19.825 61.583 19.806 L 62.854 19.786 L 63.486 16.157 L 64.119 12.529 L 54.549 12.529 C 49.286 12.529 44.979 12.555 44.979 12.588 Z M 3.989 32.942 C 3.243 33.052 2.612 33.359 2.117 33.853 C 1.55 34.42 1.333 34.936 1.323 35.736 C 1.31 36.786 1.64 37.048 3.601 37.551 C 4.32 37.735 5.034 37.95 5.187 38.028 C 5.446 38.161 5.466 38.193 5.466 38.498 C 5.466 38.909 5.169 39.279 4.693 39.462 C 4.182 39.657 3.265 39.585 2.76 39.309 C 2.275 39.044 2.102 38.806 2.001 38.262 C 1.957 38.028 1.91 37.795 1.896 37.744 C 1.879 37.682 1.713 37.652 1.393 37.652 C 0.957 37.652 0.912 37.667 0.878 37.818 C 0.798 38.182 0.471 40.141 0.471 40.255 C 0.471 40.355 0.548 40.378 0.878 40.378 C 1.264 40.378 1.291 40.365 1.436 40.12 C 1.519 39.978 1.601 39.862 1.618 39.862 C 1.635 39.862 1.822 39.977 2.033 40.117 C 3.244 40.92 5.386 40.713 6.435 39.692 C 6.994 39.148 7.338 38.077 7.196 37.321 C 7.128 36.956 6.658 36.457 6.193 36.256 C 5.989 36.168 5.337 35.985 4.744 35.849 C 3.503 35.564 3.324 35.503 3.118 35.297 C 2.855 35.033 2.956 34.515 3.332 34.206 C 3.789 33.831 4.897 33.731 5.429 34.018 C 6.003 34.327 6.347 34.86 6.347 35.439 L 6.347 35.736 L 6.843 35.736 L 7.339 35.736 L 7.563 34.445 C 7.686 33.734 7.771 33.138 7.752 33.119 C 7.733 33.1 7.548 33.084 7.34 33.084 C 6.977 33.084 6.956 33.095 6.834 33.352 L 6.707 33.619 L 6.545 33.47 C 6.277 33.224 5.804 33.021 5.309 32.94 C 4.782 32.855 4.578 32.855 3.989 32.942 Z M 54.775 32.932 C 52.431 33.304 50.763 35.357 50.867 37.74 C 50.892 38.315 50.934 38.505 51.126 38.916 C 51.643 40.025 52.641 40.599 54.05 40.599 C 55.824 40.599 57.234 39.608 57.9 37.891 L 58.05 37.505 L 57.482 37.509 L 56.914 37.513 L 56.68 38.006 C 56.418 38.557 55.961 39.064 55.518 39.293 C 55.078 39.522 54.143 39.558 53.704 39.364 C 52.861 38.99 52.572 37.824 52.956 36.342 C 53.219 35.325 53.823 34.506 54.549 34.181 C 55.079 33.943 55.903 33.939 56.342 34.172 C 56.782 34.406 57.034 34.866 57.081 35.521 L 57.117 36.031 L 57.617 36.031 C 58.029 36.031 58.123 36.009 58.154 35.902 C 58.201 35.743 58.64 33.202 58.64 33.091 C 58.64 33.043 58.479 33.01 58.237 33.01 C 57.847 33.01 57.828 33.02 57.648 33.305 C 57.546 33.467 57.45 33.6 57.435 33.6 C 57.419 33.6 57.236 33.485 57.028 33.344 C 56.82 33.204 56.527 33.055 56.378 33.013 C 55.984 32.902 55.21 32.863 54.775 32.932 Z M 78.797 32.966 C 77.418 33.229 76.474 34.128 76.273 35.369 C 76.162 36.051 76.301 36.524 76.715 36.873 C 77.04 37.148 77.319 37.251 78.646 37.585 C 79.288 37.748 79.922 37.925 80.054 37.981 C 80.357 38.108 80.478 38.328 80.412 38.631 C 80.33 39.004 80.156 39.208 79.758 39.393 C 79.015 39.74 77.819 39.564 77.318 39.034 C 77.014 38.711 76.952 38.572 76.89 38.076 L 76.837 37.652 L 76.332 37.652 C 76.054 37.652 75.826 37.677 75.825 37.707 C 75.825 37.738 75.726 38.325 75.605 39.013 C 75.484 39.7 75.385 40.289 75.385 40.32 C 75.385 40.352 75.582 40.378 75.821 40.378 C 76.171 40.378 76.266 40.352 76.301 40.249 C 76.325 40.178 76.391 40.058 76.448 39.983 C 76.549 39.85 76.559 39.851 76.773 40.004 C 77.313 40.39 77.812 40.55 78.578 40.582 C 80.678 40.672 82.037 39.644 82.129 37.895 C 82.158 37.343 82.144 37.262 81.966 36.958 C 81.648 36.414 81.098 36.152 79.609 35.837 C 78.576 35.619 78.163 35.454 77.991 35.191 C 77.696 34.74 78.113 34.15 78.887 33.924 C 80.048 33.586 81.171 34.241 81.247 35.3 L 81.279 35.736 L 81.784 35.736 C 82.062 35.736 82.289 35.712 82.289 35.681 C 82.289 35.651 82.386 35.079 82.503 34.41 C 82.62 33.742 82.701 33.17 82.682 33.14 C 82.663 33.109 82.483 33.084 82.282 33.084 C 81.944 33.084 81.906 33.102 81.766 33.34 L 81.616 33.597 L 81.346 33.384 C 80.806 32.956 79.755 32.784 78.797 32.966 Z M 10.639 35.493 C 9.086 38.196 8.492 39.139 8.242 39.298 C 8.149 39.357 7.933 39.429 7.761 39.456 C 7.59 39.484 7.435 39.531 7.417 39.56 C 7.399 39.589 7.361 39.785 7.333 39.995 L 7.283 40.378 L 8.867 40.378 C 9.738 40.378 10.468 40.351 10.488 40.319 C 10.508 40.286 10.547 40.087 10.575 39.876 L 10.626 39.494 L 10.377 39.493 C 9.712 39.49 9.648 39.3 10.059 38.562 L 10.32 38.094 L 11.672 38.094 L 13.023 38.094 L 13.102 38.37 C 13.145 38.522 13.2 38.78 13.224 38.944 C 13.279 39.329 13.169 39.422 12.597 39.474 L 12.159 39.513 L 12.112 39.817 C 12.086 39.984 12.049 40.178 12.029 40.249 C 11.995 40.37 12.123 40.378 14.009 40.378 L 16.025 40.378 L 16.075 40.102 C 16.103 39.95 16.142 39.754 16.163 39.667 C 16.196 39.529 16.16 39.502 15.886 39.456 C 15.393 39.372 15.22 39.139 14.985 38.241 C 14.874 37.816 14.529 36.49 14.219 35.294 L 13.655 33.121 L 12.84 33.1 L 12.026 33.08 Z M 17.854 33.138 C 17.835 33.169 17.796 33.384 17.767 33.615 L 17.715 34.034 L 18.174 34.057 C 18.507 34.073 18.655 34.113 18.711 34.202 C 18.768 34.294 18.686 34.915 18.395 36.597 C 18.179 37.846 17.974 38.97 17.94 39.095 C 17.862 39.38 17.625 39.494 17.113 39.494 L 16.723 39.494 L 16.652 39.936 L 16.581 40.378 L 18.29 40.378 C 19.23 40.378 20.014 40.353 20.032 40.323 C 20.05 40.292 20.088 40.093 20.116 39.881 L 20.168 39.494 L 19.789 39.494 C 19.332 39.494 19.127 39.397 19.124 39.178 C 19.121 38.934 19.74 35.368 19.785 35.37 C 19.807 35.371 20.424 36.49 21.157 37.857 L 22.489 40.341 L 23.372 40.362 L 24.255 40.382 L 24.297 40.178 C 24.374 39.808 25.296 34.482 25.296 34.408 C 25.296 34.369 25.362 34.27 25.443 34.189 C 25.553 34.078 25.687 34.042 25.985 34.042 L 26.381 34.042 L 26.429 33.766 C 26.455 33.614 26.494 33.398 26.516 33.287 L 26.556 33.084 L 24.939 33.084 C 23.124 33.084 23.292 33.025 23.198 33.692 L 23.149 34.042 L 23.543 34.043 C 24.041 34.045 24.147 34.113 24.135 34.422 C 24.124 34.725 23.564 37.941 23.514 37.99 C 23.494 38.01 22.885 36.923 22.159 35.574 L 20.84 33.121 L 19.364 33.101 C 18.552 33.09 17.873 33.107 17.854 33.138 Z M 27.111 33.132 C 27.09 33.166 27.05 33.384 27.021 33.615 L 26.969 34.034 L 27.428 34.057 C 27.761 34.073 27.909 34.113 27.965 34.202 C 28.022 34.294 27.94 34.915 27.649 36.597 C 27.433 37.846 27.228 38.97 27.194 39.095 C 27.116 39.379 26.879 39.494 26.371 39.494 L 25.985 39.494 L 25.912 39.936 L 25.839 40.378 L 28.377 40.377 C 31.227 40.376 31.496 40.343 32.364 39.885 C 33.591 39.238 34.422 37.926 34.64 36.291 C 34.844 34.759 34.247 33.667 32.982 33.258 C 32.666 33.155 32.155 33.13 29.877 33.102 C 28.377 33.084 27.132 33.098 27.111 33.132 Z M 35.175 33.176 C 35.158 33.227 35.114 33.44 35.078 33.649 L 35.013 34.03 L 35.259 34.076 C 35.397 34.102 35.554 34.196 35.615 34.29 C 35.694 34.41 36.753 40.044 36.753 40.342 C 36.753 40.362 37.077 40.378 37.472 40.378 L 38.191 40.378 L 39.252 38.389 C 39.835 37.295 40.331 36.4 40.354 36.4 C 40.377 36.4 40.541 37.295 40.718 38.389 L 41.04 40.378 L 41.743 40.377 L 42.445 40.377 L 43.872 37.633 C 45.636 34.241 45.698 34.139 46.041 34.074 C 46.185 34.047 46.316 34.004 46.331 33.978 C 46.347 33.953 46.384 33.74 46.413 33.506 L 46.465 33.081 L 45.083 33.101 L 43.701 33.121 L 43.619 33.578 L 43.536 34.035 L 43.909 34.057 C 44.496 34.091 44.474 34.19 43.412 36.257 C 42.611 37.818 42.492 38.012 42.454 37.827 C 42.43 37.71 42.312 36.985 42.191 36.215 C 42.07 35.445 41.952 34.709 41.93 34.579 C 41.869 34.228 42.084 34.042 42.55 34.042 C 42.951 34.042 42.951 34.041 43.037 33.434 L 43.086 33.084 L 41.211 33.084 L 39.336 33.084 L 39.256 33.456 C 39.136 34.018 39.144 34.042 39.434 34.042 C 39.756 34.042 39.985 34.257 39.985 34.56 C 39.985 34.705 39.68 35.354 39.122 36.398 C 38.422 37.707 38.249 37.982 38.208 37.851 C 38.138 37.627 37.688 34.643 37.685 34.385 C 37.683 34.126 37.805 34.045 38.199 34.043 C 38.369 34.042 38.525 34.013 38.546 33.978 C 38.568 33.943 38.608 33.728 38.634 33.499 L 38.683 33.084 L 36.945 33.084 C 35.62 33.084 35.199 33.106 35.175 33.176 Z M 47.081 33.287 C 47.059 33.398 47.019 33.614 46.993 33.766 L 46.946 34.042 L 47.352 34.042 C 47.919 34.042 47.991 34.082 47.99 34.4 C 47.989 34.547 47.808 35.696 47.587 36.952 C 47.128 39.571 47.162 39.494 46.448 39.494 C 45.979 39.494 45.975 39.497 45.895 40.037 L 45.844 40.378 L 47.83 40.378 C 50.053 40.378 49.84 40.436 49.938 39.807 L 49.986 39.494 L 49.644 39.494 C 49.222 39.494 49.018 39.391 49.019 39.178 C 49.02 38.964 49.8 34.486 49.866 34.316 C 49.942 34.122 50.141 34.042 50.551 34.042 C 50.957 34.042 50.957 34.042 51.042 33.434 L 51.092 33.084 L 49.106 33.084 L 47.121 33.084 Z M 59.275 33.14 C 59.256 33.171 59.218 33.328 59.191 33.49 C 59.164 33.652 59.125 33.842 59.106 33.913 C 59.075 34.026 59.129 34.042 59.544 34.042 C 59.88 34.042 60.045 34.075 60.111 34.155 C 60.188 34.248 60.137 34.663 59.82 36.494 C 59.609 37.719 59.404 38.843 59.366 38.994 C 59.272 39.366 59.064 39.494 58.557 39.494 L 58.139 39.494 L 58.09 39.807 C 58.063 39.979 58.025 40.178 58.005 40.249 C 57.971 40.37 58.1 40.378 59.98 40.378 L 61.99 40.378 L 62.063 39.936 L 62.136 39.494 L 61.758 39.494 C 61.48 39.494 61.347 39.457 61.254 39.354 C 61.135 39.222 61.136 39.167 61.281 38.341 C 61.365 37.861 61.451 37.393 61.471 37.302 C 61.507 37.137 61.514 37.136 62.938 37.136 C 64.035 37.136 64.368 37.158 64.366 37.228 C 64.364 37.279 64.285 37.75 64.19 38.274 C 63.988 39.4 63.919 39.494 63.302 39.494 L 62.913 39.494 L 62.864 39.807 C 62.837 39.979 62.799 40.178 62.779 40.249 C 62.745 40.37 62.874 40.378 64.758 40.378 L 66.772 40.378 L 66.843 39.936 L 66.914 39.494 L 66.491 39.494 C 66.072 39.494 65.837 39.379 65.838 39.176 C 65.838 39.128 66.02 38.044 66.242 36.768 C 66.464 35.492 66.645 34.423 66.645 34.392 C 66.645 34.362 66.712 34.27 66.792 34.189 C 66.908 34.073 67.037 34.042 67.404 34.042 L 67.869 34.042 L 67.948 33.618 C 67.991 33.385 68.003 33.169 67.974 33.138 C 67.945 33.107 67.049 33.09 65.983 33.101 L 64.044 33.121 L 63.96 33.543 C 63.914 33.775 63.893 33.982 63.914 34.003 C 63.935 34.025 64.11 34.042 64.302 34.042 C 64.7 34.042 64.914 34.195 64.858 34.439 C 64.839 34.525 64.766 34.934 64.695 35.35 L 64.567 36.105 L 63.12 36.105 L 61.673 36.105 L 61.816 35.276 C 62.001 34.201 62.081 34.085 62.659 34.057 L 63.101 34.035 L 63.171 33.596 C 63.21 33.355 63.226 33.141 63.205 33.121 C 63.146 33.061 59.313 33.079 59.275 33.14 Z M 68.603 33.14 C 68.584 33.171 68.546 33.328 68.519 33.49 C 68.491 33.652 68.453 33.842 68.433 33.913 C 68.403 34.026 68.456 34.042 68.872 34.042 C 69.208 34.042 69.372 34.075 69.439 34.155 C 69.516 34.248 69.464 34.663 69.148 36.494 C 68.936 37.719 68.732 38.843 68.694 38.994 C 68.599 39.366 68.392 39.494 67.884 39.494 L 67.466 39.494 L 67.418 39.807 C 67.391 39.979 67.353 40.178 67.333 40.249 C 67.299 40.371 67.508 40.378 71.006 40.378 C 74.474 40.378 74.717 40.37 74.752 40.249 C 74.794 40.106 75.312 37.407 75.312 37.331 C 75.312 37.305 75.088 37.284 74.814 37.284 L 74.316 37.284 L 74.186 37.79 C 74.003 38.503 73.665 39.038 73.262 39.25 C 72.961 39.408 72.852 39.42 71.702 39.42 C 70.563 39.42 70.465 39.41 70.465 39.289 C 70.465 39.169 70.712 37.698 70.798 37.302 C 70.832 37.147 70.873 37.136 71.421 37.136 C 71.918 37.136 72.03 37.16 72.161 37.291 C 72.291 37.421 72.308 37.499 72.267 37.788 C 72.241 37.977 72.202 38.189 72.181 38.26 C 72.148 38.374 72.203 38.389 72.647 38.389 L 73.15 38.389 L 73.433 36.749 C 73.589 35.848 73.732 35.069 73.751 35.018 C 73.776 34.95 73.653 34.926 73.278 34.926 L 72.771 34.926 L 72.682 35.355 C 72.549 36.003 72.372 36.135 71.594 36.168 C 70.973 36.194 70.972 36.194 71.012 36.02 C 71.069 35.768 71.346 34.175 71.346 34.097 C 71.346 34.058 71.885 34.04 72.613 34.055 C 74.391 34.089 74.578 34.214 74.578 35.364 L 74.578 35.957 L 75.041 35.957 L 75.505 35.957 L 75.74 34.613 C 75.87 33.873 75.975 33.227 75.974 33.176 C 75.973 33.104 75.19 33.084 72.305 33.084 C 70.288 33.084 68.622 33.109 68.603 33.14 Z M 0.373 42.269 C 0.346 42.296 0.324 42.876 0.324 43.558 L 0.324 44.798 L 41.527 44.798 L 82.73 44.798 L 82.73 43.509 L 82.73 42.22 L 41.576 42.22 C 18.941 42.22 0.4 42.242 0.373 42.269 Z M 0.357 47.472 C 0.337 47.524 0.33 48.096 0.341 48.743 L 0.361 49.919 L 41.546 49.937 L 82.73 49.956 L 82.73 48.666 L 82.73 47.377 L 41.562 47.377 C 8.011 47.377 0.386 47.395 0.357 47.472 Z M 87.506 11.554 C 87.069 13.514 84.209 13.224 84.2 11.219 C 84.197 10.417 84.695 9.779 85.484 9.573 C 86.614 9.278 87.762 10.404 87.506 11.554 Z M 29.886 34.025 L 30.74 34.056 C 31.85 34.095 32.2 34.253 32.517 34.856 C 32.721 35.242 32.727 35.286 32.688 35.994 C 32.622 37.184 32.317 38.066 31.749 38.714 C 31.254 39.278 30.997 39.374 29.894 39.407 L 28.947 39.436 L 28.986 39.225 C 29.008 39.11 29.22 37.892 29.456 36.52 Z M 12.158 34.854 C 12.201 34.852 12.737 36.896 12.737 37.061 C 12.737 37.108 12.395 37.136 11.819 37.136 C 11.314 37.136 10.9 37.115 10.9 37.089 C 10.9 37.063 11.173 36.55 11.506 35.949 C 11.84 35.347 12.133 34.855 12.158 34.854 Z M 84.933 10.098 L 85.516 10.098 C 86.396 10.098 86.689 10.259 86.694 10.746 C 86.696 10.993 86.432 11.35 86.246 11.35 C 86.193 11.35 86.219 11.419 86.307 11.516 C 86.467 11.692 86.843 12.276 86.843 12.348 C 86.843 12.371 86.719 12.38 86.568 12.367 C 86.321 12.347 86.271 12.306 86.096 11.979 C 85.883 11.585 85.714 11.424 85.51 11.424 C 85.403 11.424 85.377 11.502 85.359 11.884 C 85.338 12.325 85.329 12.346 85.135 12.368 L 84.933 12.391 Z M 85.374 11.055 L 85.727 11.055 C 86.215 11.055 86.4 10.843 86.14 10.582 C 86.069 10.511 85.897 10.466 85.7 10.466 L 85.374 10.466 Z" fill="#0F0F0F"></path></svg>