<svg xmlns="http://www.w3.org/2000/svg" xmlns:xlink="http://www.w3.org/1999/xlink" viewBox="0 0 80 56"><path d="M 0.155 12.938 L 0.155 25.718 L 13.005 25.684 L 25.855 25.65 L 25.855 12.938 L 25.855 0.227 L 13.005 0.193 L 0.155 0.159 Z M 27.117 12.938 L 27.117 25.716 L 40.067 25.716 L 53.017 25.716 L 53.017 12.938 L 53.017 0.16 L 40.067 0.16 L 27.117 0.16 Z M 53.946 12.938 L 53.946 25.716 L 66.897 25.716 L 79.847 25.716 L 79.813 12.972 L 79.779 0.227 L 66.863 0.193 L 53.946 0.159 Z M 15.615 3.3 C 15.335 3.501 15.174 3.968 15.085 4.839 C 15.014 5.531 15.033 5.727 15.179 5.765 C 15.433 5.833 16.111 6.067 16.391 6.183 C 16.772 6.341 17.554 5.467 17.554 4.883 C 17.554 4.372 17.406 3.938 17.101 3.555 C 16.891 3.291 15.871 3.116 15.615 3.3 Z M 10.247 3.982 C 9.862 4.187 9.777 4.313 9.742 4.728 C 9.707 5.142 9.773 5.303 10.129 5.668 C 10.364 5.911 10.764 6.207 11.017 6.326 C 11.453 6.533 11.495 6.531 11.826 6.285 C 12.494 5.791 12.254 4.351 11.433 3.928 C 10.949 3.679 10.805 3.685 10.247 3.982 Z M 62.613 4.065 C 62.306 4.198 62.18 4.341 62.179 4.557 C 62.174 5.413 62.104 5.464 60.981 5.426 C 60.043 5.394 59.914 5.421 59.603 5.712 C 58.773 6.487 59.365 6.932 61.234 6.937 C 62.305 6.939 62.576 6.979 62.64 7.144 C 62.775 7.496 62.582 7.819 62.184 7.906 C 61.678 8.017 61.483 8.273 61.465 8.851 C 61.454 9.199 61.522 9.368 61.716 9.478 C 61.862 9.561 61.994 9.63 62.009 9.633 C 62.024 9.636 61.955 9.874 61.856 10.163 L 61.676 10.687 L 60.67 10.754 C 59.874 10.806 59.604 10.879 59.378 11.105 C 59.035 11.447 59.012 11.95 59.317 12.415 C 59.537 12.749 59.564 12.755 60.595 12.665 C 61.802 12.56 61.975 12.639 62.11 13.36 C 62.229 13.99 62.096 14.059 60.767 14.062 C 59.696 14.064 59.681 14.069 59.273 14.532 C 58.854 15.007 58.745 15.434 59.002 15.592 C 59.173 15.698 62.232 15.663 64.24 15.532 C 65.104 15.476 65.768 15.488 65.867 15.561 C 66.055 15.702 66.091 16.263 65.918 16.37 C 65.855 16.409 65.153 16.468 64.358 16.501 C 59.374 16.709 58.984 16.745 58.565 17.031 C 58.274 17.231 58.086 17.535 57.893 18.12 C 57.593 19.027 57.637 19.293 58.123 19.514 C 58.41 19.644 58.588 19.599 59.422 19.182 C 60.92 18.433 61.824 18.249 64.04 18.242 L 65.966 18.235 L 65.966 20.64 C 65.966 22.839 65.989 23.075 66.232 23.398 C 66.604 23.893 66.954 23.884 67.258 23.374 C 67.459 23.036 67.535 22.515 67.637 20.791 C 67.707 19.604 67.825 18.49 67.9 18.316 L 68.035 18.001 L 69.989 18.07 C 71.742 18.132 72.061 18.181 73.095 18.551 C 73.728 18.778 74.407 18.963 74.603 18.963 C 75.207 18.963 76.503 18.182 76.934 17.558 C 77.891 16.171 77.182 15.922 73.006 16.182 C 67.819 16.505 67.759 16.502 67.759 15.92 C 67.759 15.266 67.983 15.204 70.731 15.102 C 72.128 15.051 73.406 14.968 73.571 14.918 C 73.931 14.809 74.081 14.328 73.875 13.944 C 73.747 13.704 73.604 13.667 72.81 13.667 C 72.305 13.667 71.861 13.616 71.823 13.555 C 71.746 13.43 71.947 12.64 72.126 12.361 C 72.19 12.262 72.534 12.15 72.889 12.111 C 73.686 12.024 74.975 11.479 74.902 11.26 C 74.757 10.829 74.113 10.555 73.233 10.551 L 72.351 10.547 L 72.26 10.103 C 72.15 9.568 71.963 9.434 71.32 9.431 C 70.755 9.429 70.416 9.787 70.416 10.386 C 70.416 10.75 70.408 10.754 69.552 10.754 C 68.593 10.754 68.158 11.016 68.158 11.594 C 68.158 12.16 68.583 12.389 69.484 12.308 C 69.923 12.268 70.305 12.274 70.332 12.322 C 70.359 12.37 70.422 12.687 70.471 13.027 C 70.553 13.589 70.535 13.653 70.264 13.739 C 69.87 13.864 68.434 13.868 68.058 13.746 C 67.774 13.654 67.759 13.582 67.759 12.291 C 67.759 10.871 67.999 9.726 68.359 9.428 C 68.469 9.337 69.084 9.225 69.726 9.18 C 70.516 9.124 71.012 9.02 71.26 8.858 C 71.758 8.533 71.685 8.11 71.08 7.806 C 70.62 7.576 70.541 7.313 70.827 6.966 C 70.893 6.886 71.525 6.786 72.231 6.744 C 73.602 6.662 74.161 6.426 74.241 5.896 C 74.317 5.386 73.979 5.286 72.643 5.424 C 71.308 5.561 71.08 5.496 71.08 4.985 C 71.08 4.563 70.565 4.016 70.081 3.924 C 69.55 3.822 69.014 4.24 68.9 4.844 C 68.809 5.328 68.584 5.452 67.795 5.455 C 67.277 5.457 66.889 5.942 67.013 6.433 C 67.101 6.785 67.42 6.909 68.242 6.912 C 68.784 6.914 68.945 7.081 68.953 7.646 C 68.957 7.982 64.45 8.204 64.339 7.874 C 64.278 7.692 64.644 6.967 64.865 6.83 C 64.954 6.775 65.231 6.697 65.481 6.656 C 65.73 6.616 66.016 6.46 66.116 6.31 C 66.418 5.855 66.086 5.56 65.187 5.486 L 64.434 5.424 L 64.287 4.839 C 64.179 4.412 64.038 4.202 63.764 4.061 C 63.307 3.826 63.165 3.826 62.613 4.065 Z M 0.187 48.459 L 0.222 55.841 L 39.868 55.841 L 79.514 55.841 L 79.548 48.459 L 79.582 41.077 L 39.868 41.077 L 0.153 41.077 Z M 4.069 44.152 C 4.033 44.246 4.019 46.259 4.038 48.625 L 4.073 52.928 L 4.937 52.928 L 5.8 52.928 L 5.866 49.882 C 5.904 48.166 5.977 46.981 6.034 47.168 C 6.09 47.35 6.375 48.683 6.667 50.129 C 6.959 51.576 7.231 52.813 7.27 52.877 C 7.31 52.941 7.694 52.994 8.123 52.994 C 8.752 52.994 8.916 52.949 8.97 52.762 C 9.029 52.556 9.206 51.731 9.94 48.227 C 10.055 47.681 10.201 47.177 10.265 47.108 C 10.333 47.035 10.382 48.249 10.382 49.988 L 10.382 52.994 L 11.312 52.994 L 12.242 52.994 L 12.242 48.492 L 12.242 43.99 L 10.73 43.99 L 9.22 43.99 L 8.943 45.215 C 8.791 45.888 8.567 46.961 8.444 47.598 C 8.321 48.235 8.175 48.757 8.119 48.757 C 8.064 48.757 7.924 48.325 7.809 47.797 C 7.695 47.269 7.464 46.211 7.298 45.446 L 6.995 44.056 L 5.565 44.018 C 4.491 43.99 4.118 44.023 4.069 44.152 Z M 13.703 48.492 L 13.703 52.994 L 16.757 52.994 L 19.812 52.994 L 19.812 51.938 L 19.812 50.883 L 17.919 50.846 L 16.027 50.809 L 15.987 49.986 L 15.948 49.162 L 17.648 49.125 L 19.347 49.088 L 19.387 48.194 L 19.426 47.3 L 18.51 47.3 C 18.006 47.3 17.226 47.262 16.777 47.215 L 15.96 47.13 L 15.96 46.49 L 15.96 45.851 L 17.853 45.814 L 19.746 45.777 L 19.788 45.192 C 19.811 44.87 19.795 44.468 19.752 44.298 L 19.674 43.99 L 16.688 43.99 L 13.703 43.99 Z M 21.209 44.155 C 21.177 44.246 21.164 46.257 21.179 48.624 L 21.207 52.928 L 22.269 52.928 L 23.332 52.928 L 23.367 48.459 L 23.402 43.99 L 22.333 43.99 C 21.597 43.99 21.247 44.041 21.209 44.155 Z M 28.375 44.151 C 28.339 44.246 28.325 46.259 28.344 48.625 L 28.379 52.928 L 31.268 52.964 L 34.156 52.999 L 34.156 51.875 L 34.156 50.751 L 32.463 50.714 L 30.77 50.677 L 30.703 47.366 L 30.637 44.056 L 29.539 44.017 C 28.732 43.989 28.423 44.025 28.375 44.151 Z M 37.168 44.089 C 37.136 44.144 36.89 44.903 36.622 45.777 C 36.354 46.651 36.048 47.635 35.943 47.962 C 35.433 49.543 34.555 52.595 34.555 52.788 C 34.555 52.974 34.709 52.999 35.651 52.966 L 36.746 52.928 L 36.956 52.266 L 37.166 51.604 L 38.443 51.566 L 39.721 51.528 L 39.812 52.029 C 39.98 52.96 40.029 52.994 41.193 52.994 C 41.77 52.994 42.273 52.945 42.311 52.884 C 42.412 52.721 41.93 51.037 40.25 45.678 L 39.72 43.99 L 38.474 43.99 C 37.788 43.99 37.201 44.034 37.168 44.089 Z M 43.248 44.156 C 43.213 44.248 43.2 46.259 43.219 48.625 L 43.254 52.928 L 44.332 52.966 L 45.409 53.004 L 45.479 51.708 C 45.517 50.995 45.516 48.967 45.477 47.201 L 45.406 43.99 L 44.359 43.99 C 43.641 43.99 43.292 44.042 43.248 44.156 Z M 49.793 44.089 C 49.748 44.175 50.972 51.198 51.254 52.464 L 51.356 52.928 L 52.477 52.928 L 53.598 52.928 L 53.821 52.001 C 53.944 51.491 54.146 50.597 54.269 50.015 C 54.625 48.333 54.769 47.83 54.876 47.896 C 54.931 47.93 55.138 48.659 55.336 49.516 C 55.534 50.373 55.795 51.491 55.917 52.001 L 56.138 52.928 L 57.267 52.928 L 58.395 52.928 L 58.622 51.736 C 58.747 51.081 59.064 49.353 59.325 47.896 C 59.587 46.439 59.851 44.997 59.912 44.69 C 59.972 44.383 59.989 44.1 59.95 44.061 C 59.911 44.022 59.418 43.99 58.855 43.99 L 57.831 43.99 L 57.532 45.877 C 57.205 47.941 57.079 48.42 56.948 48.095 C 56.904 47.985 56.671 47.032 56.43 45.976 L 55.992 44.056 L 54.949 44.017 C 54.375 43.995 53.859 44.025 53.802 44.083 C 53.746 44.141 53.51 45.023 53.278 46.042 C 52.828 48.018 52.682 48.441 52.574 48.095 C 52.539 47.985 52.381 47.063 52.222 46.045 C 52.062 45.027 51.904 44.148 51.869 44.092 C 51.787 43.96 49.861 43.958 49.793 44.089 Z M 62.409 45.078 C 61.391 48.177 60.066 52.792 60.166 52.892 C 60.229 52.955 60.748 52.988 61.32 52.967 C 62.455 52.924 62.401 52.968 62.637 51.902 L 62.717 51.537 L 63.96 51.537 C 65.193 51.537 65.205 51.54 65.346 51.902 C 65.425 52.102 65.507 52.415 65.528 52.597 C 65.567 52.918 65.601 52.929 66.73 52.966 C 68.117 53.012 68.083 53.091 67.506 51.169 C 66.922 49.223 65.679 45.185 65.479 44.586 L 65.302 44.056 L 64.036 44.018 L 62.77 43.981 Z M 68.749 44.156 C 68.714 44.248 68.701 46.259 68.72 48.625 L 68.755 52.928 L 69.851 52.966 L 70.947 53.005 L 70.949 51.443 C 70.951 49.182 70.89 49.286 72.21 49.286 C 73.09 49.286 73.325 49.328 73.39 49.496 C 73.434 49.611 73.47 50.448 73.47 51.355 L 73.47 53.005 L 74.566 52.966 L 75.662 52.928 L 75.662 48.492 L 75.662 44.056 L 74.566 44.018 L 73.47 43.979 L 73.47 45.298 C 73.47 46.023 73.434 46.711 73.39 46.826 C 73.272 47.133 71.146 47.133 71.027 46.826 C 70.983 46.711 70.947 46.025 70.947 45.303 L 70.947 43.99 L 69.88 43.99 C 69.146 43.99 68.794 44.042 68.749 44.156 Z M 47.704 4.446 C 47.704 4.54 47.55 4.761 47.361 4.937 C 47.028 5.25 46.944 5.261 44.273 5.338 C 42.763 5.382 41.453 5.39 41.362 5.357 C 41.179 5.29 41.144 4.944 41.297 4.715 C 41.535 4.361 42.053 4.265 43.81 4.25 C 44.819 4.241 45.824 4.188 46.044 4.133 C 46.925 3.909 47.704 4.056 47.704 4.446 Z M 34.938 4.47 C 35.348 4.523 36.55 4.604 37.61 4.648 C 39.483 4.726 39.537 4.737 39.578 5.029 C 39.647 5.514 38.998 5.689 36.811 5.773 C 35.753 5.814 34.581 5.886 34.207 5.932 C 33.462 6.025 33.282 5.909 33.409 5.416 C 33.45 5.257 33.643 4.956 33.838 4.749 C 34.173 4.391 34.23 4.377 34.938 4.47 Z M 45.977 6.291 C 46.275 6.315 46.307 6.372 46.289 6.847 C 46.234 8.288 46 9.937 45.794 10.33 C 45.668 10.571 45.583 10.899 45.605 11.059 C 45.665 11.492 44.994 11.762 43.587 11.872 C 42.457 11.96 42.387 11.983 42.308 12.296 C 42.262 12.478 42.277 12.675 42.341 12.733 C 42.558 12.932 43.697 12.979 43.953 12.8 C 44.354 12.52 45.084 12.438 45.36 12.642 C 45.587 12.808 45.595 12.902 45.456 13.793 C 45.373 14.326 45.194 14.918 45.058 15.109 C 44.531 15.845 44.323 15.943 43.125 16.017 C 42.498 16.056 41.949 16.145 41.906 16.216 C 41.759 16.453 42.491 16.96 43.406 17.254 C 43.907 17.415 44.58 17.665 44.9 17.81 C 45.547 18.102 47.739 18.692 48.194 18.696 C 48.622 18.7 48.666 18.876 48.437 19.664 C 48.233 20.364 47.709 21.011 47.091 21.326 C 46.703 21.524 46.208 21.253 44.575 19.943 C 43.125 18.783 41.981 18.094 41.687 18.206 C 41.585 18.246 41.334 18.561 41.13 18.908 C 40.849 19.386 40.794 19.588 40.899 19.747 C 40.976 19.862 41.089 19.949 41.15 19.941 C 41.212 19.932 41.459 19.888 41.699 19.844 C 42.023 19.783 42.156 19.815 42.214 19.966 C 42.302 20.194 41.934 21.084 41.553 21.567 C 41.267 21.931 40.398 22.406 40.021 22.406 C 39.612 22.406 39.308 21.81 39.359 21.106 C 39.413 20.349 39.193 20.256 38.449 20.721 C 36.679 21.829 35.609 22.406 35.327 22.406 C 34.839 22.406 34.572 22.133 34.486 21.545 C 34.418 21.085 34.461 20.955 34.816 20.552 C 35.162 20.16 36.68 17.419 36.68 17.186 C 36.68 17.144 36.565 17.11 36.425 17.11 C 35.924 17.11 35.75 16.958 35.75 16.519 C 35.75 15.881 36.262 15.388 36.923 15.388 C 37.49 15.388 37.795 15.149 37.664 14.809 C 37.604 14.652 37.411 14.594 36.958 14.594 C 35.687 14.594 35.677 13.63 36.945 13.306 C 37.201 13.24 37.429 13.091 37.451 12.975 C 37.519 12.625 37.003 12.57 36.351 12.857 C 35.894 13.059 35.749 13.195 35.743 13.428 C 35.735 13.806 35.653 14.588 35.467 16.05 C 35.24 17.848 34.085 19.704 32.797 20.344 L 32.124 20.679 L 31.601 20.386 C 30.978 20.037 30.806 19.759 30.861 19.189 C 30.901 18.782 30.928 18.763 31.552 18.724 C 32.612 18.657 33.708 17.693 34.05 16.529 C 34.434 15.223 34.14 12.219 33.646 12.408 C 33.114 12.611 32.851 12.612 32.648 12.409 C 32.278 12.04 32.401 11.697 33.174 10.945 C 33.885 10.253 33.915 10.196 33.857 9.66 C 33.823 9.351 33.719 8.915 33.624 8.691 C 33.383 8.122 33.537 7.665 34.065 7.381 C 34.39 7.207 34.634 7.168 34.965 7.24 C 35.214 7.293 35.882 7.366 36.449 7.4 C 37.329 7.454 37.544 7.424 37.925 7.188 C 38.171 7.037 38.471 6.914 38.592 6.914 C 38.964 6.914 39.096 7.523 38.948 8.559 C 38.753 9.922 38.719 11.075 38.871 11.151 C 38.948 11.189 39.032 10.916 39.071 10.502 C 39.149 9.664 39.384 9.435 39.96 9.636 C 40.226 9.728 40.345 9.869 40.374 10.127 C 40.398 10.326 40.468 10.489 40.531 10.489 C 40.657 10.489 41.595 8.69 41.593 8.452 C 41.593 8.37 41.5 8.127 41.387 7.911 C 41.171 7.498 41.23 6.926 41.505 6.751 C 41.591 6.697 42.288 6.651 43.055 6.649 C 43.892 6.646 44.689 6.569 45.047 6.454 C 45.376 6.349 45.795 6.276 45.977 6.291 Z M 7.792 7.159 L 10.449 7.247 C 11.91 7.295 14.509 7.347 16.226 7.363 C 18.981 7.389 19.39 7.421 19.713 7.632 C 20.167 7.929 20.175 8.168 19.741 8.452 C 19.483 8.62 18.969 8.687 17.537 8.738 C 15.738 8.803 15.659 8.818 15.351 9.149 C 15.175 9.338 15.031 9.56 15.031 9.643 C 15.031 9.872 16.544 9.995 17.342 9.829 C 18.474 9.595 19.181 10.076 18.965 10.934 C 18.86 11.353 18.775 11.376 16.721 11.548 C 15.788 11.627 14.936 11.725 14.828 11.766 C 14.535 11.878 14.588 12.442 14.908 12.613 C 15.089 12.71 15.888 12.742 17.246 12.706 C 19.174 12.656 19.336 12.671 19.726 12.932 C 19.992 13.11 20.16 13.344 20.187 13.575 C 20.223 13.884 20.156 13.968 19.736 14.143 C 19.45 14.262 19.1 14.312 18.904 14.263 C 18.402 14.138 14.367 14.343 14.367 14.494 C 14.367 14.564 14.516 14.799 14.699 15.015 C 14.881 15.231 15.031 15.487 15.031 15.583 C 15.031 15.836 15.949 16.602 16.194 16.554 C 16.308 16.532 16.467 16.335 16.546 16.116 C 16.794 15.435 17.02 15.129 17.331 15.051 C 17.747 14.947 18.296 15.181 18.553 15.573 C 18.753 15.877 18.753 15.937 18.548 16.367 C 18.207 17.083 18.034 17.179 17.431 16.98 C 17.149 16.888 16.851 16.853 16.769 16.904 C 16.531 17.051 17.005 17.722 17.541 17.995 C 17.8 18.127 18.577 18.577 19.269 18.995 C 19.96 19.413 20.724 19.792 20.967 19.838 C 21.21 19.883 21.443 19.976 21.485 20.043 C 21.599 20.227 20.669 21.298 20.189 21.537 C 19.386 21.936 19.028 21.826 18.152 20.913 C 17.042 19.755 16.142 18.77 15.334 17.826 C 14.954 17.382 14.378 16.879 14.054 16.708 L 13.465 16.396 L 12.222 17.561 C 11.539 18.201 10.934 18.805 10.878 18.902 C 10.823 18.999 10.225 19.463 9.55 19.934 C 8.876 20.404 8.174 20.952 7.991 21.152 C 7.6 21.579 6.739 22.002 6.252 22.006 C 5.853 22.009 5.613 21.771 5.21 20.973 C 4.783 20.127 4.871 19.873 5.667 19.648 C 6.032 19.545 6.718 19.343 7.191 19.201 C 9.544 18.49 12.074 16.238 11.952 14.964 L 11.91 14.527 L 10.449 14.573 C 9.645 14.598 8.941 14.663 8.884 14.717 C 8.826 14.77 9.025 14.925 9.325 15.06 C 10.383 15.535 10.585 16.468 9.795 17.232 L 9.34 17.672 L 8.916 17.371 C 8.477 17.059 7.999 16.195 7.994 15.702 C 7.993 15.547 8.081 15.346 8.191 15.256 C 8.3 15.165 8.39 15.012 8.39 14.914 C 8.39 14.701 7.591 14.532 7.127 14.648 C 6.857 14.716 6.769 14.672 6.675 14.424 C 6.502 13.971 6.65 13.432 7.029 13.134 C 7.328 12.9 7.579 12.871 9.437 12.865 C 10.578 12.86 11.75 12.815 12.042 12.764 C 12.501 12.683 12.58 12.619 12.617 12.292 C 12.641 12.083 12.602 11.855 12.53 11.783 C 12.458 11.711 11.712 11.658 10.865 11.665 C 9.217 11.679 8.769 11.58 8.381 11.116 C 8.002 10.664 8.057 10.265 8.532 10.021 C 8.88 9.841 9.079 9.832 9.893 9.961 C 10.418 10.044 11.235 10.092 11.71 10.068 L 12.574 10.025 L 12.574 8.834 L 11.312 8.876 C 10.618 8.9 9.823 8.977 9.546 9.048 C 9.187 9.141 8.913 9.131 8.59 9.015 C 8.234 8.886 8.062 8.886 7.784 9.012 C 7.026 9.356 6.79 8.438 7.427 7.625 Z M 49.699 29.557 C 50.031 29.557 50.095 29.609 50.095 29.883 C 50.095 30.206 50.108 30.21 51.456 30.247 C 52.716 30.282 52.817 30.305 52.817 30.55 C 52.817 30.756 52.714 30.824 52.352 30.857 C 51.769 30.91 51.593 31.07 51.819 31.341 C 51.924 31.468 52.164 31.537 52.433 31.519 C 52.676 31.503 52.915 31.53 52.964 31.579 C 53.162 31.777 52.695 32.061 52.109 32.099 C 51.285 32.152 51.315 32.393 52.153 32.445 C 52.518 32.467 52.857 32.527 52.905 32.577 C 52.954 32.627 52.954 33.02 52.905 33.45 L 52.817 34.231 L 51.323 34.264 L 49.829 34.296 L 49.829 32.334 L 50.36 32.419 C 50.81 32.491 50.891 32.468 50.891 32.271 C 50.891 32.083 50.815 32.055 50.482 32.121 C 50.257 32.166 49.953 32.139 49.807 32.061 C 49.66 31.983 49.509 31.95 49.47 31.989 C 49.43 32.028 49.367 32.838 49.33 33.788 L 49.261 35.515 L 49.744 35.515 C 50.262 35.515 50.299 35.576 50.098 36.103 C 50.019 36.308 49.865 36.442 49.708 36.442 C 49.513 36.442 49.437 36.547 49.406 36.862 C 49.383 37.093 49.293 37.306 49.207 37.334 C 48.93 37.424 48.772 36.894 48.73 35.732 C 48.707 35.109 48.651 34.561 48.604 34.515 C 48.557 34.468 48.261 34.478 47.945 34.537 L 47.372 34.644 L 47.893 34.715 C 48.469 34.795 48.686 35.095 48.249 35.208 C 47.894 35.301 47.882 35.648 48.235 35.648 C 48.381 35.648 48.501 35.73 48.501 35.831 C 48.501 35.932 48.381 36.045 48.235 36.083 C 47.888 36.174 47.895 36.392 48.249 36.484 C 48.764 36.618 48.427 36.885 47.51 37.07 C 46.761 37.221 46.581 37.222 46.49 37.079 C 46.312 36.799 46.434 36.645 46.89 36.575 C 47.422 36.492 47.495 36.258 47.007 36.202 C 46.512 36.145 46.482 35.648 46.973 35.648 C 47.156 35.648 47.305 35.588 47.305 35.515 C 47.305 35.442 47.186 35.383 47.04 35.383 C 46.76 35.383 46.659 34.94 46.904 34.789 C 46.986 34.738 46.976 34.615 46.875 34.455 C 46.731 34.224 46.694 34.26 46.476 34.842 C 46.211 35.55 45.702 36.177 45.391 36.177 C 45.116 36.177 44.653 35.659 44.736 35.444 C 44.773 35.348 44.974 35.21 45.182 35.137 C 45.895 34.89 46.286 33.522 46.218 31.515 L 46.176 30.285 L 46.973 30.326 C 47.412 30.348 48.078 30.329 48.455 30.284 C 49.038 30.215 49.152 30.155 49.221 29.88 C 49.285 29.627 49.39 29.557 49.699 29.557 Z M 32.397 30.108 C 32.531 30.388 32.657 30.457 33.037 30.457 C 33.606 30.457 33.676 30.513 33.562 30.871 C 33.489 31.099 33.366 31.146 32.827 31.146 C 32.251 31.146 32.159 31.186 32.004 31.51 C 31.785 31.964 31.471 31.98 31.366 31.543 C 31.296 31.255 31.224 31.217 30.809 31.254 C 30.285 31.3 30.111 31.148 30.236 30.755 C 30.293 30.576 30.462 30.486 30.796 30.458 C 31.108 30.431 31.325 30.325 31.42 30.152 C 31.501 30.007 31.626 29.843 31.699 29.788 C 31.932 29.615 32.223 29.748 32.397 30.108 Z M 38.482 29.817 C 38.553 29.887 38.849 29.994 39.139 30.055 C 39.74 30.179 39.85 30.495 39.336 30.616 C 39.058 30.682 39.042 30.709 39.237 30.783 C 39.365 30.832 39.469 30.958 39.469 31.063 C 39.469 31.334 37.962 32.745 37.302 33.093 C 36.607 33.458 36.256 33.469 35.952 33.135 C 35.687 32.842 35.674 32.852 36.655 32.601 C 37.083 32.492 37.216 32.398 37.181 32.231 C 37.148 32.069 37.019 32.015 36.723 32.038 C 36.295 32.071 35.873 31.75 36.095 31.56 C 36.161 31.504 36.589 31.314 37.045 31.138 C 37.735 30.873 37.875 30.767 37.875 30.51 C 37.875 30.34 37.937 30.086 38.013 29.945 C 38.166 29.66 38.291 29.626 38.482 29.817 Z M 28.201 30.145 C 28.301 30.366 28.476 30.482 28.749 30.51 C 29.236 30.558 29.544 30.956 29.242 31.147 C 29.133 31.217 28.888 31.275 28.699 31.276 C 28.462 31.277 28.308 31.381 28.204 31.609 C 28.01 32.034 27.809 32.03 27.644 31.597 C 27.52 31.272 27.478 31.258 26.85 31.344 C 26.214 31.432 26.187 31.422 26.187 31.118 C 26.187 30.705 26.421 30.483 26.857 30.483 C 27.102 30.483 27.253 30.384 27.359 30.152 C 27.555 29.722 28.005 29.718 28.201 30.145 Z M 41.582 29.954 C 42.165 29.954 42.671 30.002 42.707 30.061 C 42.744 30.12 42.596 30.521 42.377 30.952 C 41.916 31.864 41.956 31.937 43.073 32.222 C 43.802 32.408 43.885 32.663 43.32 32.974 C 42.945 33.18 42.581 33.074 41.956 32.575 C 41.604 32.294 41.57 32.291 41.225 32.499 C 41.026 32.619 40.875 32.766 40.889 32.826 C 40.935 33.023 41.793 33.391 42.728 33.613 C 43.237 33.735 43.709 33.884 43.777 33.944 C 43.947 34.095 43.342 34.721 43.028 34.721 C 42.892 34.721 42.478 34.568 42.108 34.381 C 41.738 34.194 41.409 34.067 41.376 34.1 C 41.344 34.132 41.286 34.389 41.248 34.671 C 41.121 35.612 41.068 35.748 40.799 35.818 C 40.652 35.856 40.532 35.955 40.532 36.037 C 40.532 36.327 40.955 36.341 41.333 36.063 C 41.544 35.907 41.778 35.78 41.855 35.78 C 42.083 35.78 42.01 36.407 41.771 36.499 C 41.477 36.611 41.675 36.789 42.258 36.937 C 42.83 37.082 42.919 37.411 42.465 37.708 C 42.168 37.901 42.068 37.907 41.693 37.754 C 41.456 37.657 40.976 37.312 40.627 36.987 C 39.991 36.397 39.991 36.397 39.789 36.684 C 39.678 36.842 39.481 36.972 39.351 36.972 C 39.222 36.972 38.826 37.118 38.473 37.296 C 38.119 37.475 37.788 37.596 37.738 37.565 C 37.688 37.534 37.677 36.801 37.712 35.935 C 37.785 34.174 37.713 34.005 37.079 34.456 C 36.476 34.883 35.88 34.933 35.511 34.587 C 35.342 34.429 35.226 34.236 35.252 34.158 C 35.278 34.08 35.655 33.917 36.089 33.796 C 37.091 33.517 38.066 33.019 38.792 32.414 C 39.406 31.903 39.699 31.825 39.819 32.139 C 39.926 32.415 40.135 32.38 40.592 32.008 C 40.964 31.705 40.973 31.676 40.758 31.44 C 40.521 31.18 40.451 30.748 40.644 30.748 C 40.706 30.748 40.864 30.867 40.997 31.013 C 41.305 31.353 41.547 31.349 41.733 31.003 C 41.988 30.527 41.817 30.37 41.173 30.489 C 40.557 30.604 40.315 30.495 40.443 30.161 C 40.507 29.997 40.743 29.954 41.582 29.954 Z M 30.241 31.811 C 30.409 32.083 32.496 33.029 33.275 33.188 C 33.715 33.277 34.095 33.41 34.119 33.484 C 34.192 33.703 33.653 34.288 33.295 34.377 C 33.022 34.446 32.681 34.264 31.439 33.389 C 30.372 32.637 29.86 32.35 29.723 32.427 C 29.616 32.487 29.18 32.869 28.754 33.277 C 27.561 34.42 26.85 34.692 26.217 34.25 C 25.651 33.854 25.937 33.405 26.76 33.398 C 27.155 33.395 28.383 32.76 29.067 32.204 C 29.709 31.683 30.083 31.558 30.241 31.811 Z M 30.28 33.696 C 30.307 33.923 30.406 34.064 30.546 34.073 C 30.669 34.081 31.038 34.096 31.365 34.106 C 31.779 34.119 31.971 34.185 31.996 34.324 C 32.069 34.733 31.798 34.907 31.077 34.913 L 30.371 34.919 L 30.371 36.137 C 30.371 37.391 30.245 37.741 29.849 37.589 C 29.679 37.524 29.641 37.264 29.641 36.163 L 29.641 34.817 L 28.787 34.904 C 27.83 35.002 27.646 34.889 27.924 34.372 C 28.074 34.092 28.181 34.052 28.712 34.076 C 29.415 34.108 29.641 34.01 29.641 33.676 C 29.641 33.546 29.683 33.399 29.734 33.348 C 29.931 33.152 30.24 33.349 30.28 33.696 Z M 51.465 34.488 C 52.365 34.485 52.654 34.528 52.71 34.674 C 52.751 34.779 52.754 34.894 52.718 34.93 C 52.682 34.966 52.047 35.026 51.307 35.064 C 50.033 35.13 49.962 35.119 49.962 34.872 C 49.962 34.728 50.037 34.584 50.128 34.551 C 50.219 34.519 50.821 34.491 51.465 34.488 Z M 51.929 35.937 L 51.622 36.244 L 51.578 35.861 C 51.553 35.643 51.611 35.43 51.711 35.366 C 52.173 35.075 52.344 35.524 51.929 35.937 Z M 52.898 35.383 C 53.228 35.383 53.227 35.801 52.897 36.099 C 52.593 36.373 52.441 36.201 52.562 35.72 C 52.616 35.507 52.74 35.383 52.898 35.383 Z M 51.157 35.951 C 51.157 36.356 51.2 36.399 51.757 36.547 C 52.086 36.635 52.624 36.707 52.952 36.707 C 53.615 36.707 53.607 36.698 53.397 37.157 C 53.166 37.662 52.924 37.675 51.876 37.24 C 51.345 37.02 50.796 36.839 50.657 36.839 C 50.269 36.839 50.246 36.746 50.477 36.107 C 50.744 35.367 51.157 35.272 51.157 35.951 Z M 32.116 35.902 C 32.345 36.041 32.673 36.175 32.845 36.199 C 33.017 36.224 33.177 36.347 33.201 36.473 C 33.244 36.694 32.646 37.369 32.407 37.369 C 32.237 37.369 31.5 36.166 31.5 35.886 C 31.5 35.585 31.598 35.587 32.116 35.902 Z M 28.291 35.996 C 28.351 36.264 27.99 36.994 27.642 37.309 C 27.359 37.564 27.356 37.563 27.098 37.246 C 26.951 37.065 26.856 36.777 26.878 36.585 C 26.91 36.314 26.982 36.25 27.231 36.278 C 27.403 36.296 27.702 36.196 27.895 36.055 C 28.189 35.84 28.253 35.83 28.291 35.996 Z M 64.506 9.429 C 65.368 9.429 65.511 9.465 65.693 9.724 C 65.807 9.886 65.9 10.244 65.9 10.52 L 65.9 11.022 L 65.335 10.938 C 63.92 10.729 63.852 10.699 63.605 10.179 C 63.475 9.906 63.403 9.625 63.447 9.556 C 63.49 9.486 63.966 9.429 64.506 9.429 Z M 66.006 12.972 C 66.043 13.752 66.026 13.808 65.711 13.928 C 65.526 13.998 64.989 14.019 64.517 13.975 L 63.659 13.895 L 63.734 13.218 C 63.775 12.846 63.863 12.483 63.928 12.412 C 63.993 12.341 64.359 12.244 64.741 12.197 C 65.973 12.044 65.961 12.036 66.006 12.972 Z M 22.956 28.585 C 22.907 28.634 22.867 30.916 22.867 33.657 C 22.867 37.356 22.908 38.681 23.026 38.799 C 23.278 39.049 56.512 39.028 56.721 38.777 C 56.829 38.647 56.862 37.172 56.837 33.58 L 56.802 28.563 L 39.923 28.53 C 30.64 28.511 23.005 28.536 22.956 28.585 Z M 36.149 42.239 C 53.936 42.259 70.717 42.274 73.439 42.272 L 78.387 42.268 L 78.353 48.459 L 78.318 54.649 L 1.417 54.649 L 1.382 48.464 L 1.348 42.278 L 2.578 42.24 C 3.254 42.219 18.361 42.219 36.149 42.239 Z M 15.402 1.561 C 17.124 1.913 19.191 2.857 20.225 3.763 C 20.416 3.93 20.808 4.275 21.096 4.53 C 21.713 5.074 22.99 6.752 23.365 7.509 C 24.984 10.782 25.146 14.016 23.858 17.331 C 22.66 20.412 20.316 22.75 17.266 23.906 C 15.576 24.547 14.695 24.707 12.906 24.7 C 9.796 24.688 7.173 23.622 4.931 21.457 C 2.511 19.12 1.351 16.438 1.343 13.154 C 1.339 11.617 1.469 10.747 1.902 9.429 C 3.196 5.485 6.598 2.424 10.648 1.558 C 11.834 1.304 14.152 1.306 15.402 1.561 Z M 43.19 1.73 C 47.509 2.981 50.73 6.373 51.633 10.618 C 51.874 11.75 51.871 14.209 51.629 15.346 C 50.616 20.089 47.166 23.499 42.325 24.541 C 41.064 24.813 38.541 24.747 37.278 24.409 C 33.656 23.441 30.675 20.885 29.237 17.515 C 27.916 14.421 28.103 10.524 29.71 7.642 C 30.986 5.352 33.048 3.412 35.267 2.411 C 36.101 2.035 37.627 1.552 38.34 1.437 C 39.239 1.293 42.328 1.48 43.19 1.73 Z M 68.905 1.486 C 72.874 2.128 76.552 5.145 77.897 8.862 C 80.519 16.109 75.916 23.695 68.313 24.658 C 66.246 24.92 63.876 24.534 61.95 23.624 C 56.745 21.161 54.039 15.297 55.612 9.886 C 56.395 7.192 57.864 5.187 60.342 3.43 C 61.646 2.505 63.749 1.641 65.169 1.446 C 65.978 1.336 68.116 1.358 68.905 1.486 Z M 38.407 36.11 C 38.279 36.264 38.272 36.361 38.378 36.467 C 38.566 36.654 39.767 36.342 39.696 36.126 C 39.616 35.881 38.608 35.869 38.407 36.11 Z M 38.672 35.25 C 38.672 35.325 39.049 35.383 39.536 35.383 C 40.023 35.383 40.399 35.325 40.399 35.25 C 40.399 35.176 40.023 35.118 39.536 35.118 C 39.049 35.118 38.672 35.176 38.672 35.25 Z M 38.672 34.456 C 38.672 34.531 39.049 34.588 39.536 34.588 C 40.023 34.588 40.399 34.531 40.399 34.456 C 40.399 34.381 40.023 34.324 39.536 34.324 C 39.049 34.324 38.672 34.381 38.672 34.456 Z M 40.266 33.533 C 40.266 33.608 40.132 33.724 39.967 33.79 C 39.714 33.891 39.752 33.911 40.211 33.918 C 40.83 33.927 40.992 33.829 40.78 33.574 C 40.605 33.365 40.266 33.337 40.266 33.533 Z M 38.233 33.614 C 38.109 33.737 38.259 33.926 38.481 33.926 C 38.586 33.926 38.672 33.837 38.672 33.728 C 38.672 33.528 38.392 33.455 38.233 33.614 Z M 48.135 33.542 C 47.971 33.603 47.837 33.718 47.837 33.798 C 47.837 33.988 48.664 33.907 48.729 33.711 C 48.798 33.5 48.488 33.412 48.135 33.542 Z M 47.505 31.001 L 46.841 31.079 L 46.803 32.569 C 46.766 34.022 46.819 34.226 47.146 33.9 C 47.375 33.671 47.347 32.323 47.106 31.979 C 46.926 31.724 46.928 31.673 47.124 31.477 C 47.348 31.255 48.362 31.256 50.169 31.481 C 50.687 31.546 50.879 31.518 51.01 31.361 C 51.104 31.249 51.141 31.095 51.094 31.019 C 51.004 30.873 48.688 30.861 47.505 31.001 Z M 37.831 31.499 C 37.675 31.655 37.737 31.94 37.927 31.94 C 38.029 31.94 38.253 31.823 38.425 31.68 L 38.739 31.419 L 38.329 31.415 C 38.104 31.412 37.88 31.45 37.831 31.499 Z M 48.2 31.908 C 48.072 31.937 48 32.015 48.042 32.082 C 48.139 32.239 48.766 32.243 48.766 32.087 C 48.766 31.93 48.492 31.844 48.2 31.908 Z M 39.23 32.761 C 38.963 33.027 39.049 33.132 39.536 33.132 C 40.047 33.132 40.143 32.952 39.744 32.739 C 39.423 32.568 39.423 32.568 39.23 32.761 Z M 48.036 32.867 C 48.081 32.94 48.23 32.999 48.368 32.999 C 48.505 32.999 48.655 32.94 48.7 32.867 C 48.748 32.789 48.61 32.735 48.368 32.735 C 48.126 32.735 47.988 32.789 48.036 32.867 Z M 50.36 33.33 C 50.36 33.512 50.42 33.661 50.493 33.661 C 50.566 33.661 50.626 33.512 50.626 33.33 C 50.626 33.148 50.566 32.999 50.493 32.999 C 50.42 32.999 50.36 33.148 50.36 33.33 Z M 51.157 33.33 C 51.157 33.536 51.232 33.661 51.356 33.661 C 51.48 33.661 51.555 33.536 51.555 33.33 C 51.555 33.124 51.48 32.999 51.356 32.999 C 51.232 32.999 51.157 33.124 51.157 33.33 Z M 52.002 33.198 C 51.96 33.307 51.964 33.497 52.011 33.619 C 52.089 33.822 52.114 33.823 52.309 33.629 C 52.528 33.411 52.47 32.999 52.22 32.999 C 52.142 32.999 52.044 33.089 52.002 33.198 Z M 38.398 46.771 C 38.507 46.771 39.075 48.807 39.073 49.187 C 39.071 49.377 38.95 49.419 38.407 49.419 C 38.041 49.419 37.743 49.364 37.743 49.296 C 37.743 49.229 37.867 48.633 38.02 47.972 C 38.173 47.311 38.343 46.771 38.398 46.771 Z M 64.045 46.789 C 64.133 46.953 64.704 49.163 64.704 49.343 C 64.704 49.385 64.406 49.419 64.04 49.419 C 63.245 49.419 63.243 49.409 63.662 47.744 C 63.834 47.06 63.986 46.681 64.045 46.789 Z" fill="#0F0F0F"></path></svg>