<svg xmlns="http://www.w3.org/2000/svg" xmlns:xlink="http://www.w3.org/1999/xlink" viewBox="0 0 78 48"><path d="M 73.14 0.662 C 71.552 1.177 70.642 2.106 70.269 3.591 C 69.74 5.693 71.065 7.858 73.166 8.329 C 74.942 8.726 76.557 8.039 77.458 6.501 C 78.543 4.65 77.94 2.228 76.131 1.168 C 75.234 0.642 73.897 0.416 73.14 0.662 Z M 75.113 1.534 C 76.494 2.027 77.199 3.039 77.199 4.531 C 77.199 5.415 76.712 6.598 76.293 6.734 C 76.189 6.768 75.868 6.35 75.579 5.805 L 75.055 4.815 L 75.436 4.409 C 75.925 3.888 75.93 2.899 75.445 2.415 C 75.084 2.053 74.511 1.894 73.142 1.777 L 72.473 1.72 L 73.142 1.506 C 74.025 1.223 74.25 1.226 75.113 1.534 Z M 44.038 1.569 C 43.964 1.643 43.904 2.119 43.904 2.627 L 43.904 3.55 L 40.751 3.55 L 37.598 3.55 L 37.598 4.506 L 37.598 5.461 L 40.743 5.461 L 43.888 5.461 L 43.944 6.942 L 44 8.423 L 44.764 8.486 C 46.466 8.626 47.799 7.699 48.037 6.211 L 48.157 5.461 L 49.184 5.461 L 50.21 5.461 L 50.21 4.506 L 50.21 3.55 L 49.169 3.55 L 48.128 3.55 L 48.07 2.547 L 48.013 1.544 L 46.092 1.49 C 45.036 1.46 44.111 1.496 44.038 1.569 Z M 57.663 2.499 L 57.663 3.55 L 56.612 3.55 L 55.561 3.55 L 55.561 4.496 L 55.561 5.441 L 56.564 5.499 L 57.567 5.557 L 57.623 7.038 L 57.679 8.519 L 58.632 8.519 C 60.407 8.519 61.478 7.757 61.664 6.362 L 61.771 5.557 L 64.399 5.504 L 67.026 5.451 L 67.026 4.506 L 67.026 3.561 L 64.399 3.508 L 61.771 3.455 L 61.714 2.452 L 61.656 1.448 L 59.659 1.448 L 57.663 1.448 Z M 1.777 2.063 C 1.734 2.198 1.655 6.307 1.601 11.194 C 1.485 21.812 1.084 27.504 0.203 31.027 C 0.038 31.688 -0.042 32.284 0.026 32.352 C 0.251 32.577 2.141 32.735 2.699 32.576 C 3.518 32.342 4.114 31.895 4.435 31.274 C 5.279 29.643 5.636 23.889 5.723 10.525 L 5.779 1.926 L 3.818 1.872 C 2.35 1.831 1.836 1.879 1.777 2.063 Z M 7.391 1.926 C 7.384 1.979 7.372 2.43 7.364 2.929 L 7.35 3.837 L 19.321 3.886 L 31.292 3.935 L 31.292 2.883 L 31.292 1.831 L 19.348 1.831 C 12.779 1.831 7.399 1.874 7.391 1.926 Z M 72.956 6.99 C 73.51 6.99 73.524 6.967 73.524 6.035 C 73.524 5.337 73.597 5.079 73.795 5.079 C 73.944 5.079 74.26 5.509 74.498 6.035 C 74.84 6.793 75.023 6.99 75.384 6.99 C 76.045 6.99 75.732 7.329 74.853 7.565 C 72.633 8.163 70.367 5.912 71.014 3.75 C 71.139 3.334 71.475 2.716 71.761 2.375 L 72.282 1.756 L 72.335 4.373 L 72.388 6.99 Z M 74.684 3.089 C 75.025 3.5 74.692 4.01 74.03 4.088 C 73.566 4.144 73.524 4.093 73.524 3.467 C 73.524 2.877 73.585 2.786 73.978 2.786 C 74.228 2.786 74.545 2.922 74.684 3.089 Z M 17.778 4.936 C 17.678 5.067 17.112 6.357 16.522 7.802 L 15.45 10.43 L 17.461 10.43 C 19.43 10.43 19.485 10.418 20.032 9.871 C 20.339 9.564 20.59 9.134 20.59 8.916 C 20.59 8.531 20.681 8.519 23.552 8.519 L 26.514 8.519 L 26.514 10.812 L 26.514 13.105 L 19.826 13.105 L 13.138 13.105 L 13.138 9.761 L 13.138 6.417 L 10.845 6.417 L 8.552 6.417 L 8.552 10.812 L 8.552 15.207 L 12.851 15.207 L 17.151 15.207 L 17.151 18.551 L 17.151 21.895 L 18.498 21.895 C 20.07 21.895 20.821 21.58 21.362 20.692 C 21.681 20.17 21.736 19.723 21.736 17.644 L 21.737 15.207 L 25.416 15.207 C 31.031 15.206 31.1 15.141 31.1 9.809 L 31.101 6.417 L 26.146 6.417 L 21.19 6.417 L 21.368 5.797 C 21.685 4.692 21.693 4.697 19.754 4.697 C 18.546 4.697 17.902 4.775 17.778 4.936 Z M 51.24 9.311 C 48.424 10.874 44.769 12.051 40.942 12.625 C 39.891 12.783 38.666 12.912 38.219 12.913 C 37.684 12.914 37.407 12.998 37.407 13.16 C 37.407 13.756 38.589 17.118 38.799 17.118 C 39.319 17.117 42.966 16.149 44.573 15.585 C 46.857 14.782 49.639 13.318 51.254 12.066 L 52.566 11.05 L 53.575 11.871 C 55.941 13.799 59.702 15.531 63.734 16.55 C 64.967 16.862 66.108 17.117 66.271 17.117 C 66.482 17.118 66.735 16.544 67.154 15.118 C 67.476 14.018 67.695 13.073 67.638 13.016 C 67.582 12.96 67.185 12.914 66.756 12.914 C 66.326 12.914 64.943 12.745 63.682 12.54 C 59.9 11.922 56.347 10.757 53.82 9.305 L 52.557 8.579 Z M 50.21 17.596 L 50.21 19.602 L 44.764 19.602 L 39.318 19.602 L 39.318 20.558 L 39.318 21.513 L 52.599 21.513 L 65.88 21.513 L 65.88 20.561 L 65.88 19.608 L 60.386 19.557 L 54.892 19.507 L 54.837 17.548 L 54.783 15.589 L 52.497 15.589 L 50.21 15.589 Z M 8.468 18.981 C 8.168 20.216 7.883 21.334 7.835 21.465 C 7.768 21.647 8.211 21.704 9.667 21.704 C 12.179 21.704 12.469 21.489 12.758 19.411 C 12.867 18.623 13.001 17.698 13.056 17.357 L 13.155 16.736 L 11.084 16.736 L 9.012 16.736 Z M 25.636 17.548 C 26.286 21.727 26.268 21.704 29.054 21.704 L 31.038 21.704 L 30.353 19.22 L 29.668 16.736 L 27.589 16.736 L 25.51 16.736 Z M 50.21 27.437 L 50.21 32.406 L 51.792 32.406 C 53.537 32.406 54.023 32.2 54.511 31.257 C 54.738 30.817 54.796 29.866 54.796 26.587 L 54.796 22.469 L 52.503 22.469 L 50.21 22.469 Z M 58.725 24.145 C 58.697 24.174 59.036 25.802 59.48 27.764 C 60.225 31.057 60.332 31.371 60.889 31.868 C 61.469 32.386 61.565 32.406 63.515 32.406 C 65.367 32.406 65.527 32.377 65.401 32.071 C 65.325 31.887 64.69 30.032 63.99 27.948 L 62.716 24.16 L 60.747 24.127 C 59.664 24.108 58.754 24.117 58.725 24.145 Z M 42.084 24.427 C 42.036 24.559 41.411 26.408 40.696 28.536 L 39.395 32.406 L 41.416 32.406 C 43.517 32.406 44.054 32.241 44.468 31.468 C 44.569 31.278 44.956 29.756 45.327 28.086 C 45.698 26.415 46.047 24.855 46.103 24.619 C 46.203 24.193 46.182 24.189 44.188 24.189 C 42.75 24.189 42.147 24.257 42.084 24.427 Z M 8.266 24.81 C 8.013 25.876 6.832 31.923 6.832 32.151 C 6.832 32.344 7.25 32.406 8.566 32.406 C 10.204 32.406 10.33 32.376 10.826 31.88 C 11.314 31.393 11.375 31.147 11.68 28.488 C 11.861 26.912 12.057 25.342 12.117 25.001 L 12.225 24.38 L 10.296 24.38 C 8.454 24.38 8.363 24.399 8.266 24.81 Z M 13.52 27.977 C 13.52 31.491 13.53 31.584 13.962 31.99 C 14.396 32.397 14.517 32.406 20.054 32.406 L 25.703 32.406 L 25.616 31.594 C 25.568 31.147 25.385 29.363 25.209 27.628 L 24.89 24.475 L 22.928 24.421 L 20.966 24.366 L 21.1 26.714 C 21.173 28.005 21.239 29.363 21.246 29.73 L 21.259 30.399 L 19.731 30.399 L 18.202 30.399 L 18.149 27.389 L 18.097 24.38 L 15.808 24.38 L 13.52 24.38 Z M 26.705 24.487 C 26.705 24.771 27.683 31.014 27.772 31.302 C 27.829 31.483 28.096 31.806 28.367 32.018 C 28.777 32.341 29.141 32.406 30.553 32.406 C 31.485 32.406 32.247 32.326 32.247 32.228 C 32.247 32.131 31.86 30.357 31.387 28.287 C 30.914 26.216 30.527 24.49 30.527 24.451 C 30.527 24.412 29.667 24.38 28.616 24.38 C 27.565 24.38 26.705 24.428 26.705 24.487 Z M 15.941 35.782 C 15.697 36.025 15.815 36.761 16.115 36.876 C 16.52 37.031 16.508 37.034 16.85 36.692 C 17.076 36.466 17.102 36.302 16.953 36.023 C 16.76 35.663 16.194 35.528 15.941 35.782 Z M 18.306 35.93 C 17.79 36.552 18.644 37.3 19.217 36.728 C 19.46 36.484 19.485 36.335 19.325 36.081 C 19.046 35.638 18.603 35.572 18.306 35.93 Z M 1.8 38.366 C 1.409 38.989 -0.108 46.056 0.046 46.541 C 0.222 47.094 0.992 47.561 1.477 47.408 C 2.1 47.21 2.378 46.578 2.613 44.827 C 2.913 42.598 3.017 42.133 3.19 42.24 C 3.272 42.291 3.828 43.151 4.425 44.153 C 5.386 45.763 5.574 45.973 6.049 45.973 C 6.528 45.973 6.707 45.765 7.701 44.062 C 8.314 43.011 8.873 42.151 8.943 42.151 C 9.013 42.151 9.175 42.947 9.304 43.919 C 9.647 46.527 9.83 47.107 10.377 47.315 C 10.939 47.528 11.697 47.283 11.87 46.832 C 12.091 46.254 11.998 45.49 11.317 42.325 C 10.484 38.454 10.278 37.947 9.54 37.947 C 8.808 37.947 8.599 38.22 7.213 40.998 L 6.023 43.38 L 4.66 40.711 C 3.37 38.187 3.263 38.04 2.687 37.984 C 2.22 37.939 2.013 38.028 1.8 38.366 Z M 16.375 38.206 C 14.227 38.791 12.947 40.5 12.947 42.783 C 12.947 44.23 13.453 45.34 14.535 46.267 C 17.225 48.569 21.371 47.194 22.143 43.743 C 22.903 40.35 19.72 37.296 16.375 38.206 Z M 27.374 38.073 C 25.679 38.472 24.508 39.331 23.785 40.705 C 23.222 41.775 23.219 43.67 23.779 44.734 C 24.909 46.88 27.084 47.863 29.286 47.223 C 31.177 46.674 32.59 44.962 32.661 43.135 C 32.709 41.905 32.479 41.769 30.343 41.769 C 28.785 41.769 28.433 41.826 28.168 42.119 C 27.429 42.936 28.014 43.68 29.394 43.68 C 30.459 43.68 30.604 43.937 29.906 44.59 C 28.589 45.824 26.692 45.562 25.749 44.016 C 24.517 41.996 26.591 39.477 28.868 40.229 C 29.23 40.348 29.678 40.615 29.865 40.821 C 30.5 41.522 31.674 41.066 31.674 40.118 C 31.674 39.044 28.885 37.718 27.374 38.073 Z M 34.076 38.248 C 33.822 38.502 33.776 39.18 33.776 42.7 C 33.776 45.675 33.841 46.917 34.005 47.082 C 34.162 47.239 35.095 47.311 36.961 47.311 C 39.46 47.311 39.703 47.28 39.884 46.941 C 40.186 46.377 40.121 45.686 39.733 45.334 C 39.464 45.091 39 45.018 37.726 45.018 L 36.069 45.018 L 36.069 44.253 L 36.069 43.489 L 37.655 43.489 C 39.377 43.489 39.7 43.338 39.7 42.534 C 39.7 41.728 39.377 41.578 37.643 41.578 L 36.045 41.578 L 36.105 40.957 L 36.165 40.336 L 37.885 40.283 C 39.761 40.225 40.082 40.051 40.082 39.087 C 40.082 38.105 39.639 37.947 36.88 37.947 C 34.859 37.947 34.319 38.005 34.076 38.248 Z M 43.942 38.177 C 43.816 38.303 43.714 38.582 43.716 38.798 C 43.721 39.556 43.999 39.729 45.151 39.692 C 47.08 39.629 46.961 39.388 46.961 43.368 C 46.961 45.823 47.029 46.92 47.191 47.082 C 47.493 47.384 48.807 47.377 49.004 47.072 C 49.09 46.941 49.202 45.242 49.255 43.298 L 49.35 39.763 L 50.783 39.667 C 52.186 39.574 52.218 39.56 52.278 39.035 C 52.398 37.988 52.239 37.947 48.027 37.947 C 45.283 37.947 44.105 38.013 43.942 38.177 Z M 53.793 38.154 C 53.491 38.33 53.459 38.753 53.459 42.601 C 53.459 45.653 53.524 46.917 53.688 47.082 C 53.844 47.238 54.753 47.311 56.531 47.311 C 59.421 47.311 59.637 47.228 59.637 46.127 C 59.637 45.24 59.177 45.018 57.34 45.018 L 55.752 45.018 L 55.752 44.254 L 55.752 43.489 L 57.338 43.489 C 59.059 43.489 59.383 43.338 59.383 42.534 C 59.383 41.729 59.059 41.578 57.338 41.578 L 55.752 41.578 L 55.752 40.909 L 55.752 40.241 L 57.573 40.241 C 59.287 40.241 59.405 40.215 59.556 39.811 C 59.774 39.232 59.628 38.479 59.242 38.186 C 58.853 37.891 54.291 37.864 53.793 38.154 Z M 61.021 38.248 C 60.766 38.502 60.72 39.18 60.72 42.7 C 60.72 45.675 60.785 46.917 60.95 47.082 C 61.106 47.239 62.039 47.311 63.905 47.311 C 66.404 47.311 66.647 47.28 66.829 46.941 C 67.131 46.377 67.065 45.686 66.677 45.334 C 66.408 45.091 65.944 45.018 64.67 45.018 L 63.013 45.018 L 63.013 44.253 L 63.013 43.489 L 64.6 43.489 C 66.321 43.489 66.644 43.338 66.644 42.534 C 66.644 41.728 66.322 41.578 64.587 41.578 L 62.989 41.578 L 63.049 40.957 L 63.109 40.336 L 64.829 40.283 C 66.167 40.242 66.602 40.16 66.788 39.912 C 67.14 39.443 67.078 38.764 66.644 38.33 C 66.301 37.987 66.007 37.947 63.791 37.947 C 61.8 37.947 61.263 38.006 61.021 38.248 Z M 18.983 40.52 C 19.832 41.077 20.239 41.943 20.148 42.999 C 20.08 43.785 19.952 44.048 19.382 44.57 C 18.18 45.671 16.759 45.658 15.7 44.535 C 14.849 43.633 14.718 42.73 15.276 41.622 C 16.025 40.134 17.654 39.65 18.983 40.52 Z" fill="#0F0F0F"></path></svg>