<svg xmlns="http://www.w3.org/2000/svg" xmlns:xlink="http://www.w3.org/1999/xlink" viewBox="0 0 108 38"><path d="M 51.934 30.162 C 52.211 29.829 52.823 29.565 53.614 29.426 C 54.392 29.301 55.656 29.37 56.198 29.565 C 56.378 29.634 56.795 29.69 57.114 29.69 C 57.448 29.69 57.892 29.731 58.114 29.773 C 58.503 29.842 58.517 29.884 58.545 30.69 C 58.559 31.301 58.642 31.606 58.836 31.829 C 59.198 32.217 59.42 32.662 59.42 32.981 C 59.42 33.176 59.35 33.148 59.073 32.815 L 58.739 32.398 L 58.725 33.009 C 58.725 33.426 58.586 33.856 58.309 34.37 C 58.086 34.773 57.892 35.231 57.892 35.384 C 57.892 35.745 57.378 36.773 57.198 36.773 C 57.128 36.773 57.17 36.551 57.281 36.273 C 57.642 35.412 57.392 35.551 56.281 36.87 C 55.85 37.384 54.934 37.884 54.753 37.704 C 54.711 37.676 54.92 37.412 55.184 37.148 C 55.628 36.704 55.684 36.579 55.6 36.19 C 55.475 35.606 55.184 35.384 54.586 35.384 C 54.184 35.384 54.128 35.356 54.281 35.176 C 54.545 34.856 55.267 34.787 55.948 35.023 C 56.517 35.217 56.586 35.217 56.781 34.995 C 56.906 34.856 56.989 34.676 56.948 34.579 C 56.864 34.329 56.392 34.37 56.239 34.648 C 56.114 34.87 56.1 34.856 56.086 34.551 C 56.086 34.342 56.156 34.12 56.239 34.037 C 56.35 33.926 56.336 33.856 56.211 33.787 C 56.1 33.717 56.073 33.731 56.142 33.829 C 56.364 34.19 55.934 33.967 55.642 33.579 C 55.475 33.342 55.295 33.162 55.239 33.162 C 55.031 33.162 55.003 33.801 55.184 34.19 C 55.434 34.676 55.434 34.69 55.253 34.69 C 55.17 34.69 54.948 34.523 54.767 34.329 C 54.517 34.051 54.42 33.801 54.42 33.384 C 54.42 32.856 54.378 32.787 53.906 32.537 C 53.225 32.176 52.225 31.273 51.975 30.759 C 51.809 30.44 51.795 30.329 51.934 30.162 Z M 20.808 0.342 C 17.197 0.967 13.739 2.634 10.558 5.301 C 7.794 7.634 5.531 10.773 4.572 13.676 C 3.836 15.842 4.031 17.106 5.156 17.62 C 5.836 17.926 6.947 17.967 7.183 17.703 C 7.267 17.592 7.419 17.12 7.544 16.62 C 7.947 14.953 8.197 14.203 8.697 13.231 C 9.489 11.703 11.044 9.759 12.864 7.995 C 14.211 6.703 14.822 6.217 15.961 5.578 C 20.003 3.314 24.642 2.759 27.489 4.203 C 30.086 5.523 30.392 8.926 28.281 13.078 C 27.308 15.009 26.225 16.314 24.281 17.953 C 20.614 21.009 16.517 22.439 12.031 22.189 C 11.294 22.148 10.642 22.064 10.6 22.023 C 10.544 21.967 11.211 21.12 12.086 20.148 C 14.517 17.37 15.419 16.287 16.989 14.19 C 19.364 11.037 19.781 9.981 19.142 8.717 C 18.822 8.078 17.989 7.467 17.461 7.467 C 17.156 7.467 17.044 7.578 16.808 8.148 C 16.475 8.967 15.933 9.787 13.517 13.092 C 13.092 13.677 12.592 14.361 12.101 15.032 L 12.101 15.032 L 12.101 15.033 C 11.438 15.94 10.793 16.823 10.378 17.398 C 9.656 18.384 8.725 19.689 8.322 20.273 C 7.906 20.87 7.531 21.356 7.461 21.356 C 7.156 21.356 5.211 20.564 4.336 20.092 C 2.919 19.314 2.142 19.426 2.628 20.328 C 2.836 20.745 4.919 22.092 5.836 22.426 C 6.211 22.551 6.503 22.717 6.503 22.787 C 6.503 22.856 6.169 23.398 5.767 23.981 C 5.35 24.564 4.531 25.759 3.933 26.634 C 0.669 31.412 0.531 31.634 0.725 32.12 C 0.836 32.426 1.433 32.37 1.753 32.009 C 1.873 31.889 2.267 31.423 2.743 30.86 C 2.927 30.642 3.124 30.409 3.322 30.176 C 5.85 27.162 9.044 23.578 9.197 23.578 C 9.294 23.578 10.017 23.676 10.822 23.801 C 14.072 24.301 18.683 23.551 21.683 22.037 C 26.461 19.62 30.225 15.356 31.711 10.662 C 32.711 7.537 32.1 4.384 30.156 2.606 C 28.378 0.981 26.072 0.231 22.961 0.259 C 21.975 0.273 21.003 0.314 20.808 0.342 Z M 95.531 6.87 C 93.572 7.814 89.697 12.967 85.906 19.676 C 84.822 21.592 84.725 21.717 83.517 22.703 C 82.086 23.884 81.322 24.37 80.697 24.495 C 80.128 24.606 80.003 24.328 80.308 23.537 C 80.545 22.898 81.572 21.231 82.475 19.981 C 82.92 19.384 83.031 19.106 83.031 18.634 C 83.031 17.703 82.489 17.356 81.295 17.509 L 80.697 17.592 L 80.767 17.051 C 80.878 16.231 80.739 15.856 80.17 15.592 C 78.808 14.953 77.197 16.245 77.197 17.981 C 77.197 18.356 77.295 18.787 77.406 18.953 C 77.614 19.245 77.572 19.301 76.808 20.203 C 76.35 20.717 75.85 21.259 75.697 21.412 L 75.406 21.662 L 75.697 20.926 C 76.114 19.87 76.114 18.523 75.697 17.856 C 75.031 16.787 73.308 16.509 71.739 17.231 C 70.836 17.648 68.642 19.745 67.808 21.009 C 66.128 23.537 66.572 26.551 68.683 26.898 C 69.989 27.12 71.281 26.564 72.753 25.12 C 73.558 24.328 73.878 24.106 74.156 24.12 C 74.35 24.134 74.864 24.023 75.295 23.856 C 75.989 23.592 76.239 23.37 77.392 22.078 C 78.114 21.259 78.878 20.398 79.1 20.148 C 79.322 19.898 79.697 19.676 79.947 19.62 L 80.406 19.523 L 79.572 20.648 C 78.572 21.995 78.142 23.064 78.156 24.176 C 78.156 25.592 78.864 26.37 80.211 26.467 C 80.906 26.509 81.142 26.453 81.933 26.051 L 82.85 25.592 L 82.975 25.995 C 83.114 26.453 83.67 26.717 84.211 26.578 C 84.406 26.523 85.281 25.759 86.156 24.856 L 87.767 23.231 L 87.989 23.578 C 88.475 24.314 89.808 25.495 90.6 25.87 C 91.308 26.231 91.586 26.287 92.614 26.287 C 93.961 26.287 94.517 26.078 95.947 25.023 L 96.781 24.412 L 96.989 24.926 C 97.683 26.592 99.42 27.439 100.947 26.856 C 103.489 25.87 104.781 25.12 106.294 23.703 C 107.253 22.801 107.517 22.203 107.211 21.551 C 106.947 20.967 106.503 21.12 105.169 22.273 L 103.933 23.328 L 103.864 22.162 C 103.781 20.953 103.503 20.162 102.85 19.356 L 102.517 18.953 L 103.267 17.967 C 104.475 16.356 104.711 15.106 103.892 14.578 C 102.392 13.592 99.878 15.898 100.169 17.995 L 100.253 18.634 L 99.322 19.578 C 98.6 20.314 98.295 20.523 97.989 20.523 C 97.517 20.523 96.85 21.162 96.711 21.745 C 96.586 22.356 94.142 24.176 93.225 24.356 C 92.711 24.453 91.6 24.134 91.197 23.759 C 90.961 23.537 90.989 23.509 91.892 23.162 C 93.781 22.426 95.503 20.939 96.183 19.467 C 97.253 17.134 95.072 16.162 92.045 17.62 L 90.933 18.162 L 93.142 15.814 C 97.35 11.37 98.586 9.606 98.586 8.064 C 98.586 7.412 98.531 7.245 98.183 6.898 C 97.836 6.551 97.67 6.495 97.031 6.495 C 96.531 6.509 96.058 6.62 95.531 6.87 Z M 95.989 9.467 C 95.42 10.273 92.92 13.12 92.183 13.787 C 91.392 14.509 93.836 11.412 95.142 10.037 C 95.822 9.314 96.42 8.717 96.461 8.717 C 96.489 8.717 96.281 9.051 95.989 9.467 Z M 73.739 18.717 C 74.336 19.037 73.864 20.648 72.697 22.259 C 71.642 23.717 70.17 24.967 69.503 24.967 C 69.378 24.967 69.183 24.814 69.058 24.62 C 68.503 23.759 69.183 22.189 70.92 20.426 C 71.461 19.856 71.92 19.342 71.92 19.273 C 71.92 19.176 72.906 18.717 73.42 18.592 C 73.443 18.581 73.543 18.627 73.664 18.683 C 73.688 18.694 73.714 18.706 73.739 18.717 Z M 94.142 19.148 C 94.142 19.231 93.822 19.592 93.447 19.967 C 92.614 20.773 90.961 21.634 90.017 21.745 L 89.35 21.814 L 89.767 21.467 C 90.392 20.939 92.517 19.578 93.197 19.273 C 93.878 18.967 94.142 18.926 94.142 19.148 Z M 101.725 21.745 C 101.961 22.564 101.906 23.495 101.572 23.939 C 101.392 24.189 101.364 24.189 100.864 23.773 C 100.572 23.537 100.128 23.037 99.864 22.662 L 99.392 21.981 L 100.267 21.189 L 100.276 21.181 C 101.142 20.412 101.156 20.399 101.322 20.703 C 101.419 20.87 101.6 21.342 101.725 21.745 Z M 40.42 11.426 C 42.323 8.87 43.531 7.745 44.948 7.245 C 47.003 6.509 48.059 8.12 46.961 10.314 C 46.295 11.662 44.892 13.342 41.42 17.009 L 39.725 18.787 L 40.85 18.231 C 41.781 17.773 42.128 17.676 42.989 17.634 C 44.6 17.551 45.253 17.953 45.253 19.051 C 45.253 20.606 43.281 22.689 40.85 23.717 C 40.364 23.926 39.948 24.148 39.948 24.217 C 39.92 24.453 41.142 24.967 41.711 24.967 C 42.781 24.967 45.364 23.092 45.892 21.926 C 46.961 19.578 50.059 17.189 52.045 17.189 C 52.434 17.189 52.725 17.301 53.017 17.551 C 53.392 17.856 53.448 17.995 53.448 18.592 C 53.448 20.259 52.211 21.759 48.823 24.176 C 47.795 24.912 47.753 24.967 48.045 25.12 C 49.295 25.787 53.545 23.439 54.67 21.453 C 55.211 20.495 56.767 18.689 57.378 18.314 C 57.975 17.939 58.642 17.939 59.003 18.301 C 59.434 18.731 59.35 19.023 58.448 20.092 C 56.989 21.842 55.67 24.037 55.67 24.745 C 55.67 24.995 55.684 24.995 56.059 24.745 C 57.35 23.912 58.906 22.231 60.198 20.273 C 61.239 18.703 61.809 18.162 62.406 18.162 C 62.989 18.162 63.448 18.606 63.448 19.176 C 63.448 19.481 63.198 19.884 62.545 20.689 C 61.6 21.856 60.934 23.064 60.656 24.176 C 60.448 25.037 60.6 25.217 61.239 24.884 C 62.323 24.342 65.35 20.634 66.642 18.273 C 67.156 17.328 67.336 17.106 67.642 17.078 C 68.073 17.023 68.531 17.426 68.67 17.953 C 68.781 18.412 68.239 19.523 66.92 21.551 C 65.1 24.342 63.406 26.162 61.948 26.87 C 60.448 27.606 59.045 26.995 58.739 25.467 L 58.656 25.064 L 57.892 25.717 C 56.975 26.495 55.906 27.051 55.309 27.051 C 54.698 27.051 54.045 26.481 53.836 25.759 C 53.753 25.439 53.67 25.162 53.656 25.134 C 53.642 25.12 53.17 25.412 52.6 25.787 C 51.086 26.801 50.267 27.092 48.934 27.092 C 48.073 27.092 47.698 27.037 47.253 26.801 C 46.642 26.495 45.892 25.717 45.739 25.259 C 45.656 24.995 45.586 25.023 44.795 25.62 C 43.461 26.606 42.614 26.953 41.517 26.939 C 39.656 26.912 38.142 26.037 36.836 24.217 L 36.545 23.814 L 35.795 24.564 C 35.378 24.981 34.642 25.731 34.156 26.245 C 33.378 27.078 33.211 27.189 32.767 27.189 C 32.073 27.189 31.767 26.939 31.753 26.37 C 31.711 25.134 37.031 15.981 40.42 11.426 Z M 40.628 14.689 C 40.128 15.495 44.239 10.912 44.961 9.856 C 45.128 9.62 45.253 9.412 45.211 9.412 C 44.961 9.412 41.295 13.62 40.628 14.689 Z M 48.406 22.051 C 48.628 22.051 50.323 20.578 50.795 19.981 C 51.323 19.314 51.211 19.259 50.434 19.814 C 49.517 20.481 48.1 22.051 48.406 22.051 Z M 41.364 21.287 C 42.142 20.773 42.892 20.023 42.892 19.759 C 42.892 19.301 40.184 20.773 38.448 22.176 L 38.1 22.467 L 38.42 22.467 C 39.003 22.467 40.461 21.884 41.364 21.287 Z M 29.878 17.592 C 29.1 17.856 28.086 18.495 27.892 18.842 C 27.822 18.967 27.308 19.551 26.725 20.134 C 25.294 21.606 24.642 22.926 24.586 24.467 C 24.544 25.426 24.586 25.69 24.864 26.217 C 25.447 27.342 26.739 27.745 28.183 27.259 C 29.947 26.648 32.669 23.634 33.489 21.384 C 33.864 20.342 33.864 19.065 33.503 18.426 C 32.933 17.426 31.392 17.065 29.878 17.592 Z M 31.614 19.301 C 32.183 19.87 31.197 22.051 29.544 23.912 C 28.419 25.176 27.128 25.745 26.781 25.12 C 26.308 24.231 26.989 22.745 28.683 20.912 C 30.142 19.342 31.114 18.801 31.614 19.301 Z M 44.35 31.662 C 44.281 31.898 44.003 33.62 44.003 33.829 C 44.003 33.94 44.308 33.995 44.906 33.995 C 45.711 33.995 45.808 33.967 45.808 33.717 C 45.808 33.481 45.711 33.44 45.183 33.44 C 44.697 33.44 44.586 33.398 44.642 33.231 C 44.697 33.092 44.92 33.023 45.267 33.023 C 45.711 33.023 45.808 32.981 45.808 32.745 C 45.808 32.523 45.711 32.467 45.322 32.467 C 44.989 32.467 44.836 32.398 44.836 32.259 C 44.836 32.106 45.003 32.051 45.447 32.051 C 46.003 32.051 46.225 31.898 46.225 31.551 C 46.225 31.523 45.822 31.495 45.322 31.495 C 44.711 31.495 44.392 31.551 44.35 31.662 Z M 46.392 32.37 C 46.364 32.05 46.433 31.884 46.67 31.717 C 47.058 31.439 47.614 31.425 47.975 31.689 C 48.308 31.939 48.128 32.12 47.531 32.12 C 46.947 32.12 46.85 32.342 47.378 32.481 C 48.225 32.703 48.378 33.106 47.822 33.648 C 47.447 34.037 46.711 34.106 46.295 33.8 C 46.072 33.634 46.058 33.578 46.211 33.384 C 46.35 33.231 46.461 33.203 46.642 33.3 C 47.017 33.495 47.475 33.467 47.475 33.259 C 47.475 33.148 47.239 33.009 46.961 32.939 C 46.503 32.828 46.433 32.759 46.392 32.37 Z M 48.308 31.773 C 48.308 31.967 48.405 32.051 48.6 32.051 C 48.878 32.051 48.891 32.106 48.794 32.704 C 48.753 33.079 48.669 33.509 48.628 33.676 C 48.572 33.926 48.614 33.995 48.836 33.995 C 49.128 33.995 49.197 33.842 49.35 32.704 C 49.433 32.148 49.503 32.051 49.766 32.051 C 50.03 32.051 50.253 31.829 50.253 31.551 C 50.253 31.523 49.822 31.495 49.28 31.495 C 48.405 31.495 48.308 31.523 48.308 31.773 Z M 61.364 32.204 C 61.364 32.134 61.531 31.94 61.725 31.787 C 62.183 31.426 62.642 31.412 62.947 31.759 C 63.267 32.12 63.114 32.662 62.558 33.092 L 62.128 33.44 L 62.517 33.44 C 62.795 33.44 62.892 33.509 62.892 33.717 C 62.892 33.967 62.795 33.995 62.058 33.995 C 61.281 33.995 61.225 33.967 61.225 33.676 C 61.225 33.481 61.364 33.273 61.614 33.134 C 61.822 33.009 62.142 32.745 62.322 32.551 C 62.628 32.231 62.628 32.19 62.42 32.106 C 62.281 32.051 62.114 32.079 62.017 32.176 C 61.836 32.356 61.364 32.384 61.364 32.204 Z M 63.711 31.898 C 63.391 32.231 63.308 32.426 63.308 32.926 C 63.308 33.342 63.391 33.606 63.558 33.759 C 64.141 34.287 65.128 33.828 65.378 32.94 C 65.725 31.703 64.6 31.009 63.711 31.898 Z M 64.808 32.495 C 64.877 33.037 64.6 33.467 64.239 33.412 C 63.836 33.356 63.752 32.69 64.086 32.315 C 64.419 31.953 64.752 32.037 64.808 32.495 Z M 65.725 32.537 C 65.656 32.384 65.781 32.19 66.1 31.912 C 66.614 31.467 66.92 31.384 66.92 31.676 C 66.92 31.898 66.656 33.412 66.559 33.745 C 66.517 33.884 66.364 33.995 66.211 33.995 C 65.989 33.995 65.961 33.926 66.017 33.606 C 66.239 32.62 66.239 32.606 66.017 32.69 C 65.892 32.745 65.781 32.676 65.725 32.537 Z M 67.28 32.051 C 66.975 32.842 66.989 32.898 67.572 32.856 C 67.975 32.828 68.1 32.87 68.141 33.064 C 68.211 33.384 67.794 33.523 67.433 33.314 C 67.072 33.078 66.78 33.328 67.003 33.689 C 67.253 34.078 67.975 34.064 68.378 33.662 C 68.961 33.078 68.78 32.328 68.058 32.328 C 67.878 32.328 67.78 32.273 67.822 32.189 C 67.864 32.106 68.086 32.051 68.308 32.051 C 68.628 32.051 68.864 31.842 68.864 31.551 C 68.864 31.523 68.558 31.495 68.183 31.495 C 67.516 31.495 67.503 31.509 67.28 32.051 Z M 12.059 32.745 C 11.878 32.62 11.892 32.578 12.114 32.398 C 12.503 32.092 41.031 32.078 41.434 32.384 C 41.684 32.565 41.684 32.578 41.392 32.731 C 41.003 32.94 12.364 32.953 12.059 32.745 Z M 71.433 32.384 C 70.78 32.856 71.433 32.884 84.933 32.884 C 92.169 32.884 98.239 32.843 98.419 32.801 C 98.586 32.745 98.725 32.634 98.725 32.537 C 98.725 32.44 98.586 32.329 98.419 32.273 C 98.239 32.231 92.155 32.19 84.892 32.19 C 73.947 32.19 71.655 32.218 71.433 32.384 Z M 49.933 33.967 C 49.767 33.995 49.697 33.926 49.697 33.731 C 49.697 33.523 49.781 33.439 49.989 33.439 C 50.336 33.439 50.294 33.898 49.933 33.967 Z" fill="#0F0F0F"></path></svg>