<svg xmlns="http://www.w3.org/2000/svg" xmlns:xlink="http://www.w3.org/1999/xlink" viewBox="0 0 134.382 18"><path d="M 5.741 0.205 C 4.711 0.466 3.424 1.123 2.745 1.736 C 2.446 2.007 2 2.637 1.753 3.138 C 1.347 3.963 1.305 4.163 1.307 5.287 C 1.309 6.289 1.371 6.664 1.632 7.245 C 2.279 8.686 3.787 9.632 6.741 10.451 C 9.727 11.278 10.443 11.712 10.443 12.694 C 10.443 13.569 9.669 14.045 8.244 14.047 C 6.63 14.049 4.704 13.369 2.869 12.149 C 2.341 11.798 1.888 11.533 1.863 11.561 C 1.838 11.588 1.434 12.377 0.966 13.314 L 0.115 15.018 L 0.504 15.332 C 1.174 15.872 3.181 16.859 4.358 17.228 C 4.979 17.422 6.162 17.656 6.987 17.747 C 10.572 18.146 13.669 16.892 14.804 14.582 C 15.141 13.894 15.183 13.657 15.183 12.435 C 15.183 11.218 15.14 10.974 14.81 10.301 C 14.124 8.904 12.903 8.094 10.237 7.266 C 7.537 6.427 6.954 6.2 6.553 5.828 C 5.861 5.187 5.946 4.286 6.737 3.886 C 7.646 3.426 9.985 3.87 12.309 4.944 C 12.969 5.249 13.529 5.478 13.554 5.454 C 13.735 5.273 15.208 1.967 15.15 1.871 C 15.009 1.64 12.839 0.705 11.748 0.406 C 10.318 0.014 6.943 -0.099 5.741 0.205 Z M 24.664 0.131 C 23.483 0.32 22.777 0.556 21.648 1.142 C 19.563 2.223 17.856 4.387 17.239 6.733 C 16.932 7.903 16.93 9.957 17.237 11.118 C 18.492 15.872 23.226 18.7 28.031 17.565 C 30.876 16.893 33.557 14.305 34.408 11.409 C 35.005 9.376 34.776 7.032 33.776 4.954 C 32.741 2.802 30.467 0.942 28.159 0.359 C 27.141 0.102 25.513 -0.004 24.664 0.131 Z M 75.123 0.215 C 72.418 0.871 70.791 2.591 70.655 4.939 C 70.487 7.832 71.884 9.236 76.14 10.457 C 77.226 10.769 78.379 11.148 78.701 11.299 C 79.845 11.837 80.147 12.704 79.454 13.464 C 78.397 14.625 75.15 14.053 72.322 12.206 C 71.75 11.833 71.265 11.546 71.244 11.569 C 71.224 11.592 70.822 12.381 70.352 13.322 L 69.496 15.034 L 69.889 15.35 C 70.54 15.874 72.545 16.849 73.749 17.227 C 77.92 18.535 82.308 17.614 83.896 15.097 C 84.718 13.796 84.855 11.737 84.211 10.365 C 83.503 8.857 82.096 7.983 78.802 7.007 C 76.092 6.205 75.435 5.782 75.435 4.842 C 75.435 3.805 76.903 3.435 78.954 3.955 C 79.841 4.18 80.843 4.568 82.789 5.439 C 83.009 5.537 84.649 1.963 84.456 1.808 C 83.814 1.294 81.645 0.485 80.129 0.194 C 78.863 -0.05 76.167 -0.038 75.123 0.215 Z M 93.875 0.151 C 90.614 0.643 87.788 3.058 86.749 6.241 C 86.452 7.152 86.385 7.622 86.376 8.863 C 86.363 10.613 86.669 11.836 87.492 13.328 C 88.124 14.472 89.68 16.029 90.824 16.66 C 93.585 18.183 96.853 18.192 99.574 16.682 C 102.695 14.951 104.538 11.235 104.012 7.735 C 103.271 2.801 98.748 -0.583 93.875 0.152 Z M 42.049 0.495 C 39.796 1.1 38.105 3.056 37.777 5.435 C 37.704 5.96 37.661 8.955 37.681 12.092 L 37.718 17.794 L 39.813 17.832 L 41.908 17.87 L 41.908 5.517 L 42.256 5.104 C 42.951 4.278 44.071 4.246 44.808 5.03 L 45.137 5.381 L 45.206 11.587 L 45.275 17.794 L 47.37 17.832 L 49.466 17.87 L 49.466 11.853 C 49.466 6.287 49.484 5.8 49.717 5.367 C 49.972 4.891 50.703 4.397 51.151 4.397 C 51.648 4.397 52.352 4.804 52.622 5.247 C 52.889 5.686 52.9 5.926 52.9 11.782 L 52.901 17.863 L 57.023 17.863 L 57.023 11.554 C 57.023 5.69 57.004 5.185 56.756 4.387 C 55.604 0.687 51.193 -0.854 47.931 1.304 L 47.394 1.659 L 46.609 1.178 C 45.216 0.323 43.593 0.08 42.049 0.495 Z M 60.458 9.069 L 60.458 17.863 L 64.992 17.863 L 64.992 0.275 L 60.458 0.275 Z M 111.47 0.478 C 109.934 0.911 108.871 1.7 107.986 3.064 C 107.091 4.444 107.038 4.929 107.038 11.813 L 107.038 17.87 L 109.134 17.832 L 111.229 17.794 L 111.26 11.683 C 111.294 4.831 111.246 5.151 112.316 4.62 C 112.753 4.403 112.917 4.386 113.346 4.514 C 113.627 4.598 114.007 4.828 114.191 5.024 L 114.527 5.381 L 114.565 11.622 L 114.604 17.863 L 118.855 17.863 L 118.856 11.782 C 118.856 5.926 118.866 5.686 119.133 5.247 C 119.404 4.804 120.108 4.397 120.605 4.397 C 121.053 4.397 121.784 4.891 122.039 5.367 C 122.271 5.8 122.29 6.287 122.29 11.849 L 122.29 17.863 L 126.412 17.863 L 126.411 11.645 C 126.409 6.818 126.367 5.269 126.221 4.72 C 125.438 1.782 122.499 -0.14 119.605 0.393 C 118.699 0.56 117.507 1.063 117.036 1.478 C 116.82 1.668 116.746 1.654 116.246 1.323 C 114.884 0.421 112.91 0.072 111.47 0.478 Z M 129.847 9.069 L 129.847 17.863 L 134.382 17.863 L 134.382 0.275 L 129.847 0.275 Z M 27.572 4.554 C 29.602 5.314 30.973 7.759 30.512 9.795 C 29.626 13.704 24.962 14.992 22.322 12.056 C 21.173 10.778 20.832 8.857 21.458 7.186 C 21.853 6.127 23.002 4.965 24.047 4.563 C 25.084 4.166 26.523 4.162 27.572 4.554 Z M 96.967 4.557 C 98.064 4.967 99.189 6.099 99.609 7.215 C 100.04 8.358 99.969 10.057 99.448 11.061 C 97.973 13.905 94.257 14.528 91.946 12.318 C 89.508 9.986 90.342 5.754 93.477 4.549 C 94.474 4.165 95.93 4.168 96.967 4.557 Z" fill="#0F0F0F"></path></svg>