<svg xmlns="http://www.w3.org/2000/svg" xmlns:xlink="http://www.w3.org/1999/xlink" viewBox="0 0 114 60"><path d="M 55.034 0.48 C 55.001 0.513 54.783 0.545 54.542 0.567 C 54.302 0.578 54.04 0.655 53.952 0.709 C 53.865 0.775 53.778 0.819 53.756 0.797 C 53.658 0.72 51.888 1.201 51.593 1.397 C 51.462 1.474 51.266 1.55 51.156 1.572 C 50.851 1.627 50.304 1.889 50.206 2.031 C 50.151 2.096 50.119 2.096 50.119 2.031 C 50.119 1.965 50.086 1.965 50.031 2.042 C 49.988 2.107 49.66 2.315 49.3 2.522 C 48.939 2.73 48.611 2.937 48.568 3.003 C 48.524 3.069 48.48 3.079 48.48 3.036 C 48.48 2.948 48.284 3.09 47.934 3.44 C 47.814 3.56 47.716 3.626 47.716 3.582 C 47.716 3.538 47.563 3.669 47.377 3.888 C 47.181 4.106 47.017 4.259 46.984 4.237 C 46.929 4.172 45.695 5.406 45.717 5.493 C 45.739 5.537 45.641 5.657 45.499 5.766 C 45.236 5.974 44.658 6.717 44.658 6.837 C 44.658 6.88 44.516 7.099 44.341 7.317 C 44.079 7.656 43.653 8.366 43.62 8.53 C 43.609 8.562 43.478 8.857 43.325 9.185 C 42.997 9.884 42.571 10.998 42.517 11.315 C 42.495 11.435 42.429 11.752 42.353 12.025 C 42.113 12.975 42.047 13.532 41.993 14.974 C 41.971 15.662 41.993 16.525 42.036 16.885 C 42.309 18.775 42.353 19.004 42.473 19.244 C 42.539 19.354 42.582 19.561 42.582 19.714 C 42.582 19.867 42.626 20.009 42.681 20.053 C 42.735 20.085 42.823 20.26 42.855 20.457 C 42.899 20.643 43.085 21.123 43.27 21.516 C 43.456 21.91 43.598 22.27 43.587 22.314 C 43.576 22.346 43.642 22.445 43.729 22.51 C 43.817 22.587 43.893 22.696 43.893 22.751 C 43.893 22.816 44.144 23.198 44.439 23.613 C 44.745 24.029 44.963 24.367 44.931 24.367 C 44.854 24.367 45.04 24.596 45.586 25.154 C 45.826 25.405 46.023 25.634 46.023 25.678 C 46.023 25.765 46.656 26.388 46.744 26.388 C 46.798 26.388 46.918 26.486 47.039 26.606 C 47.749 27.36 48.863 28.092 50.446 28.867 C 51.08 29.173 51.724 29.49 51.899 29.577 C 52.063 29.664 52.238 29.708 52.292 29.664 C 52.347 29.632 52.423 29.654 52.467 29.719 C 52.5 29.774 52.675 29.828 52.86 29.828 C 53.035 29.828 53.177 29.872 53.177 29.916 C 53.177 29.959 53.352 30.014 53.581 30.025 C 53.8 30.047 54.029 30.09 54.084 30.123 C 54.138 30.156 54.313 30.2 54.477 30.21 L 54.572 30.224 L 54.572 30.224 C 54.742 30.248 55 30.284 55.198 30.32 C 55.7 30.418 58.223 30.429 58.649 30.342 C 58.813 30.309 59.228 30.254 59.577 30.21 C 59.938 30.167 60.276 30.09 60.331 30.047 C 60.397 30.003 60.615 29.938 60.823 29.905 C 61.325 29.817 63.16 29.162 63.204 29.042 C 63.226 28.998 63.302 28.954 63.378 28.954 C 63.564 28.954 64.187 28.638 64.263 28.507 C 64.307 28.452 64.372 28.43 64.416 28.463 C 64.471 28.485 64.591 28.419 64.7 28.299 C 64.809 28.179 64.962 28.081 65.05 28.081 C 65.126 28.081 65.192 28.026 65.192 27.971 C 65.192 27.906 65.246 27.862 65.301 27.862 C 65.705 27.862 68.905 24.859 68.905 24.487 C 68.905 24.422 68.993 24.313 69.113 24.236 C 69.222 24.16 69.342 23.985 69.386 23.843 C 69.429 23.712 69.517 23.602 69.571 23.602 C 69.626 23.602 69.67 23.526 69.67 23.439 C 69.67 23.351 69.724 23.275 69.779 23.275 C 69.844 23.275 69.888 23.198 69.888 23.111 C 69.888 23.024 69.943 22.947 70.008 22.947 C 70.063 22.947 70.096 22.904 70.052 22.849 C 70.019 22.794 70.063 22.685 70.139 22.598 C 70.216 22.521 70.347 22.281 70.434 22.073 C 70.522 21.866 70.696 21.484 70.838 21.232 C 70.98 20.97 71.101 20.73 71.101 20.686 C 71.101 20.501 71.352 19.714 71.45 19.583 C 71.505 19.507 71.526 19.419 71.494 19.376 C 71.45 19.343 71.472 19.244 71.537 19.157 C 71.603 19.081 71.625 19.015 71.592 19.015 C 71.548 19.015 71.57 18.917 71.636 18.808 C 71.69 18.688 71.778 18.24 71.81 17.792 C 71.843 17.355 71.898 16.962 71.92 16.918 C 71.985 16.82 71.974 14.133 71.909 13.663 C 71.745 12.451 71.461 11.097 71.308 10.813 C 71.243 10.703 71.221 10.605 71.253 10.605 C 71.286 10.605 71.253 10.496 71.177 10.354 C 71.111 10.223 71.035 10.048 71.024 9.971 C 70.98 9.753 70.063 7.94 69.943 7.853 C 69.888 7.809 69.877 7.765 69.921 7.765 C 69.976 7.765 69.866 7.579 69.692 7.35 C 69.517 7.132 69.309 6.826 69.244 6.695 C 69.091 6.411 68.796 6.05 68.337 5.57 C 68.162 5.406 68.031 5.242 68.031 5.209 C 68.031 5.177 67.857 4.969 67.649 4.751 C 67.442 4.543 67.267 4.39 67.267 4.423 C 67.267 4.467 67.037 4.27 66.753 3.986 C 66.459 3.713 66.098 3.418 65.934 3.331 C 65.759 3.243 65.628 3.123 65.628 3.069 C 65.628 3.003 65.596 2.97 65.552 2.981 C 65.476 3.003 64.897 2.664 64.755 2.522 C 64.569 2.326 63.509 1.823 62.384 1.387 C 62.3 1.355 62.202 1.319 62.101 1.281 C 61.887 1.202 61.659 1.118 61.511 1.059 C 61.074 0.895 60.2 0.677 59.599 0.589 C 59.053 0.513 55.099 0.425 55.034 0.48 Z M 60.582 8.912 C 62.821 9.229 64.733 9.819 65.017 10.288 C 65.093 10.43 64.962 10.747 64.46 11.654 L 64.375 11.805 C 64.022 12.436 63.872 12.703 63.95 12.852 C 64.007 12.962 64.187 13.007 64.499 13.086 L 64.5 13.086 C 64.539 13.096 64.58 13.106 64.623 13.117 C 64.875 13.183 65.246 13.379 65.443 13.543 C 65.748 13.827 65.77 13.893 65.683 14.166 C 65.519 14.613 65.006 14.854 63.63 15.138 L 62.406 15.378 L 62.057 15.968 L 62.038 16.001 C 61.868 16.291 61.778 16.444 61.819 16.547 C 61.863 16.662 62.071 16.714 62.509 16.824 L 62.537 16.831 C 62.799 16.896 63.138 17.06 63.291 17.202 C 63.684 17.53 63.597 17.934 63.083 18.185 C 62.614 18.404 61.423 18.688 60.964 18.688 C 60.626 18.688 60.582 18.731 60.047 19.791 C 59.752 20.402 59.523 20.927 59.556 20.959 C 59.588 20.992 59.807 20.959 60.036 20.894 C 60.386 20.785 60.451 20.719 60.44 20.468 C 60.44 20.238 60.495 20.151 60.67 20.129 C 60.986 20.086 61.5 20.512 61.456 20.806 C 61.412 21.112 60.418 21.604 59.621 21.713 L 59.02 21.8 L 58.201 23.406 C 57.753 24.291 57.316 25.044 57.251 25.077 C 56.956 25.186 56.803 24.968 56.017 23.395 L 55.208 21.768 L 54.619 21.691 C 52.489 21.429 51.921 20.522 53.57 20.042 C 53.898 19.955 54.16 19.845 54.16 19.823 C 54.16 19.78 53.734 18.895 53.679 18.83 C 53.668 18.819 53.166 18.731 52.554 18.644 C 51.233 18.447 50.708 18.251 50.545 17.879 C 50.304 17.355 50.665 17.027 51.801 16.732 L 52.5 16.558 L 52.172 15.99 C 51.899 15.498 51.79 15.411 51.451 15.356 C 49.605 15.061 48.579 14.712 48.338 14.308 C 48.164 14.013 48.349 13.576 48.731 13.379 C 48.917 13.27 49.387 13.117 49.758 13.019 L 50.424 12.844 L 49.769 11.664 C 49.409 11.02 49.147 10.419 49.179 10.332 C 49.398 9.742 51.964 9.032 54.826 8.748 C 56.202 8.617 59.064 8.704 60.582 8.912 Z M 0.75 37.255 L 0.75 39.549 L 1.121 39.549 C 1.471 39.549 1.525 39.494 1.875 38.861 C 2.334 38.052 3.055 37.201 3.491 36.982 C 3.655 36.895 3.972 36.818 4.191 36.818 L 4.573 36.818 L 4.573 40.718 C 4.573 45.36 4.485 46.233 3.841 48.199 C 3.786 48.385 3.95 48.396 6.266 48.396 C 8.581 48.396 8.745 48.385 8.669 48.199 C 8.079 46.79 7.959 45.567 7.959 40.936 L 7.959 36.818 L 8.374 36.818 C 9.193 36.818 10.165 37.703 10.809 39.025 C 11.039 39.516 11.093 39.549 11.476 39.549 L 11.891 39.549 L 11.891 37.255 L 11.891 34.961 L 6.32 34.961 L 0.75 34.961 Z M 58.147 35.213 C 57.852 35.355 57.033 35.661 56.345 35.902 C 55.996 36.018 55.676 36.128 55.441 36.209 L 55.44 36.21 L 55.44 36.21 L 55.439 36.21 C 55.212 36.288 55.067 36.338 55.056 36.338 C 55.034 36.349 55.111 36.644 55.22 36.994 C 55.395 37.573 55.416 38.108 55.416 42.335 C 55.416 46.496 55.395 47.097 55.231 47.654 C 55.122 47.993 55.034 48.32 55.034 48.386 C 55.034 48.473 55.711 48.506 57.219 48.506 C 58.89 48.506 59.403 48.473 59.403 48.364 C 59.403 48.298 59.305 47.938 59.185 47.588 C 58.977 46.977 58.966 46.627 58.966 40.948 C 58.966 36.229 58.933 34.962 58.835 34.962 C 58.759 34.962 58.453 35.082 58.147 35.213 Z M 109.809 36.087 C 110.028 35.563 110.268 35.3 110.683 35.115 C 111.142 34.907 111.928 34.929 112.376 35.158 C 112.977 35.453 113.25 35.967 113.25 36.764 C 113.25 37.966 112.562 38.61 111.36 38.533 C 110.629 38.49 110.257 38.26 109.897 37.627 C 109.602 37.124 109.58 36.633 109.809 36.087 Z M 112.758 36.753 C 112.758 36.316 112.704 36.207 112.354 35.879 C 112.027 35.584 111.852 35.508 111.502 35.508 C 111.153 35.508 110.978 35.584 110.65 35.879 C 110.29 36.207 110.246 36.316 110.246 36.764 C 110.246 37.212 110.29 37.321 110.65 37.649 C 111.109 38.064 111.721 38.151 112.114 37.856 C 112.321 37.704 112.311 37.703 112.083 37.693 L 112.081 37.692 C 111.917 37.692 111.764 37.572 111.644 37.332 L 111.448 36.982 L 111.415 37.332 C 111.382 37.627 111.338 37.692 111.109 37.692 C 110.847 37.692 110.847 37.682 110.847 36.709 C 110.847 35.748 110.858 35.726 111.109 35.726 C 111.994 35.726 112.431 36.098 112.19 36.633 C 112.103 36.819 112.114 36.982 112.223 37.256 C 112.376 37.605 112.398 37.616 112.573 37.43 C 112.693 37.31 112.758 37.07 112.758 36.753 Z M 111.393 36.447 C 111.393 36.633 111.633 36.6 111.699 36.404 C 111.721 36.327 111.666 36.272 111.568 36.272 C 111.47 36.272 111.393 36.349 111.393 36.447 Z M 21.743 39.44 C 19.58 39.735 18.226 40.827 18.226 42.28 C 18.226 43.35 18.695 43.82 20.869 44.945 C 22.682 45.895 23.053 46.125 23.348 46.496 C 23.96 47.283 23.152 47.424 21.83 46.758 C 21.109 46.398 19.962 45.546 19.635 45.142 L 19.405 44.847 L 18.652 45.655 C 18.236 46.103 17.898 46.529 17.898 46.605 C 17.898 46.824 18.837 47.599 19.503 47.938 C 20.377 48.386 21.196 48.539 22.278 48.484 C 24.32 48.375 25.784 47.108 25.784 45.458 C 25.784 44.661 25.554 44.148 24.943 43.613 C 24.462 43.187 22.758 42.225 21.448 41.625 C 20.76 41.319 20.705 41.264 20.88 41.133 C 21.262 40.849 22.736 41.188 23.73 41.789 C 24.2 42.073 24.495 42.171 24.845 42.171 L 25.325 42.171 L 25.325 40.926 L 25.325 39.67 L 24.757 39.56 C 23.872 39.397 22.507 39.342 21.743 39.44 Z M 26.319 40.018 C 26.133 39.756 25.98 39.505 25.98 39.44 C 25.98 39.363 26.69 39.33 28.088 39.352 L 30.186 39.385 L 30.218 39.713 C 30.251 40.073 30.885 42.531 31.245 43.743 L 31.474 44.486 L 31.966 43.153 L 32.457 41.81 L 31.999 40.707 C 31.758 40.106 31.551 39.538 31.551 39.461 C 31.551 39.363 32.042 39.33 33.67 39.33 L 35.789 39.33 L 35.832 40.335 C 35.865 41.143 35.963 41.668 36.357 42.946 L 36.837 44.54 L 37.263 43.273 C 37.798 41.624 38.017 40.532 37.929 39.855 L 37.853 39.33 L 39.131 39.33 C 39.83 39.33 40.398 39.363 40.398 39.418 C 40.398 39.461 40.256 39.669 40.092 39.876 C 39.917 40.084 39.655 40.477 39.502 40.75 C 39.229 41.231 39.065 41.679 37.482 46.266 L 36.728 48.451 L 36.018 48.483 L 35.99 48.484 C 35.634 48.498 35.44 48.506 35.298 48.424 C 35.126 48.324 35.03 48.093 34.819 47.582 L 34.795 47.522 C 34.533 46.867 33.593 44.595 33.222 43.699 L 33.069 43.317 L 32.763 44.082 C 32.691 44.264 32.564 44.594 32.412 44.991 L 32.411 44.993 C 32.216 45.5 31.979 46.118 31.758 46.681 L 31.059 48.516 L 30.251 48.483 L 29.454 48.451 L 28.219 44.846 C 26.832 40.783 26.778 40.652 26.319 40.018 Z M 43.729 39.779 C 43.194 40.008 42.331 40.336 41.818 40.489 C 41.305 40.642 40.879 40.784 40.868 40.795 C 40.846 40.806 40.933 41.079 41.053 41.385 C 41.25 41.898 41.272 42.226 41.272 44.552 C 41.261 46.802 41.239 47.217 41.053 47.741 C 40.944 48.069 40.879 48.375 40.9 48.419 C 40.977 48.539 45.182 48.528 45.248 48.408 C 45.28 48.364 45.215 48.047 45.095 47.709 C 44.898 47.141 44.876 46.791 44.876 43.274 C 44.876 41.177 44.843 39.429 44.8 39.408 C 44.745 39.375 44.275 39.539 43.729 39.779 Z M 47.585 40.215 C 48.284 39.91 48.983 39.582 49.136 39.494 C 49.289 39.407 49.452 39.342 49.496 39.331 C 49.605 39.331 50.228 40.641 50.228 40.882 C 50.228 41.209 50.381 41.1 50.719 40.51 C 51.156 39.757 51.746 39.44 52.696 39.44 C 52.728 39.44 52.759 39.44 52.788 39.44 L 52.88 39.439 L 52.881 39.439 L 52.881 39.439 C 53.205 39.436 53.404 39.434 53.527 39.531 C 53.726 39.686 53.725 40.096 53.723 41.169 L 53.723 41.169 C 53.723 41.281 53.723 41.399 53.723 41.526 L 53.723 43.481 L 53.406 43.481 C 53.166 43.481 53.013 43.394 52.849 43.153 C 52.543 42.727 51.582 42.17 51.134 42.17 C 50.85 42.17 50.774 42.225 50.676 42.509 C 50.49 43.055 50.523 46.572 50.73 47.359 C 50.79 47.603 50.859 47.868 50.908 48.054 L 50.931 48.141 C 50.943 48.189 50.953 48.227 50.96 48.254 L 51.014 48.505 L 48.884 48.505 C 47.705 48.505 46.722 48.462 46.689 48.407 C 46.656 48.352 46.711 48.101 46.809 47.839 C 46.962 47.435 46.995 46.954 47.006 44.901 L 47.006 42.444 L 46.656 41.69 C 46.46 41.286 46.296 40.903 46.296 40.86 C 46.296 40.816 46.875 40.532 47.585 40.215 Z M 67.474 39.44 C 65.869 39.604 64.613 40.194 64.056 41.046 C 63.564 41.788 63.433 42.356 63.433 43.645 C 63.433 46.474 64.689 48.167 67.005 48.495 C 69.222 48.811 70.555 47.905 71.024 45.742 C 71.101 45.404 71.079 45.393 70.369 45.611 C 69.681 45.819 68.141 45.83 67.649 45.622 C 67.442 45.535 67.201 45.316 67.103 45.12 C 66.754 44.442 66.633 41.679 66.939 41.199 C 67.081 40.958 67.649 41.035 68.261 41.362 C 68.567 41.537 69.2 42.072 69.67 42.575 C 70.292 43.23 70.609 43.481 70.795 43.481 L 71.057 43.481 L 71.013 41.701 C 70.98 40.729 70.948 39.877 70.926 39.811 C 70.838 39.506 68.872 39.287 67.474 39.44 Z M 73.11 40.172 C 73.897 39.823 74.607 39.495 74.694 39.44 C 74.782 39.386 74.891 39.331 74.934 39.331 C 75.055 39.331 75.524 40.303 75.623 40.718 C 75.655 40.915 75.732 41.079 75.775 41.079 C 75.819 41.079 75.961 40.86 76.092 40.587 C 76.431 39.888 77.042 39.517 77.927 39.462 C 78.309 39.44 78.746 39.451 78.899 39.484 L 79.172 39.55 L 79.172 41.516 L 79.172 43.482 L 78.877 43.482 C 78.659 43.482 78.451 43.351 78.167 43.045 C 77.687 42.531 77.021 42.171 76.562 42.171 C 76.3 42.171 76.223 42.236 76.125 42.51 C 75.928 43.067 75.972 46.693 76.18 47.414 C 76.278 47.741 76.376 48.124 76.409 48.255 L 76.464 48.506 L 74.257 48.506 L 72.051 48.506 L 72.116 48.255 C 72.488 46.966 72.532 46.54 72.488 44.519 L 72.455 42.444 L 72.029 41.647 C 71.8 41.21 71.625 40.838 71.647 40.817 C 71.669 40.806 72.335 40.511 73.11 40.172 Z M 83.64 39.451 C 81.27 39.8 79.708 41.974 79.85 44.716 C 79.904 45.862 80.254 46.616 81.029 47.348 C 81.739 48.014 82.537 48.374 83.585 48.506 C 85.868 48.79 87.703 47.839 88.304 46.059 C 88.402 45.775 88.457 45.524 88.435 45.502 C 88.413 45.48 88.129 45.524 87.801 45.611 C 87.015 45.819 85.267 45.819 84.557 45.611 C 84.011 45.447 83.323 44.934 83.323 44.694 C 83.323 44.606 84.098 44.574 85.89 44.574 L 88.457 44.574 L 88.457 43.492 C 88.457 41.035 87.484 39.735 85.431 39.44 C 84.59 39.32 84.492 39.32 83.64 39.451 Z M 84.382 41.133 C 84.699 41.351 84.852 41.93 84.852 42.891 C 84.852 43.798 84.841 43.809 83.858 43.809 L 83.214 43.809 L 83.214 43.208 C 83.214 42.345 83.421 41.515 83.716 41.22 C 84.011 40.925 84.077 40.915 84.382 41.133 Z M 90.248 40.314 C 90.27 40.314 90.75 40.095 91.307 39.822 L 92.334 39.342 L 92.542 39.582 C 92.651 39.713 92.793 39.964 92.858 40.128 L 92.957 40.434 L 93.252 40.161 C 93.798 39.637 94.529 39.396 95.556 39.407 C 96.605 39.407 97.391 39.669 97.883 40.183 C 99.095 41.439 99.128 45.12 97.948 46.824 C 97.238 47.85 96.31 48.298 94.671 48.375 C 93.907 48.407 93.437 48.385 93.284 48.298 C 93.215 48.26 93.166 48.234 93.131 48.246 C 93.044 48.277 93.044 48.552 93.044 49.51 C 93.044 50.69 93.142 51.466 93.426 52.58 L 93.503 52.875 L 91.286 52.853 C 89.363 52.82 89.068 52.798 89.101 52.656 C 89.472 51.302 89.483 51.04 89.494 46.54 C 89.494 42.127 89.483 41.996 89.254 41.428 L 89.014 40.838 L 89.614 40.576 C 89.942 40.434 90.226 40.314 90.248 40.314 Z M 95.097 44.574 C 95.152 43.11 95.021 42.16 94.715 41.821 C 94.584 41.679 94.377 41.625 93.983 41.625 L 93.889 41.625 C 93.596 41.628 93.405 41.629 93.279 41.721 C 93.043 41.895 93.043 42.39 93.044 43.822 L 93.044 44.06 C 93.044 46.059 93.066 46.299 93.263 46.616 C 93.678 47.315 94.431 47.239 94.803 46.463 C 95.01 46.048 95.054 45.72 95.097 44.574 Z M 103.551 39.44 C 101.618 39.724 100.11 41.373 99.805 43.536 C 99.652 44.661 99.75 45.447 100.154 46.277 C 100.733 47.49 101.967 48.298 103.54 48.506 C 105.626 48.768 107.341 47.97 108.073 46.398 C 108.411 45.655 108.422 45.404 108.095 45.513 C 107.472 45.709 107.013 45.775 106.129 45.775 C 104.709 45.775 104.152 45.622 103.606 45.087 L 103.147 44.628 L 105.757 44.595 L 108.357 44.573 L 108.313 43.175 C 108.269 42.007 108.226 41.712 108.018 41.297 C 107.483 40.259 106.62 39.648 105.375 39.44 C 104.6 39.32 104.392 39.32 103.551 39.44 Z M 104.512 41.417 C 104.654 41.679 104.851 43.427 104.763 43.656 C 104.72 43.765 104.501 43.809 103.879 43.809 L 103.06 43.809 L 103.136 42.869 C 103.212 41.865 103.496 41.133 103.824 41.056 C 104.086 40.991 104.37 41.144 104.512 41.417 Z M 69.277 58.183 C 68.283 57.189 68.589 55.103 69.79 54.666 C 70.26 54.491 70.806 54.48 71.341 54.633 C 71.723 54.731 71.745 54.764 71.745 55.168 C 71.745 55.518 71.701 55.605 71.548 55.605 C 71.428 55.605 71.254 55.507 71.144 55.387 C 70.926 55.146 70.347 55.092 69.987 55.277 C 69.517 55.529 69.288 56.676 69.561 57.396 C 69.79 58.008 70.664 58.237 71.122 57.811 C 71.264 57.68 71.461 57.571 71.57 57.571 C 71.723 57.571 71.756 57.659 71.723 58.03 L 71.69 58.5 L 71.144 58.587 C 70.303 58.729 69.692 58.598 69.277 58.183 Z M 21.393 54.895 C 21.393 55.07 21.459 55.168 21.557 55.168 C 21.699 55.168 21.721 55.376 21.699 56.61 C 21.666 58.008 21.656 58.063 21.426 58.095 C 21.273 58.117 21.142 58.052 21.066 57.91 C 21 57.779 20.847 57.68 20.738 57.68 C 20.563 57.68 20.52 57.757 20.52 58.063 C 20.52 58.521 20.662 58.609 21.404 58.609 C 21.754 58.609 21.994 58.543 22.147 58.401 C 22.355 58.205 22.376 58.074 22.376 56.697 C 22.376 55.288 22.387 55.19 22.595 55.136 C 22.726 55.103 22.813 54.983 22.813 54.852 C 22.813 54.644 22.748 54.622 22.103 54.622 C 21.415 54.622 21.393 54.633 21.393 54.895 Z M 25.762 56.052 C 25.762 55.692 25.806 55.616 26.014 55.572 C 26.876 55.408 27.728 55.594 27.881 55.987 C 27.914 56.085 27.947 56.588 27.947 57.101 C 27.947 57.931 27.969 58.029 28.165 58.084 C 28.285 58.117 28.384 58.226 28.384 58.335 C 28.384 58.51 28.253 58.532 27.182 58.532 C 26.09 58.543 25.959 58.521 25.762 58.313 C 25.456 57.986 25.478 57.407 25.806 57.079 C 25.981 56.904 26.243 56.806 26.68 56.751 C 27.149 56.686 27.291 56.631 27.291 56.489 C 27.291 56.031 26.538 55.856 26.287 56.26 C 26.21 56.38 26.057 56.478 25.959 56.478 C 25.806 56.478 25.762 56.391 25.762 56.052 Z M 26.603 58.008 C 27.018 58.008 27.291 57.811 27.291 57.516 C 27.291 57.232 27.16 57.199 26.56 57.32 C 26.101 57.407 26.134 58.008 26.603 58.008 Z M 31.081 55.572 C 30.939 55.703 31.005 56.042 31.169 56.042 C 31.311 56.042 31.333 56.282 31.333 57.571 C 31.333 58.86 31.311 59.1 31.169 59.1 C 31.081 59.1 31.005 59.198 31.005 59.319 C 31.005 59.515 31.081 59.537 31.715 59.537 C 32.348 59.537 32.425 59.515 32.425 59.319 C 32.425 59.177 32.348 59.1 32.206 59.1 C 32.042 59.1 31.988 59.024 31.988 58.827 C 31.988 58.565 32.021 58.554 32.403 58.62 C 33.036 58.718 33.648 58.467 33.867 58.008 C 34.249 57.243 34.052 55.889 33.528 55.605 C 33.244 55.463 32.578 55.463 32.283 55.616 C 32.108 55.714 32.042 55.714 32.01 55.616 C 31.966 55.485 31.201 55.441 31.081 55.572 Z M 33.189 56.26 C 33.43 56.501 33.495 57.32 33.288 57.691 C 33.146 57.975 32.687 58.139 32.294 58.063 C 31.988 57.986 31.988 57.975 31.988 57.189 C 31.988 56.413 31.999 56.37 32.294 56.217 C 32.698 55.987 32.927 55.998 33.189 56.26 Z M 37.121 56.053 C 37.121 55.692 37.165 55.616 37.372 55.572 C 37.503 55.55 37.864 55.518 38.181 55.507 C 38.639 55.496 38.803 55.55 39.054 55.758 C 39.338 56.009 39.36 56.075 39.393 57.069 C 39.426 57.877 39.469 58.117 39.59 58.117 C 39.677 58.117 39.743 58.215 39.743 58.325 C 39.743 58.51 39.644 58.532 38.552 58.532 C 37.241 58.543 37.077 58.477 36.946 57.833 C 36.903 57.571 36.946 57.429 37.165 57.167 C 37.405 56.883 37.558 56.817 38.104 56.752 C 38.792 56.675 38.912 56.533 38.585 56.217 C 38.355 55.976 37.919 55.998 37.7 56.26 C 37.591 56.38 37.427 56.479 37.318 56.479 C 37.165 56.479 37.121 56.391 37.121 56.053 Z M 37.689 57.702 C 37.755 58.215 38.76 58.03 38.76 57.516 C 38.76 57.287 38.705 57.243 38.465 57.254 C 37.94 57.265 37.645 57.429 37.689 57.702 Z M 42.55 55.572 C 42.408 55.703 42.473 56.042 42.637 56.042 C 42.768 56.042 42.801 56.228 42.801 57.08 C 42.801 57.932 42.768 58.117 42.637 58.117 C 42.55 58.117 42.473 58.216 42.473 58.336 C 42.473 58.532 42.55 58.554 43.183 58.554 C 43.817 58.554 43.893 58.532 43.893 58.336 C 43.893 58.194 43.817 58.117 43.675 58.117 C 43.456 58.117 43.445 58.063 43.478 57.211 L 43.511 56.315 L 43.893 56.195 C 44.548 55.976 44.658 56.118 44.658 57.189 C 44.658 57.942 44.625 58.117 44.494 58.117 C 44.406 58.117 44.33 58.216 44.33 58.336 C 44.33 58.532 44.406 58.554 45.04 58.554 C 45.663 58.554 45.75 58.532 45.75 58.347 C 45.75 58.237 45.652 58.117 45.531 58.084 C 45.335 58.03 45.313 57.932 45.313 56.981 C 45.313 56.075 45.28 55.9 45.095 55.714 C 44.854 55.474 44.308 55.43 43.828 55.605 C 43.62 55.692 43.5 55.692 43.413 55.605 C 43.292 55.485 42.659 55.452 42.55 55.572 Z M 48.513 56.785 C 48.59 56.206 48.786 55.845 49.158 55.638 C 49.3 55.561 49.638 55.507 49.922 55.496 C 50.337 55.496 50.512 55.561 50.785 55.801 C 51.08 56.064 51.124 56.184 51.135 56.697 L 51.157 57.298 L 50.206 57.331 C 49.518 57.352 49.245 57.396 49.245 57.494 C 49.245 57.757 49.518 58.008 49.857 58.073 C 50.119 58.117 50.261 58.073 50.523 57.855 C 50.971 57.473 51.102 57.494 51.102 57.953 C 51.102 58.434 50.829 58.587 49.933 58.598 C 49.365 58.609 49.223 58.565 48.983 58.346 C 48.612 57.997 48.437 57.429 48.513 56.785 Z M 50.446 56.479 C 50.446 56.369 50.348 56.217 50.239 56.151 C 49.922 55.987 49.627 56.02 49.431 56.238 C 49.103 56.588 49.201 56.697 49.846 56.697 C 50.37 56.697 50.446 56.675 50.446 56.479 Z M 54.542 55.627 C 54.226 55.802 54.16 55.933 54.16 56.381 C 54.16 56.839 54.335 57.025 55.067 57.287 C 55.482 57.44 55.58 57.528 55.58 57.746 C 55.58 57.932 55.504 58.019 55.318 58.074 C 55.045 58.139 54.597 57.964 54.597 57.79 C 54.597 57.724 54.477 57.68 54.324 57.68 C 54.084 57.68 54.051 57.724 54.051 58.052 C 54.051 58.467 54.127 58.511 54.892 58.609 C 55.635 58.696 56.148 58.423 56.279 57.866 C 56.421 57.32 56.137 56.938 55.405 56.697 C 55.012 56.566 54.87 56.457 54.87 56.304 C 54.87 56.031 55.482 55.955 55.689 56.195 C 55.766 56.293 55.919 56.37 56.028 56.37 C 56.192 56.37 56.235 56.293 56.235 55.998 C 56.235 55.758 56.17 55.605 56.061 55.562 C 55.777 55.452 54.772 55.496 54.542 55.627 Z M 59.359 57.942 C 58.999 57.167 59.261 55.922 59.862 55.638 C 60.004 55.561 60.353 55.507 60.637 55.507 C 61.336 55.496 61.741 55.867 61.85 56.621 C 61.893 56.905 61.893 57.178 61.861 57.243 C 61.828 57.298 61.38 57.352 60.867 57.352 C 60.19 57.352 59.949 57.385 59.949 57.494 C 59.949 57.757 60.222 58.008 60.572 58.073 C 60.856 58.128 60.976 58.084 61.205 57.855 C 61.609 57.451 61.806 57.484 61.806 57.953 C 61.806 58.423 61.544 58.587 60.714 58.598 C 59.96 58.609 59.6 58.434 59.359 57.942 Z M 60.55 56.697 C 61.194 56.697 61.315 56.555 60.976 56.217 C 60.747 55.987 60.353 55.998 60.135 56.238 C 59.807 56.588 59.906 56.697 60.55 56.697 Z M 74.661 55.572 C 74.498 55.736 74.585 56.042 74.803 56.042 C 75.011 56.042 75.022 56.118 75.022 57.08 C 75.022 58.041 75.011 58.117 74.803 58.117 C 74.661 58.117 74.585 58.194 74.585 58.336 C 74.585 58.532 74.661 58.554 75.295 58.554 C 75.928 58.554 76.005 58.532 76.005 58.336 C 76.005 58.216 75.928 58.117 75.841 58.117 C 75.71 58.117 75.677 57.953 75.677 57.298 L 75.677 56.479 L 76.169 56.359 C 76.628 56.239 76.66 56.217 76.66 55.867 C 76.66 55.441 76.442 55.376 76.016 55.671 C 75.776 55.845 75.754 55.845 75.655 55.671 C 75.557 55.496 74.814 55.419 74.661 55.572 Z M 79.336 57.418 C 79.238 56.774 79.434 56.119 79.838 55.78 C 80.232 55.452 80.952 55.398 81.466 55.66 C 81.826 55.846 82.056 56.424 81.99 56.971 L 81.957 57.298 L 81.007 57.331 C 79.948 57.364 79.806 57.484 80.341 57.899 C 80.701 58.183 81.215 58.128 81.455 57.79 C 81.706 57.429 81.903 57.517 81.903 57.997 L 81.903 58.434 L 81.302 58.565 C 80.21 58.805 79.478 58.39 79.336 57.418 Z M 80.701 56.697 C 81.378 56.697 81.444 56.61 81.105 56.173 C 80.876 55.889 80.046 56.173 80.046 56.544 C 80.046 56.665 80.199 56.697 80.701 56.697 Z M 84.929 55.572 C 84.787 55.703 84.852 56.042 85.016 56.042 C 85.158 56.042 85.18 56.282 85.18 57.571 C 85.18 58.86 85.158 59.1 85.016 59.1 C 84.929 59.1 84.852 59.198 84.852 59.319 C 84.852 59.515 84.929 59.537 85.507 59.537 C 86.086 59.537 86.163 59.515 86.163 59.319 C 86.163 59.198 86.086 59.1 85.999 59.1 C 85.901 59.1 85.835 59.002 85.835 58.849 C 85.835 58.63 85.89 58.609 86.49 58.609 C 87.233 58.598 87.594 58.357 87.812 57.702 C 87.954 57.265 87.888 56.282 87.681 55.955 C 87.419 55.529 86.72 55.376 86.119 55.605 C 85.944 55.671 85.824 55.671 85.78 55.605 C 85.704 55.485 85.038 55.452 84.929 55.572 Z M 87.026 56.326 C 87.626 57.091 87.015 58.281 86.13 58.052 C 85.846 57.986 85.835 57.964 85.835 57.178 C 85.835 56.413 85.846 56.37 86.141 56.217 C 86.567 55.976 86.774 56.009 87.026 56.326 Z M 91.088 55.998 C 91.22 55.835 91.427 55.649 91.558 55.605 C 91.919 55.452 92.585 55.485 92.923 55.66 C 93.306 55.846 93.502 56.315 93.459 56.872 L 93.426 57.298 L 92.476 57.331 C 91.919 57.353 91.514 57.407 91.514 57.473 C 91.514 57.528 91.646 57.702 91.798 57.866 C 92.017 58.085 92.137 58.128 92.421 58.074 C 92.618 58.041 92.836 57.91 92.923 57.79 C 93.175 57.429 93.371 57.517 93.371 57.997 C 93.371 58.192 93.371 58.3 93.32 58.371 C 93.256 58.458 93.113 58.488 92.792 58.554 C 92.039 58.729 91.394 58.565 91.088 58.128 C 90.761 57.67 90.761 56.413 91.088 55.998 Z M 92.825 56.61 C 92.825 56.566 92.749 56.413 92.65 56.282 C 92.443 55.977 92.028 55.966 91.733 56.261 C 91.383 56.61 91.471 56.697 92.17 56.697 C 92.53 56.697 92.825 56.665 92.825 56.61 Z M 50.949 10.168 C 51.32 10.026 53.374 9.622 54.269 9.524 C 56.53 9.272 60.08 9.447 62.188 9.917 C 63.007 10.092 63.357 10.277 62.876 10.277 C 62.406 10.277 60.757 10.802 59.971 11.195 C 58.966 11.708 58.016 12.418 57.328 13.204 L 56.749 13.86 L 55.864 12.953 C 54.783 11.85 53.69 11.195 52.161 10.714 C 51.55 10.518 50.971 10.332 50.883 10.31 C 50.763 10.266 50.774 10.234 50.949 10.168 Z M 63.28 10.9 C 61.008 11.216 58.791 12.418 57.568 14.012 C 57 14.744 57.033 14.974 57.699 14.974 C 58.376 14.974 61.62 14.755 61.817 14.69 C 61.904 14.668 62.374 13.947 62.843 13.084 C 63.324 12.232 63.804 11.369 63.914 11.173 L 64.121 10.823 L 63.859 10.834 C 63.757 10.842 63.576 10.864 63.414 10.884 L 63.414 10.884 Z M 51.288 12.953 C 50.752 11.992 50.294 11.14 50.25 11.053 C 50.184 10.867 50.578 10.944 51.812 11.337 C 53.985 12.036 55.504 13.194 56.399 14.81 C 56.727 15.411 57.36 17.18 57.655 18.327 C 57.797 18.884 58.005 18.971 59.032 18.873 L 59.731 18.808 L 58.442 21.363 C 57.743 22.772 57.142 23.93 57.109 23.93 C 57.076 23.93 56.825 23.461 56.53 22.893 L 56.017 21.866 L 56.792 21.833 C 57.382 21.811 57.612 21.757 57.688 21.615 C 57.775 21.484 57.765 21.385 57.666 21.265 C 57.557 21.134 57.306 21.09 56.574 21.09 L 55.635 21.09 L 55.067 19.954 L 54.499 18.819 L 55.504 18.84 L 56.508 18.851 L 56.541 18.556 C 56.585 18.196 56.454 18.152 55.1 18.109 L 54.127 18.087 L 53.439 16.831 L 52.751 15.575 L 53.341 15.542 C 53.756 15.52 53.942 15.454 53.985 15.334 C 54.095 15.05 53.876 14.93 53.046 14.81 L 52.271 14.701 Z M 55.34 15.607 C 55.809 15.575 55.853 15.553 55.853 15.301 C 55.853 15.05 55.809 15.028 55.34 14.996 C 54.794 14.963 54.652 15.061 54.761 15.422 C 54.826 15.607 54.914 15.64 55.34 15.607 Z M 49.791 13.729 C 49.016 13.936 48.917 14.045 49.376 14.198 C 49.682 14.297 51.244 14.646 51.386 14.646 C 51.408 14.646 51.298 14.406 51.124 14.1 C 50.796 13.488 50.73 13.477 49.791 13.729 Z M 62.942 14.515 C 62.92 14.482 63.007 14.264 63.138 14.013 C 63.379 13.587 63.412 13.565 63.772 13.62 C 63.979 13.663 64.329 13.762 64.537 13.849 C 64.831 13.969 64.886 14.024 64.755 14.1 C 64.547 14.231 63.007 14.581 62.942 14.515 Z M 60.55 15.52 C 60.134 15.564 59.293 15.607 58.682 15.618 L 57.579 15.629 L 57.972 16.885 L 58.365 18.152 L 59.239 18.12 L 60.113 18.087 L 60.79 16.831 C 61.478 15.564 61.543 15.4 61.401 15.433 C 61.368 15.433 61.213 15.449 60.999 15.472 L 60.999 15.472 L 60.999 15.472 C 60.867 15.487 60.712 15.503 60.55 15.52 Z M 51.364 17.617 C 51.397 17.584 51.659 17.497 51.943 17.421 C 52.773 17.202 52.893 17.224 53.101 17.661 L 53.297 18.054 L 52.828 17.978 C 52.041 17.868 51.31 17.683 51.364 17.617 Z M 61.216 17.508 C 60.888 17.966 61.03 18.021 62.024 17.803 C 62.636 17.672 62.658 17.551 62.068 17.442 C 61.86 17.398 61.62 17.344 61.533 17.311 C 61.456 17.278 61.314 17.366 61.216 17.508 Z M 53.778 20.773 C 53.723 20.741 53.843 20.675 54.051 20.642 C 54.158 20.62 54.266 20.6 54.349 20.585 L 54.349 20.585 C 54.426 20.571 54.483 20.56 54.499 20.555 C 54.564 20.544 54.706 20.806 54.706 20.937 C 54.706 21.003 53.92 20.861 53.778 20.773 Z M 42.44 35.661 C 42.047 35.835 41.468 36.371 41.545 36.491 C 41.577 36.545 41.556 36.6 41.501 36.622 C 41.162 36.731 41.392 37.932 41.84 38.457 C 42.266 38.937 43.489 39.101 43.904 38.719 C 44.013 38.621 44.111 38.566 44.111 38.621 C 44.111 38.719 44.592 38.118 44.614 37.998 C 44.625 37.943 44.636 37.9 44.658 37.878 C 44.69 37.845 44.767 37.441 44.778 37.201 C 44.8 36.906 44.734 36.687 44.57 36.513 C 44.494 36.425 44.461 36.327 44.494 36.272 C 44.548 36.196 44.199 35.923 43.729 35.672 C 43.423 35.508 42.801 35.497 42.44 35.661 Z M 13.201 41.854 C 13.201 41.788 13.365 41.734 13.562 41.712 C 15.266 41.515 16.205 42.804 15.473 44.322 C 15.189 44.912 14.075 45.218 13.365 44.901 C 12.983 44.726 12.316 44.137 12.502 44.137 C 12.546 44.137 12.513 44.06 12.437 43.984 C 12.218 43.711 12.338 42.815 12.644 42.367 C 12.797 42.138 12.994 41.952 13.07 41.952 C 13.136 41.952 13.201 41.909 13.201 41.854 Z" fill="#0F0F0F"></path></svg>