<svg xmlns="http://www.w3.org/2000/svg" xmlns:xlink="http://www.w3.org/1999/xlink" viewBox="0 0 84 44"><path d="M 10.609 0.141 C 10.261 0.312 9.382 1.148 9.286 1.398 C 9.172 1.697 9.205 1.95 9.417 2.386 C 9.598 2.76 9.615 2.849 9.598 3.344 L 9.579 3.89 L 7.954 4.291 C 6.188 4.727 5.98 4.82 5.763 5.275 C 5.699 5.408 5.633 5.682 5.615 5.885 C 5.572 6.358 5.656 6.466 6.555 7.1 C 7.38 7.681 7.562 7.729 8.082 7.502 C 8.388 7.369 9.417 7.071 9.573 7.071 C 9.594 7.071 9.611 7.233 9.611 7.432 C 9.611 7.63 9.597 7.792 9.578 7.792 C 9.56 7.792 8.768 7.969 7.817 8.187 C 5.69 8.674 4.01 9.106 3.358 9.334 C 2.931 9.483 2.711 9.513 1.745 9.553 C 0.51 9.605 0.28 9.67 0.1 10.016 C -0.016 10.239 -0.031 10.714 0.07 10.979 C 0.16 11.216 0.395 11.462 0.889 11.838 C 1.106 12.003 1.417 12.255 1.58 12.397 C 1.987 12.752 2.388 12.921 2.726 12.883 C 2.874 12.866 3.588 12.63 4.312 12.359 C 5.036 12.087 5.969 11.758 6.386 11.627 C 6.802 11.495 7.22 11.362 7.315 11.332 L 7.486 11.275 L 7.455 11.71 C 7.414 12.298 7.521 12.673 7.766 12.8 C 7.871 12.854 7.974 12.924 7.994 12.956 C 8.014 12.989 7.771 13.094 7.455 13.191 C 6.613 13.449 6.53 13.487 6.358 13.691 C 6.153 13.933 5.901 14.683 5.96 14.878 C 6.017 15.069 6.844 15.91 6.976 15.912 C 7.286 15.915 7.22 16.034 6.733 16.352 C 6.451 16.535 6.058 16.824 5.859 16.995 C 5.66 17.165 5.39 17.372 5.258 17.455 C 5.127 17.537 4.957 17.684 4.88 17.781 C 4.636 18.09 4.668 18.202 5.42 19.625 C 5.499 19.775 5.774 19.905 6.011 19.905 C 6.084 19.905 6.274 19.981 6.434 20.074 C 6.9 20.346 7.398 20.309 8.777 19.902 C 9.137 19.795 9.467 19.708 9.511 19.708 C 9.57 19.708 9.603 20.084 9.635 21.132 C 9.706 23.398 9.77 23.915 9.945 23.621 C 10.084 23.387 10.138 23.519 10.138 24.091 C 10.138 24.413 10.17 24.759 10.208 24.86 C 10.351 25.237 10.879 25.646 11.123 25.569 C 11.3 25.513 11.345 25.374 11.385 24.75 C 11.405 24.444 11.451 24.194 11.488 24.196 C 11.524 24.197 11.574 24.359 11.599 24.557 C 11.686 25.253 11.828 25.416 12.094 25.126 C 12.287 24.916 12.392 24.683 12.662 23.866 C 13.085 22.584 13.11 22.425 13.148 20.712 L 13.182 19.13 L 13.915 18.947 C 14.421 18.821 14.822 18.764 15.211 18.762 C 15.73 18.759 15.798 18.774 16.067 18.954 C 16.297 19.108 16.429 19.149 16.688 19.146 C 17.274 19.14 17.897 19.038 18.103 18.914 C 18.324 18.78 18.329 18.77 18.621 17.87 C 18.795 17.332 18.814 17.209 18.755 16.996 C 18.631 16.55 17.844 15.847 16.989 15.42 C 16.54 15.196 16.092 15.212 15.72 15.466 C 15.569 15.569 15.334 15.651 15.106 15.679 C 14.903 15.704 14.441 15.796 14.079 15.883 C 13.717 15.97 13.399 16.042 13.372 16.042 C 13.345 16.042 13.324 15.784 13.324 15.469 C 13.325 15.154 13.312 14.852 13.296 14.798 C 13.273 14.724 13.329 14.694 13.521 14.679 C 13.82 14.654 13.951 14.744 13.829 14.89 C 13.703 15.041 13.808 15.139 14.045 15.089 C 14.159 15.066 14.608 14.934 15.043 14.798 C 15.477 14.661 15.917 14.53 16.019 14.507 C 16.258 14.453 16.829 13.887 16.961 13.575 C 17.016 13.443 17.063 13.179 17.065 12.987 C 17.068 12.573 16.923 12.349 16.382 11.936 C 15.952 11.607 15.571 11.496 15.079 11.557 L 14.713 11.602 L 15.252 11.051 C 15.884 10.406 15.965 10.19 15.768 9.684 C 15.734 9.596 15.82 9.567 16.307 9.502 C 18.192 9.249 18.83 9.28 19.572 9.658 C 20.128 9.943 20.526 9.963 20.986 9.73 C 21.472 9.484 21.828 8.926 21.771 8.5 C 21.731 8.209 21.125 7.109 20.729 6.611 C 20.249 6.007 19.459 5.775 18.587 5.983 C 18.339 6.042 17.248 6.251 16.162 6.447 C 15.075 6.643 13.994 6.848 13.759 6.904 C 13.144 7.048 13.166 7.058 13.166 6.623 L 13.166 6.239 L 13.753 6.156 C 14.115 6.104 14.486 6.091 14.724 6.122 C 15.306 6.197 15.827 6.18 16.037 6.08 C 16.164 6.019 16.332 5.807 16.546 5.435 C 16.815 4.968 16.861 4.841 16.833 4.635 C 16.775 4.204 16.515 3.78 15.984 3.248 L 15.468 2.731 L 15.025 2.771 C 14.781 2.793 14.293 2.881 13.94 2.968 C 13.587 3.054 13.298 3.115 13.298 3.103 C 13.298 3.092 13.354 2.941 13.422 2.769 C 13.729 1.989 13.658 1.649 13.076 1.11 C 11.941 0.059 11.293 -0.196 10.609 0.141 Z M 80.739 0.332 C 80.629 0.363 80.457 0.474 80.357 0.578 L 80.176 0.767 L 80.343 0.876 C 80.535 1 80.574 1.154 80.396 1.078 C 80.333 1.051 80.014 1.021 79.688 1.011 C 79.163 0.996 79.047 1.014 78.668 1.177 C 78.432 1.277 78.136 1.392 78.009 1.433 C 77.535 1.584 77.375 1.736 77.097 2.303 C 76.877 2.75 76.781 2.875 76.563 2.997 C 76.394 3.093 76.298 3.193 76.298 3.276 C 76.298 3.367 76.253 3.405 76.144 3.405 C 76.06 3.405 75.922 3.478 75.837 3.568 C 75.752 3.658 75.645 3.732 75.599 3.732 C 75.554 3.732 75.497 3.798 75.474 3.879 C 75.45 3.961 75.33 4.175 75.208 4.356 C 75.044 4.597 74.968 4.802 74.923 5.119 C 74.856 5.589 74.847 5.612 74.387 6.384 C 74.216 6.672 74.054 7.026 74.029 7.17 C 73.979 7.456 73.696 7.94 73.435 8.183 C 73.344 8.269 73.27 8.385 73.27 8.441 C 73.269 8.498 73.21 8.641 73.138 8.759 C 73.066 8.877 73.006 9.02 73.006 9.077 C 73.006 9.205 73.319 10.273 73.399 10.419 C 73.443 10.499 73.418 10.543 73.298 10.597 C 73.208 10.638 73.138 10.726 73.138 10.798 C 73.138 10.869 73.108 10.945 73.072 10.967 C 72.981 11.023 72.989 11.376 73.083 11.407 C 73.199 11.446 73.221 11.72 73.108 11.72 C 73.056 11.72 72.994 11.753 72.969 11.793 C 72.938 11.842 72.97 11.851 73.067 11.82 C 73.147 11.795 73.251 11.808 73.303 11.851 C 73.354 11.893 73.427 11.909 73.464 11.885 C 73.503 11.862 73.592 11.861 73.663 11.884 C 73.771 11.918 73.78 11.945 73.716 12.047 C 73.652 12.148 73.674 12.226 73.849 12.505 C 73.965 12.691 74.06 12.879 74.06 12.923 C 74.06 12.968 74.163 13.104 74.29 13.226 C 74.418 13.35 74.52 13.513 74.52 13.595 C 74.52 13.68 74.572 13.757 74.643 13.78 C 74.711 13.801 74.887 13.951 75.035 14.112 C 75.267 14.365 75.338 14.405 75.566 14.405 C 75.711 14.405 75.848 14.434 75.869 14.469 C 75.892 14.505 76.069 14.58 76.266 14.637 C 76.926 14.828 77.812 15.738 77.812 16.224 C 77.812 16.493 77.933 16.545 78.294 16.43 C 78.869 16.248 78.878 16.233 78.827 15.545 C 78.788 15.012 78.798 14.906 78.912 14.687 C 78.984 14.55 79.08 14.282 79.125 14.093 C 79.171 13.903 79.257 13.711 79.316 13.666 C 79.423 13.586 79.589 13.333 79.589 13.251 C 79.589 13.227 79.339 13.223 79.034 13.242 L 78.479 13.277 L 78.24 12.92 L 78.003 12.564 L 77.759 12.774 C 77.599 12.914 77.442 13.057 77.287 13.204 C 77.013 13.466 76.973 13.47 76.745 13.26 L 76.57 13.098 L 76.803 12.655 C 77.035 12.214 77.036 12.207 76.995 11.606 C 76.944 10.863 76.98 10.689 77.183 10.689 C 77.371 10.689 78.217 10.418 78.306 10.329 C 78.35 10.285 78.244 10.277 77.988 10.305 C 77.734 10.333 77.619 10.325 77.647 10.28 C 77.67 10.244 77.642 10.196 77.585 10.174 C 77.529 10.152 77.483 10.082 77.483 10.017 C 77.483 9.928 77.549 9.893 77.763 9.869 C 77.917 9.851 78.107 9.816 78.186 9.79 C 78.295 9.755 78.375 9.786 78.505 9.916 C 78.601 10.011 78.665 10.127 78.647 10.174 C 78.627 10.226 78.707 10.291 78.855 10.344 C 79.15 10.45 79.392 10.602 79.392 10.682 C 79.392 10.715 79.322 10.768 79.237 10.8 C 79.152 10.832 79.019 10.966 78.941 11.097 C 78.794 11.344 78.752 11.561 78.863 11.492 C 78.956 11.435 79.339 11.648 79.309 11.74 C 79.271 11.856 78.791 12.111 78.61 12.112 C 78.475 12.113 78.466 12.127 78.541 12.216 C 78.707 12.417 79.811 13.097 79.854 13.027 C 79.878 12.989 79.997 12.908 80.121 12.847 C 80.284 12.765 80.362 12.669 80.412 12.491 C 80.449 12.356 80.572 12.165 80.684 12.065 C 80.902 11.872 81.169 11.447 81.169 11.293 C 81.169 11.242 81.274 11.096 81.402 10.969 C 81.606 10.767 81.631 10.708 81.594 10.516 C 81.568 10.376 81.588 10.227 81.649 10.108 C 81.753 9.906 81.96 8.96 81.958 8.702 C 81.956 8.522 82.268 6.799 82.35 6.538 C 82.391 6.405 82.375 6.335 82.279 6.24 C 82.157 6.119 82.159 6.112 82.321 5.894 C 82.412 5.771 82.486 5.641 82.486 5.604 C 82.486 5.567 82.622 5.4 82.788 5.232 C 83.065 4.952 83.092 4.897 83.117 4.543 C 83.138 4.246 83.176 4.134 83.285 4.052 C 83.363 3.994 83.407 3.915 83.383 3.876 C 83.359 3.837 83.387 3.779 83.447 3.746 C 83.546 3.69 83.546 3.673 83.444 3.518 C 83.383 3.426 83.291 3.334 83.239 3.314 C 83.187 3.294 83.144 3.223 83.144 3.157 C 83.144 3.09 83.097 2.9 83.041 2.734 C 82.949 2.466 82.949 2.413 83.036 2.248 C 83.178 1.981 83.485 1.669 83.743 1.529 L 83.967 1.408 L 83.747 1.387 C 83.588 1.372 83.498 1.315 83.421 1.18 C 83.306 0.982 83.103 0.92 82.552 0.916 C 82.188 0.913 81.722 0.712 81.486 0.454 C 81.299 0.251 81.119 0.222 80.739 0.332 Z M 59.379 0.558 C 58.817 0.739 58.501 0.972 58.114 1.492 C 57.849 1.849 57.846 1.862 57.92 2.14 C 58.021 2.515 58.019 2.533 57.865 2.573 C 57.673 2.623 57.703 2.759 57.962 3.001 C 58.232 3.254 58.325 3.544 58.326 4.13 L 58.326 4.561 L 57.997 4.774 C 57.815 4.89 57.637 5.043 57.599 5.112 C 57.489 5.317 57.315 5.259 56.935 4.893 C 56.654 4.622 56.451 4.499 56.004 4.327 C 55.505 4.135 55.409 4.117 55.245 4.185 C 55.031 4.273 54.626 4.77 54.475 5.129 C 54.349 5.429 54.244 6.419 54.308 6.699 C 54.391 7.06 54.643 7.478 55.012 7.863 L 55.369 8.235 L 54.626 8.543 C 54.217 8.713 53.791 8.907 53.68 8.975 C 53.413 9.137 53.323 9.046 53.322 8.613 C 53.321 8.211 53.284 8.148 53.013 8.09 C 52.556 7.991 51.789 8.574 51.283 9.405 C 50.971 9.916 50.906 10.238 50.852 11.538 L 50.804 12.687 L 50.994 13.038 C 51.229 13.472 52.01 14.274 52.383 14.462 C 53.053 14.8 53.643 14.778 54.077 14.399 C 54.431 14.089 54.46 13.916 54.333 12.83 C 54.186 11.564 54.188 11.512 54.406 11.227 C 54.545 11.046 54.766 10.904 55.284 10.664 C 55.664 10.487 55.989 10.356 56.006 10.373 C 56.022 10.389 55.94 10.574 55.822 10.783 C 55.135 12.002 55.104 12.073 55.102 12.423 C 55.101 12.701 55.153 12.865 55.386 13.306 C 55.798 14.088 56.719 15.61 56.84 15.71 C 57.015 15.855 56.959 16.018 56.545 16.565 C 56.2 17.021 56.086 17.122 55.708 17.304 C 55.134 17.581 55.023 17.74 54.984 18.352 C 54.944 18.979 55.063 19.254 55.456 19.444 C 55.79 19.604 56.192 19.614 56.9 19.479 C 57.548 19.356 58.084 19.348 58.047 19.463 C 58.007 19.584 57.165 19.807 55.464 20.146 L 53.952 20.448 L 53.376 20.309 C 52.731 20.152 52.618 20.17 52.284 20.48 C 52.104 20.648 52.072 20.723 52.072 20.982 C 52.072 21.149 52.116 21.37 52.169 21.472 C 52.364 21.848 53.085 22.281 54.168 22.672 C 54.981 22.966 55.404 22.953 56.516 22.602 C 57.774 22.204 58.798 21.956 59.566 21.864 C 60.132 21.796 60.756 21.801 63.253 21.895 C 64.906 21.957 66.567 22.035 66.945 22.069 C 68.655 22.223 69.433 22.06 69.829 21.464 C 70.083 21.083 70.123 20.37 69.915 19.944 C 69.463 19.014 68.276 18.484 66.567 18.448 L 65.797 18.432 L 65.106 18.817 C 64.344 19.242 64.303 19.251 62.623 19.35 L 61.818 19.398 L 61.97 18.948 C 62.149 18.422 62.019 18.479 63.592 18.232 C 64.19 18.138 64.812 18.003 64.975 17.932 C 65.976 17.495 66.131 16.477 65.269 15.996 C 64.945 15.814 64.53 15.72 63.724 15.644 C 62.34 15.514 62.21 15.499 62.21 15.464 C 62.21 15.384 62.486 14.869 62.559 14.813 C 62.602 14.779 62.821 14.714 63.045 14.668 C 63.782 14.518 63.987 14.304 63.987 13.688 C 63.987 13.405 63.964 13.355 63.757 13.198 C 63.63 13.102 63.527 12.982 63.527 12.931 C 63.527 12.826 64.161 11.878 64.48 11.508 C 64.595 11.374 64.728 11.149 64.775 11.008 L 64.86 10.753 L 65.757 10.609 C 66.989 10.412 68.016 10.374 68.767 10.498 C 69.794 10.669 70.169 10.457 70.445 9.552 C 70.573 9.137 70.579 9.047 70.508 8.731 C 70.346 8.012 69.318 6.774 68.351 6.134 C 67.629 5.657 67.193 5.538 66.831 5.721 C 66.733 5.77 66.372 5.831 66.028 5.856 C 65.446 5.898 63.702 6.114 63.329 6.19 L 63.165 6.224 L 63.329 6.088 C 63.53 5.923 65.305 5.026 65.654 4.914 C 65.792 4.869 66.026 4.718 66.173 4.578 C 66.438 4.327 66.442 4.319 66.404 3.96 C 66.339 3.334 65.955 2.839 65.334 2.581 C 65.039 2.458 64.086 2.292 63.691 2.293 C 63.454 2.294 63.249 2.37 62.737 2.647 C 62.323 2.87 62.3 2.856 62.329 2.402 L 62.355 1.989 L 62.003 1.673 C 61.319 1.06 60.262 0.389 59.99 0.396 C 59.926 0.398 59.651 0.47 59.379 0.558 Z M 40.618 1.548 C 40.274 1.715 39.311 2.159 38.478 2.537 C 35.706 3.792 35.974 3.692 35.351 3.708 C 35.043 3.716 34.741 3.724 34.679 3.727 C 34.616 3.73 34.465 3.82 34.342 3.928 L 34.118 4.123 L 34.003 3.813 C 33.871 3.457 33.447 2.713 33.151 2.316 C 32.693 1.704 32.187 1.583 31.133 1.834 C 30.484 1.988 29.762 2.03 29.345 1.937 C 29.012 1.863 28.74 1.983 28.606 2.263 C 28.427 2.639 28.342 3.445 28.435 3.884 C 28.507 4.225 28.57 4.321 29.034 4.812 C 29.32 5.113 29.572 5.434 29.595 5.524 C 29.651 5.747 29.413 6.166 28.799 6.927 C 28.528 7.261 28.307 7.591 28.307 7.659 C 28.307 8.006 28.757 7.853 30.611 6.876 C 31.591 6.36 32.003 6.183 32.718 5.97 C 33.873 5.627 33.928 5.605 34.08 5.413 L 34.208 5.251 L 34.434 5.522 C 35.116 6.341 35.344 6.531 35.783 6.649 C 36.33 6.797 36.38 6.859 36.173 7.139 C 36.083 7.26 36.009 7.393 36.009 7.434 C 36.009 7.476 35.891 7.692 35.746 7.915 C 35.382 8.476 35.168 8.91 35.092 9.243 C 35.021 9.558 35.235 12.432 35.358 12.816 C 35.396 12.932 35.515 13.097 35.624 13.181 L 35.821 13.335 L 35.471 13.597 C 34.929 14.004 34.712 14.115 33.982 14.361 C 33.609 14.487 33.236 14.635 33.153 14.689 C 32.763 14.943 32.616 15.78 32.758 16.931 C 32.937 18.37 33.435 20.355 33.815 21.139 C 34.151 21.832 35.107 22.551 35.801 22.633 C 36.378 22.701 36.731 22.504 36.898 22.022 C 36.945 21.885 37.024 21.752 37.073 21.727 C 37.122 21.703 37.701 21.601 38.359 21.502 C 39.381 21.349 39.596 21.334 39.822 21.401 C 40.144 21.497 40.503 21.845 40.776 22.327 C 41.023 22.762 41.311 22.921 41.934 22.966 C 42.348 22.995 42.375 22.987 42.768 22.725 C 43.198 22.439 43.772 21.861 44.103 21.382 C 44.456 20.873 45.079 19.161 45.491 17.573 C 45.711 16.725 45.749 16.637 46.059 16.275 C 46.348 15.938 46.344 15.701 46.041 15.066 C 45.843 14.652 45.692 14.461 45.142 13.931 C 44.779 13.581 44.286 13.171 44.047 13.02 C 43.823 12.88 43.601 12.737 43.379 12.594 C 43.07 12.392 42.806 12.4 42.274 12.631 C 41.827 12.825 41.357 12.975 38.972 13.685 C 37.044 14.258 36.374 14.541 35.847 15.001 C 35.573 15.24 35.508 15.491 35.64 15.804 C 35.753 16.073 36.039 16.271 36.401 16.328 C 36.878 16.404 36.925 16.684 36.483 16.816 C 36.338 16.859 36.039 17.027 35.818 17.188 C 35.48 17.436 35.417 17.513 35.417 17.681 C 35.417 17.965 35.576 18.169 36 18.429 C 36.204 18.553 36.484 18.76 36.622 18.888 C 36.837 19.086 36.87 19.154 36.853 19.358 C 36.833 19.59 36.821 19.599 36.371 19.747 C 35.913 19.897 35.91 19.897 35.799 19.768 C 35.693 19.643 35.609 19.319 35.387 18.163 C 35.325 17.839 35.285 17.27 35.285 16.702 C 35.285 16.181 35.255 15.715 35.217 15.644 C 35.179 15.573 35.031 15.442 34.887 15.352 C 34.375 15.031 34.518 14.919 36.602 14.012 C 37.525 13.61 38.473 13.197 38.708 13.094 C 39.329 12.822 40.816 12.327 41.665 12.11 C 42.057 12.01 42.296 11.755 42.431 11.295 C 42.589 10.754 42.502 10.517 41.926 9.911 C 41.541 9.506 41.479 9.41 41.535 9.306 C 41.61 9.167 42.517 8.316 42.59 8.316 C 42.617 8.316 42.691 8.2 42.755 8.058 C 42.897 7.745 42.85 7.396 42.639 7.194 C 42.167 6.741 40.509 5.971 40.182 6.053 C 40.102 6.073 39.879 6.223 39.686 6.386 C 39.049 6.927 38.39 7.346 38.247 7.3 C 37.734 7.139 38.132 6.411 38.958 6 C 39.641 5.66 41.174 5.213 41.671 5.209 C 41.937 5.208 42.135 5.256 42.42 5.392 C 42.777 5.563 42.829 5.571 43.111 5.501 C 43.628 5.372 43.955 5.122 44.175 4.687 C 44.403 4.235 44.424 3.896 44.244 3.549 C 44.116 3.303 43.041 2.223 42.411 1.71 C 42.096 1.453 41.615 1.243 41.348 1.245 C 41.29 1.245 40.962 1.382 40.618 1.548 Z M 74.221 17.933 C 73.793 18.193 73.799 18.134 73.799 22.108 C 73.799 26.111 73.786 25.994 74.253 26.304 L 74.477 26.452 L 78.453 26.452 C 82.777 26.452 82.644 26.463 82.943 26.085 C 83.079 25.913 83.081 25.865 83.081 22.149 C 83.081 18.016 83.094 18.158 82.683 17.917 C 82.52 17.821 82.083 17.81 78.463 17.81 C 74.627 17.81 74.413 17.816 74.221 17.933 Z M 56.518 27.064 C 55.883 27.273 55.417 27.696 55.113 28.34 C 54.952 28.682 54.938 28.778 54.938 29.564 C 54.938 30.394 54.944 30.428 55.153 30.85 C 55.402 31.355 55.759 31.701 56.28 31.944 C 56.602 32.094 56.734 32.116 57.308 32.116 C 58.08 32.116 58.396 32.004 58.888 31.553 C 59.484 31.006 59.751 30.257 59.692 29.301 C 59.63 28.314 59.175 27.566 58.41 27.194 C 58.094 27.04 57.94 27.01 57.409 26.995 C 57.019 26.984 56.681 27.01 56.518 27.064 Z M 64.677 27.23 C 64.451 27.443 64.195 27.57 63.545 27.795 C 63.488 27.815 63.463 27.995 63.463 28.387 L 63.463 28.951 L 63.677 28.905 C 63.795 28.879 64.033 28.803 64.206 28.736 C 64.379 28.668 64.535 28.613 64.552 28.613 C 64.568 28.613 64.582 29.128 64.582 29.756 L 64.582 30.9 L 63.973 30.919 L 63.364 30.937 L 63.326 32.085 L 67.248 32.051 L 67.248 30.937 L 66.639 30.919 L 66.03 30.9 L 66.03 26.976 L 65.487 26.978 C 64.949 26.979 64.942 26.982 64.677 27.23 Z M 17.25 27.664 L 17.25 28.286 L 18.303 28.286 L 18.303 32.083 L 19.883 32.083 L 19.883 28.286 L 20.936 28.286 L 20.936 27.042 L 17.25 27.042 Z M 22.317 29.473 C 21.902 30.81 21.552 31.945 21.54 31.996 C 21.522 32.071 21.635 32.085 22.161 32.069 L 22.804 32.051 L 23.08 31.134 L 24.45 31.134 L 24.709 32.083 L 25.52 32.083 C 26.14 32.083 26.324 32.064 26.301 32.001 C 26.235 31.816 24.755 27.098 24.755 27.071 C 24.755 27.055 24.376 27.042 23.914 27.042 L 23.073 27.042 Z M 27.322 29.562 L 27.322 32.083 L 28.902 32.083 L 28.902 27.042 L 27.322 27.042 Z M 29.904 27.124 C 29.92 27.169 30.225 28.304 30.582 29.646 L 31.23 32.088 L 32.614 32.051 L 32.927 30.75 C 33.099 30.035 33.25 29.439 33.263 29.427 C 33.275 29.414 33.4 29.867 33.539 30.433 C 33.679 30.998 33.834 31.601 33.885 31.772 L 33.976 32.083 L 34.627 32.083 C 35.191 32.083 35.283 32.068 35.313 31.969 C 35.406 31.652 36.604 27.121 36.604 27.084 C 36.604 27.061 36.339 27.042 36.015 27.042 L 35.425 27.042 L 35.361 27.273 C 35.326 27.401 35.17 28.037 35.015 28.688 C 34.86 29.339 34.719 29.831 34.702 29.782 C 34.685 29.733 34.518 29.104 34.331 28.384 L 33.991 27.074 L 33.366 27.056 L 32.742 27.037 L 32.526 27.94 C 32.408 28.436 32.264 29.041 32.207 29.284 C 32.149 29.527 32.084 29.726 32.061 29.726 C 32.038 29.726 31.874 29.122 31.696 28.384 L 31.372 27.042 L 30.624 27.042 C 30.053 27.042 29.882 27.061 29.904 27.124 Z M 36.806 29.448 C 36.395 30.771 36.045 31.907 36.027 31.971 C 35.998 32.079 36.048 32.087 36.641 32.069 L 37.287 32.051 L 37.563 31.134 L 38.932 31.134 L 39.191 32.083 L 40.811 32.083 L 40.75 31.903 C 40.615 31.502 39.237 27.104 39.237 27.074 C 39.237 27.056 38.858 27.042 38.395 27.042 L 37.553 27.042 Z M 41.36 29.544 L 41.377 32.051 L 42.67 32.088 L 42.628 29.091 L 42.866 29.523 C 42.997 29.761 43.399 30.427 43.761 31.003 L 44.417 32.051 L 45.689 32.088 L 45.689 27.042 L 44.424 27.042 L 44.448 28.342 L 44.471 29.642 L 44.226 29.209 C 44.092 28.971 43.734 28.394 43.432 27.926 L 42.882 27.074 L 41.342 27.037 Z M 49.507 29.562 L 49.507 32.083 L 50.762 32.083 L 50.744 30.577 C 50.733 29.749 50.732 29.071 50.74 29.071 C 50.748 29.071 50.819 29.197 50.896 29.35 C 50.974 29.503 51.38 30.18 51.798 30.856 L 52.559 32.083 L 53.852 32.083 L 53.852 27.042 L 52.535 27.042 L 52.539 27.909 C 52.54 28.386 52.565 28.981 52.593 29.231 C 52.621 29.481 52.619 29.643 52.589 29.591 C 52.541 29.507 51.245 27.44 51.063 27.156 C 51 27.058 50.882 27.042 50.248 27.042 L 49.507 27.042 Z M 1.187 29.53 L 1.187 30.054 L 7.672 30.067 C 11.238 30.074 14.282 30.082 14.436 30.083 L 14.715 30.086 L 14.734 29.589 L 14.753 29.093 L 12.628 29.049 C 11.459 29.026 8.406 29.006 5.845 29.006 L 1.187 29.006 L 1.187 29.53 Z M 69.717 29.53 L 69.717 30.054 L 76.201 30.067 C 79.767 30.074 82.811 30.082 82.965 30.083 L 83.245 30.086 L 83.264 29.589 L 83.283 29.093 L 81.158 29.049 C 79.989 29.026 76.936 29.006 74.375 29.006 L 69.717 29.006 Z M 60.632 31.396 L 60.632 32.083 L 62.081 32.083 L 62.081 30.708 L 60.632 30.708 Z M 26.4 35.846 C 24.794 36.201 23.736 37.163 23.332 38.636 C 23.173 39.217 23.174 40.534 23.333 41.119 C 23.713 42.512 24.723 43.459 26.236 43.842 C 26.794 43.983 28.375 44.002 29.034 43.875 C 29.594 43.767 30.607 43.442 30.795 43.311 L 30.943 43.207 L 30.943 39.155 L 26.861 39.155 L 26.861 41.054 L 28.704 41.054 L 28.704 41.439 C 28.704 41.904 28.701 41.907 27.878 41.953 C 27.073 41.999 26.627 41.871 26.24 41.486 C 25.853 41.102 25.713 40.674 25.711 39.875 C 25.709 39.324 25.73 39.21 25.894 38.878 C 26.436 37.78 27.838 37.533 29.508 38.239 C 29.765 38.348 29.987 38.425 30.002 38.41 C 30.039 38.373 30.745 36.516 30.745 36.455 C 30.745 36.359 30.184 36.126 29.567 35.967 C 28.761 35.759 27.085 35.695 26.4 35.846 Z M 79.098 35.787 C 79.025 35.803 78.803 35.848 78.604 35.887 C 78.405 35.925 77.971 36.086 77.64 36.244 C 76.249 36.909 75.554 38.118 75.554 39.875 C 75.554 40.749 75.664 41.254 76.004 41.945 C 76.437 42.827 77.427 43.562 78.538 43.827 C 79.839 44.137 81.645 43.962 82.96 43.4 L 83.278 43.264 L 83.278 39.155 L 79.197 39.155 L 79.197 41.054 L 81.04 41.054 L 81.04 41.439 C 81.04 41.902 81.035 41.905 80.242 41.953 C 78.892 42.035 78.248 41.539 78.062 40.274 C 77.89 39.096 78.453 38.151 79.472 37.908 C 80.042 37.772 80.851 37.861 81.573 38.139 C 81.913 38.27 82.231 38.382 82.279 38.389 C 82.335 38.397 82.495 38.061 82.723 37.459 C 82.92 36.941 83.081 36.492 83.081 36.462 C 83.081 36.36 82.536 36.131 81.902 35.967 C 81.395 35.836 81.069 35.799 80.25 35.78 C 79.688 35.767 79.17 35.77 79.098 35.787 Z M 1.187 35.987 C 1.187 36.009 1.752 36.882 2.442 37.927 C 3.132 38.971 3.683 39.859 3.667 39.9 C 3.651 39.94 3.058 40.828 2.35 41.872 L 1.061 43.771 L 2.357 43.789 C 3.069 43.798 3.685 43.794 3.724 43.779 C 3.764 43.764 4.105 43.234 4.483 42.601 C 4.861 41.968 5.185 41.449 5.203 41.449 C 5.221 41.448 5.544 41.966 5.921 42.599 C 6.298 43.232 6.639 43.763 6.68 43.778 C 6.72 43.794 7.353 43.798 8.085 43.789 L 9.416 43.771 L 8.076 41.772 L 6.736 39.774 L 8.038 37.86 L 9.34 35.946 L 6.6 35.946 L 5.968 36.978 C 5.621 37.545 5.312 38.047 5.281 38.093 C 5.242 38.151 5.02 37.827 4.572 37.063 L 3.919 35.948 L 2.553 35.947 C 1.802 35.947 1.187 35.965 1.187 35.987 Z M 10.272 39.875 L 10.272 43.804 L 12.773 43.804 L 12.773 35.946 L 10.272 35.946 Z M 14.222 39.877 L 14.222 43.807 L 16.559 43.771 L 16.624 39.481 L 18.002 41.675 L 19.38 43.869 L 22.056 43.869 L 22.056 35.946 L 19.687 35.946 L 19.67 38.108 L 19.653 40.269 L 16.954 35.952 L 15.588 35.949 L 14.222 35.946 Z M 33.971 39.875 L 33.971 43.804 L 36.407 43.804 L 36.407 41.056 L 39.204 41.021 L 39.204 39.057 L 36.407 39.021 L 36.407 37.911 L 39.961 37.911 L 39.961 35.946 L 33.971 35.946 Z M 41.015 38.68 C 41.016 40.754 41.037 41.493 41.104 41.741 C 41.319 42.541 41.839 43.195 42.537 43.546 C 43.638 44.099 45.475 44.127 46.594 43.608 C 47.378 43.245 47.989 42.493 48.221 41.607 C 48.303 41.293 48.322 40.742 48.322 38.584 L 48.322 35.946 L 45.898 35.946 L 45.873 38.516 C 45.847 41.313 45.841 41.36 45.462 41.708 C 45.31 41.847 45.208 41.875 44.778 41.894 C 44.336 41.913 44.245 41.897 44.046 41.763 C 43.922 41.679 43.759 41.507 43.684 41.381 C 43.555 41.162 43.548 41.038 43.53 38.549 L 43.511 35.946 L 41.015 35.946 Z M 50.692 36.961 L 50.692 37.976 L 53.062 37.976 L 53.062 43.804 L 55.563 43.804 L 55.563 37.976 L 57.933 37.976 L 57.933 35.946 L 50.692 35.946 Z M 59.231 38.156 C 58.811 39.372 58.201 41.14 57.874 42.085 L 57.28 43.804 L 59.755 43.804 L 59.986 43.067 L 60.218 42.33 L 62.856 42.295 L 63.11 43.033 L 63.365 43.771 L 64.599 43.789 C 65.278 43.798 65.833 43.788 65.833 43.764 C 65.833 43.73 63.513 36.866 63.262 36.159 L 63.187 35.946 L 59.994 35.946 L 59.231 38.156 Z M 66.557 39.875 L 66.557 43.804 L 68.925 43.804 L 68.943 41.635 L 68.96 39.467 L 70.342 41.668 L 71.724 43.869 L 74.391 43.869 L 74.391 35.946 L 72.087 35.946 L 72.087 38.107 C 72.087 39.296 72.064 40.267 72.038 40.267 C 72.011 40.266 71.381 39.294 70.639 38.107 L 69.289 35.949 L 66.557 35.946 Z M 57.933 28.674 C 58.021 28.99 58.016 30.058 57.925 30.419 C 57.833 30.781 57.609 30.97 57.272 30.97 C 57.076 30.97 56.988 30.928 56.856 30.772 C 56.648 30.527 56.584 30.238 56.584 29.562 C 56.585 28.724 56.791 28.227 57.176 28.137 C 57.495 28.062 57.828 28.298 57.933 28.674 Z M 40.406 2.105 C 40.377 2.192 39.129 2.742 38.95 2.747 C 38.669 2.754 38.928 2.575 39.569 2.318 C 40.306 2.023 40.445 1.987 40.406 2.105 Z M 23.763 28.679 C 23.785 28.679 23.872 28.936 23.957 29.251 C 24.042 29.567 24.125 29.861 24.142 29.906 C 24.165 29.966 24.065 29.988 23.768 29.988 C 23.414 29.988 23.368 29.974 23.397 29.874 C 23.415 29.811 23.496 29.516 23.576 29.219 C 23.656 28.922 23.74 28.679 23.763 28.679 Z M 38.255 28.725 C 38.281 28.754 38.368 29.011 38.448 29.297 C 38.528 29.584 38.608 29.856 38.626 29.903 C 38.651 29.967 38.559 29.988 38.253 29.988 C 37.897 29.988 37.85 29.974 37.88 29.874 C 37.898 29.811 37.979 29.515 38.06 29.217 C 38.14 28.918 38.228 28.697 38.255 28.725 Z M 61.584 37.791 C 61.594 37.803 61.773 38.387 61.982 39.089 C 62.191 39.792 62.374 40.388 62.389 40.415 C 62.405 40.442 62.034 40.464 61.564 40.464 L 60.711 40.464 L 60.796 40.186 C 60.842 40.033 61.034 39.427 61.223 38.839 C 61.411 38.251 61.574 37.779 61.584 37.791 Z M 78.027 18.071 L 78.374 18.071 C 78.623 18.071 78.733 18.1 78.76 18.17 C 78.79 18.248 78.942 18.269 79.507 18.276 C 80.358 18.285 80.603 18.329 80.632 18.479 C 80.652 18.58 80.562 18.593 79.744 18.61 C 78.876 18.627 78.834 18.634 78.815 18.766 C 78.798 18.885 78.838 18.91 79.104 18.946 C 79.274 18.969 79.69 18.988 80.029 18.988 C 80.588 18.988 80.645 18.999 80.645 19.111 C 80.645 19.225 80.574 19.237 79.758 19.261 C 79.178 19.277 78.842 19.314 78.79 19.366 C 78.654 19.501 78.829 19.599 79.261 19.63 C 79.584 19.653 79.657 19.68 79.657 19.774 C 79.657 19.868 79.584 19.894 79.261 19.918 C 78.829 19.949 78.654 20.046 78.79 20.181 C 78.842 20.233 79.178 20.27 79.758 20.287 C 80.56 20.31 80.645 20.324 80.645 20.431 C 80.645 20.538 80.561 20.551 79.76 20.571 C 79.164 20.585 78.846 20.619 78.792 20.674 C 78.62 20.845 78.85 20.911 79.739 20.949 C 80.455 20.979 80.612 21.003 80.612 21.083 C 80.612 21.164 80.457 21.187 79.743 21.214 C 79.175 21.236 78.845 21.275 78.792 21.329 C 78.615 21.505 78.848 21.57 79.758 21.597 L 80.645 21.622 L 80.65 21.893 C 80.652 22.042 80.659 22.656 80.666 23.257 C 80.675 24.05 80.701 24.374 80.763 24.435 C 80.92 24.592 80.971 24.354 80.979 23.44 C 80.988 22.459 81.025 22.24 81.191 22.208 C 81.293 22.189 81.303 22.293 81.303 23.426 L 81.303 24.666 L 81.089 24.726 C 80.785 24.811 80.629 25.132 80.665 25.601 C 80.68 25.799 80.715 26.013 80.742 26.076 C 80.783 26.172 80.755 26.19 80.57 26.191 L 80.349 26.191 L 80.369 24.963 C 80.389 23.723 80.343 23.242 80.201 23.195 C 80.063 23.149 80.025 23.51 80.025 24.865 L 80.024 26.19 L 79.721 26.19 L 79.738 24.54 L 79.756 22.89 L 80.031 22.822 C 80.383 22.734 80.446 22.667 80.287 22.551 C 80.195 22.485 79.959 22.458 79.455 22.458 C 78.864 22.458 78.743 22.476 78.709 22.565 C 78.644 22.733 78.795 22.851 79.073 22.851 L 79.328 22.851 L 79.328 23.686 C 79.329 24.145 79.348 24.896 79.372 25.356 L 79.415 26.19 L 79.065 26.19 L 79.065 24.889 C 79.065 23.431 79.035 23.162 78.875 23.193 C 78.732 23.22 78.662 24.152 78.715 25.323 L 78.754 26.19 L 78.22 26.19 L 78.222 24.824 C 78.224 23.102 78.186 23.005 77.452 22.875 C 77.201 22.83 77.213 22.825 77.683 22.77 C 78.211 22.708 78.315 22.658 78.253 22.495 C 78.223 22.418 78.116 22.393 77.821 22.393 C 77.606 22.393 77.383 22.375 77.326 22.353 C 77.122 22.276 77.301 22.196 77.681 22.196 C 77.893 22.196 78.114 22.179 78.171 22.157 C 78.302 22.107 78.307 21.942 78.178 21.893 C 78.093 21.861 78.094 21.844 78.182 21.756 C 78.326 21.613 78.21 21.523 77.83 21.479 C 77.549 21.447 77.516 21.426 77.497 21.263 C 77.477 21.094 77.491 21.083 77.739 21.083 C 78.058 21.083 78.209 21.031 78.209 20.92 C 78.209 20.791 77.981 20.758 77.069 20.757 L 76.226 20.756 L 76.246 20.576 L 76.267 20.396 L 77.188 20.377 C 78.104 20.359 78.313 20.31 78.153 20.15 C 78.099 20.096 77.764 20.057 77.169 20.036 C 76.296 20.004 76.267 19.998 76.246 19.856 C 76.226 19.712 76.241 19.708 76.872 19.701 C 77.687 19.691 77.869 19.65 78.022 19.446 C 78.196 19.214 78.245 18.693 78.124 18.35 Z M 81.068 18.071 C 81.175 18.071 81.237 18.108 81.237 18.17 C 81.237 18.272 81.314 18.283 82.159 18.295 C 82.541 18.3 82.587 18.315 82.587 18.432 C 82.587 18.554 82.537 18.564 81.835 18.581 C 81.422 18.591 81.062 18.577 81.036 18.548 C 81.01 18.52 80.968 18.401 80.943 18.284 C 80.901 18.088 80.911 18.071 81.068 18.071 Z M 75.214 18.285 C 75.841 18.3 75.873 18.308 75.893 18.448 C 75.914 18.594 75.906 18.595 75.12 18.595 C 74.469 18.595 74.325 18.578 74.325 18.5 C 74.325 18.448 74.377 18.375 74.44 18.337 C 74.505 18.299 74.847 18.276 75.214 18.285 Z M 76.997 18.268 C 77.535 18.268 77.695 18.29 77.781 18.375 C 77.84 18.434 77.864 18.506 77.835 18.535 C 77.793 18.576 76.756 18.62 76.317 18.599 C 76.23 18.595 76.203 18.387 76.278 18.312 C 76.302 18.287 76.626 18.268 76.997 18.268 Z M 82.817 19.076 L 82.817 19.294 L 81.945 19.265 C 81.465 19.249 81.047 19.212 81.016 19.183 C 80.871 19.049 81.085 18.988 81.719 18.982 C 82.087 18.978 82.463 18.951 82.554 18.923 C 82.811 18.841 82.817 18.844 82.817 19.076 Z M 75.115 18.988 L 75.905 18.988 L 75.905 19.381 L 75.242 19.381 C 74.533 19.381 74.325 19.321 74.325 19.117 C 74.325 18.996 74.374 18.988 75.115 18.988 Z M 76.234 18.988 L 77.02 18.988 C 77.864 18.988 78.018 19.046 77.752 19.261 C 77.628 19.36 77.484 19.381 76.918 19.381 L 76.234 19.381 Z M 74.128 19.527 L 74.375 19.615 C 74.51 19.663 74.897 19.704 75.232 19.705 C 75.725 19.708 75.851 19.728 75.883 19.811 C 75.904 19.867 75.897 19.939 75.864 19.97 C 75.833 20.001 75.429 20.036 74.967 20.047 L 74.128 20.068 Z M 82.768 19.589 C 82.795 19.583 82.817 19.669 82.817 19.781 C 82.817 19.939 82.794 19.975 82.713 19.945 C 82.656 19.923 82.478 19.905 82.318 19.905 C 82.074 19.905 82.027 19.884 82.027 19.777 C 82.027 19.67 82.083 19.646 82.373 19.626 C 82.563 19.612 82.741 19.596 82.768 19.589 Z M 80.846 19.643 C 81.588 19.643 81.632 19.65 81.632 19.774 C 81.632 19.897 81.588 19.905 80.846 19.905 C 80.097 19.905 79.923 19.864 80.02 19.708 C 80.043 19.671 80.393 19.643 80.846 19.643 Z M 82.669 20.245 C 82.79 20.235 82.817 20.265 82.817 20.412 L 82.817 20.592 L 81.978 20.572 C 81.057 20.551 80.95 20.533 80.991 20.412 C 81.009 20.356 81.254 20.319 81.769 20.294 C 82.183 20.275 82.588 20.252 82.669 20.245 Z M 74.128 20.359 L 75.872 20.396 L 75.893 20.576 L 75.914 20.756 L 75.125 20.756 C 74.691 20.756 74.289 20.774 74.232 20.796 C 74.149 20.827 74.128 20.788 74.128 20.597 Z M 82.669 20.9 C 82.79 20.889 82.817 20.92 82.817 21.067 L 82.817 21.247 L 81.978 21.228 C 81.06 21.207 80.95 21.189 80.991 21.067 C 81.009 21.011 81.254 20.974 81.769 20.949 C 82.183 20.929 82.588 20.907 82.669 20.9 Z M 74.232 21.044 C 74.289 21.065 74.409 21.083 74.5 21.083 C 74.639 21.083 74.66 21.11 74.642 21.263 C 74.624 21.42 74.589 21.446 74.375 21.464 C 74.13 21.484 74.128 21.481 74.128 21.244 C 74.128 21.052 74.149 21.012 74.232 21.044 Z M 75.396 21.083 L 75.721 21.083 L 75.517 21.315 C 75.301 21.559 75.272 21.64 75.376 21.704 C 75.417 21.729 75.417 21.802 75.376 21.908 C 75.247 22.246 75.323 23.113 75.481 23.113 C 75.617 23.113 75.656 22.885 75.632 22.24 L 75.609 21.64 L 76.089 21.384 L 76.346 21.561 C 76.488 21.658 76.636 21.738 76.675 21.738 C 76.839 21.738 76.812 21.53 76.62 21.312 L 76.418 21.083 L 76.751 21.083 C 77.078 21.083 77.085 21.088 77.149 21.32 C 77.186 21.451 77.266 21.613 77.328 21.68 C 77.436 21.8 77.424 21.804 76.886 21.808 C 76.043 21.816 75.741 21.875 75.741 22.032 C 75.741 22.174 76.001 22.247 76.563 22.263 C 76.999 22.275 76.702 22.382 76.216 22.388 C 75.934 22.392 75.825 22.42 75.796 22.495 C 75.731 22.664 75.858 22.724 76.37 22.767 C 76.838 22.806 76.864 22.901 76.41 22.912 C 76.297 22.915 76.149 22.991 76.032 23.108 L 75.839 23.299 L 75.839 24.745 C 75.839 26.078 75.83 26.19 75.724 26.191 C 75.618 26.191 75.61 26.103 75.627 25.127 C 75.645 24.045 75.601 23.782 75.43 23.952 C 75.368 24.014 75.346 24.321 75.346 25.114 L 75.346 26.191 L 75.156 26.191 C 74.98 26.19 74.97 26.177 75.008 25.986 C 75.031 25.873 75.049 25.317 75.049 24.749 L 75.049 23.717 L 75.361 23.66 C 75.573 23.621 75.68 23.567 75.694 23.492 C 75.712 23.404 75.649 23.372 75.391 23.338 L 75.066 23.295 L 75.036 22.58 C 75.006 21.85 74.932 21.632 74.77 21.793 C 74.72 21.844 74.68 22.138 74.665 22.585 L 74.64 23.297 L 74.384 23.321 C 74.167 23.342 74.128 23.327 74.128 23.22 C 74.128 23.151 74.178 23.058 74.238 23.014 C 74.328 22.948 74.348 22.829 74.342 22.369 C 74.334 21.809 74.335 21.804 74.497 21.804 C 74.704 21.804 74.983 21.53 74.983 21.326 C 74.983 21.241 75.003 21.151 75.028 21.127 C 75.051 21.103 75.217 21.083 75.396 21.083 Z M 82.669 21.555 C 82.797 21.543 82.817 21.573 82.817 21.772 C 82.817 22.002 82.817 22.003 82.655 21.898 C 82.524 21.812 82.349 21.796 81.732 21.814 C 81.083 21.833 80.973 21.822 80.989 21.738 C 81.004 21.66 81.164 21.632 81.765 21.604 C 82.181 21.584 82.588 21.562 82.669 21.555 Z M 81.813 22.209 C 81.9 22.225 81.929 22.295 81.929 22.492 C 81.929 22.709 81.907 22.753 81.797 22.753 C 81.702 22.753 81.659 22.702 81.644 22.567 C 81.632 22.465 81.64 22.338 81.66 22.284 C 81.681 22.231 81.75 22.197 81.813 22.209 Z M 82.534 22.278 C 82.563 22.323 82.601 22.829 82.62 23.402 C 82.644 24.154 82.676 24.452 82.735 24.472 C 82.78 24.487 82.817 24.581 82.817 24.682 L 82.817 24.865 L 82.587 24.761 L 82.357 24.657 L 82.357 23.427 C 82.357 22.272 82.389 22.057 82.534 22.278 Z M 76.785 23.254 C 76.894 23.339 76.764 23.419 76.5 23.429 C 76.141 23.443 76.124 23.261 76.481 23.231 C 76.617 23.22 76.754 23.23 76.785 23.254 Z M 81.781 23.19 C 81.9 23.207 81.933 23.26 81.949 23.457 C 81.967 23.682 81.956 23.702 81.801 23.702 C 81.648 23.702 81.632 23.678 81.632 23.436 C 81.632 23.197 81.648 23.172 81.781 23.19 Z M 77.551 23.244 C 77.781 23.244 77.883 23.269 77.866 23.321 C 77.83 23.426 77.274 23.431 77.238 23.326 C 77.218 23.267 77.308 23.244 77.551 23.244 Z M 74.502 23.677 C 74.643 23.715 74.647 23.744 74.667 24.937 C 74.678 25.608 74.684 26.166 74.68 26.175 C 74.677 26.185 74.602 26.167 74.515 26.135 C 74.361 26.078 74.358 26.061 74.35 25.234 C 74.337 23.852 74.336 23.833 74.226 23.833 C 74.172 23.833 74.128 23.789 74.128 23.735 C 74.128 23.632 74.259 23.612 74.502 23.677 Z M 76.514 23.715 C 76.668 23.726 76.794 23.765 76.794 23.801 C 76.794 23.837 76.668 23.875 76.514 23.886 C 76.292 23.902 76.234 23.885 76.234 23.801 C 76.234 23.717 76.292 23.699 76.514 23.715 Z M 77.595 23.702 C 77.804 23.702 77.88 23.728 77.88 23.801 C 77.88 23.873 77.804 23.899 77.588 23.899 C 77.309 23.899 77.176 23.835 77.267 23.744 C 77.291 23.721 77.438 23.702 77.595 23.702 Z M 81.949 24.44 C 81.967 24.664 81.956 24.685 81.801 24.685 C 81.653 24.685 81.632 24.657 81.632 24.466 C 81.632 24.346 81.653 24.227 81.678 24.202 C 81.794 24.087 81.929 24.206 81.949 24.44 Z M 76.558 24.239 L 76.794 24.259 L 76.814 24.701 C 76.837 25.252 76.725 25.286 76.662 24.747 C 76.625 24.428 76.594 24.354 76.507 24.371 C 76.286 24.413 76.263 25.596 76.475 26.01 C 76.566 26.189 76.565 26.19 76.351 26.191 L 76.136 26.191 L 76.157 25.291 C 76.17 24.774 76.21 24.354 76.251 24.305 C 76.292 24.256 76.421 24.228 76.558 24.239 Z M 77.222 24.226 L 77.52 24.226 C 77.7 24.226 77.829 24.259 77.846 24.308 C 77.861 24.353 77.882 24.795 77.893 25.29 L 77.913 26.191 L 77.697 26.191 C 77.483 26.19 77.482 26.189 77.576 26.009 C 77.673 25.823 77.72 25.307 77.696 24.699 C 77.687 24.451 77.653 24.342 77.577 24.313 C 77.425 24.255 77.355 24.407 77.354 24.799 C 77.354 24.988 77.324 25.143 77.288 25.143 C 77.25 25.143 77.222 24.946 77.222 24.685 Z M 81.336 25.077 C 81.588 25.077 81.632 25.097 81.632 25.208 C 81.632 25.32 81.588 25.339 81.336 25.339 C 81.084 25.339 81.04 25.32 81.04 25.208 C 81.04 25.097 81.084 25.077 81.336 25.077 Z M 82.307 25.09 C 82.51 25.105 82.592 25.141 82.607 25.225 C 82.626 25.32 82.58 25.339 82.328 25.339 C 82.068 25.339 82.027 25.321 82.027 25.205 C 82.027 25.087 82.062 25.072 82.307 25.09 Z M 77.02 25.536 C 77.331 25.536 77.353 25.547 77.353 25.698 C 77.353 25.815 77.309 25.872 77.195 25.9 C 76.899 25.974 76.73 25.911 76.707 25.716 C 76.687 25.54 76.695 25.536 77.02 25.536 Z M 81.632 25.867 C 81.632 25.971 81.586 25.994 81.377 25.994 C 81.231 25.994 81.087 25.952 81.041 25.897 C 80.948 25.785 81.001 25.753 81.336 25.716 C 81.588 25.689 81.632 25.711 81.632 25.867 Z M 82.332 25.732 C 82.58 25.732 82.626 25.751 82.607 25.847 C 82.592 25.928 82.511 25.967 82.331 25.982 C 82.065 26.004 81.915 25.925 81.991 25.803 C 82.016 25.764 82.169 25.732 82.332 25.732 Z M 79.12 3.014 C 79.212 3.164 79.251 3.181 79.391 3.13 C 79.742 3.001 80.026 3.361 79.722 3.55 C 79.595 3.629 79.596 3.635 79.769 3.772 L 79.947 3.913 L 79.702 4.281 C 79.513 4.564 79.418 4.649 79.292 4.649 C 79.202 4.649 79.128 4.673 79.128 4.704 C 79.128 4.734 79.34 4.947 79.599 5.178 C 79.858 5.409 80.126 5.657 80.196 5.729 C 80.321 5.859 80.32 5.86 80.157 5.88 C 80.066 5.892 79.886 5.872 79.758 5.837 C 79.617 5.798 79.509 5.797 79.487 5.833 C 79.426 5.931 79.351 5.902 79.268 5.746 C 78.996 5.238 78.999 5.239 78.997 5.644 C 78.997 5.963 78.973 6.035 78.837 6.135 L 78.677 6.253 L 78.881 6.428 C 79.074 6.594 79.079 6.611 78.983 6.756 C 78.895 6.89 78.895 6.921 78.978 6.998 C 79.038 7.054 79.057 7.139 79.029 7.227 C 79.005 7.303 78.968 7.454 78.948 7.562 C 78.915 7.739 78.922 7.75 79.02 7.669 C 79.08 7.62 79.128 7.513 79.128 7.432 C 79.128 7.272 79.218 7.176 79.425 7.113 C 79.524 7.083 79.584 7.122 79.671 7.274 C 79.735 7.385 79.787 7.501 79.787 7.534 C 79.787 7.566 79.64 7.676 79.46 7.778 L 79.133 7.964 L 79.459 8.205 C 79.773 8.439 80.313 9.05 80.313 9.173 C 80.313 9.255 79.544 9.248 79.387 9.164 C 79.317 9.127 79.26 9.031 79.26 8.952 C 79.259 8.795 79.031 8.381 78.946 8.381 C 78.917 8.381 78.913 8.565 78.937 8.79 C 78.989 9.263 78.885 9.486 78.573 9.569 C 78.407 9.613 78.353 9.581 78.059 9.26 L 77.729 8.901 L 77.504 9.034 C 77.165 9.233 77.161 9.198 77.487 8.856 C 77.65 8.685 77.841 8.471 77.913 8.381 L 78.042 8.217 L 77.899 8.337 C 77.785 8.433 77.729 8.442 77.619 8.384 C 77.544 8.344 77.483 8.282 77.483 8.248 C 77.483 8.154 77.733 7.923 77.834 7.923 C 77.883 7.923 77.974 7.866 78.037 7.797 C 78.147 7.677 78.145 7.67 77.998 7.65 C 77.896 7.635 77.837 7.577 77.823 7.477 C 77.796 7.289 77.928 7.123 78.068 7.167 C 78.19 7.206 78.675 6.934 78.557 6.894 C 78.514 6.879 78.38 6.915 78.261 6.974 L 78.042 7.081 L 78.254 6.909 C 78.44 6.758 78.457 6.721 78.386 6.605 C 78.318 6.494 78.326 6.457 78.442 6.362 C 78.558 6.267 78.567 6.226 78.505 6.074 C 78.465 5.976 78.348 5.809 78.245 5.702 C 78.059 5.509 78.057 5.508 77.8 5.61 C 77.487 5.735 77.411 5.692 77.662 5.531 C 77.762 5.466 77.968 5.314 78.118 5.192 L 78.391 4.971 L 78.253 4.649 L 78.116 4.326 L 77.998 4.52 C 77.843 4.773 77.607 4.779 77.443 4.534 L 77.322 4.354 L 77.278 4.551 C 77.254 4.659 77.231 4.971 77.227 5.244 C 77.22 5.653 77.195 5.763 77.087 5.861 C 77.014 5.926 76.944 5.967 76.931 5.953 C 76.847 5.86 76.693 5.487 76.72 5.444 C 76.816 5.289 76.874 4.342 76.808 3.992 C 76.719 3.515 76.819 3.208 77.063 3.208 C 77.15 3.208 77.351 3.147 77.511 3.072 C 77.904 2.889 78.087 2.922 78.165 3.192 C 78.211 3.352 78.263 3.405 78.375 3.405 C 78.635 3.405 78.716 3.344 78.683 3.172 C 78.666 3.084 78.685 2.972 78.725 2.924 C 78.84 2.786 79.003 2.823 79.12 3.014 Z M 61.96 3.339 L 62.2 3.34 C 62.69 3.342 62.707 3.516 62.271 4.091 C 62.134 4.272 61.984 4.508 61.938 4.616 L 61.855 4.813 L 61.83 4.622 C 61.815 4.518 61.839 4.186 61.882 3.886 Z M 58.293 5.229 L 58.312 5.765 C 58.323 6.06 58.317 6.316 58.299 6.334 C 58.281 6.352 58.119 6.331 57.938 6.287 L 57.608 6.209 L 57.951 5.719 Z M 57.315 6.199 C 57.364 6.151 57.621 6.49 57.888 6.954 L 58.065 7.263 L 57.866 7.365 C 57.67 7.466 57.667 7.466 57.667 7.298 C 57.667 7.202 57.639 7.147 57.601 7.17 C 57.565 7.192 57.536 7.164 57.536 7.108 C 57.536 7.052 57.476 6.896 57.404 6.761 C 57.272 6.516 57.235 6.279 57.315 6.199 Z M 32.797 6.729 C 32.947 6.799 33.308 7.139 33.728 7.607 C 34.299 8.244 34.426 8.425 34.491 8.695 C 34.626 9.252 34.44 9.509 33.404 10.199 C 32.949 10.502 32.611 10.858 32.479 11.173 C 32.374 11.422 32.357 11.982 32.453 11.982 C 32.489 11.982 32.678 11.842 32.872 11.671 C 33.777 10.877 34.377 10.395 34.472 10.387 C 34.656 10.371 34.73 10.575 34.636 10.835 C 34.517 11.161 33.698 12.636 32.897 13.966 L 32.223 15.085 L 32.223 17.544 C 32.223 19.828 32.232 20.019 32.347 20.229 C 32.565 20.626 32.558 21.147 32.324 22.065 C 32.022 23.244 31.912 23.47 31.553 23.643 C 30.968 23.924 30.408 23.709 29.664 22.918 C 29.173 22.397 29.162 22.346 29.162 20.623 L 29.162 19.111 L 28.775 19.622 C 28.417 20.094 28.022 20.475 27.685 20.672 C 27.499 20.781 27.022 20.776 26.806 20.663 C 26.13 20.31 25.344 18.926 25.344 18.09 C 25.344 17.431 25.797 16.688 27.129 15.159 C 27.469 14.77 27.814 14.369 27.896 14.269 L 28.045 14.087 L 27.402 14.099 C 26.598 14.113 26.37 14.007 25.843 13.376 C 25.277 12.699 25.17 12.179 25.382 11.145 C 25.488 10.627 25.89 9.787 26.094 9.66 C 26.175 9.609 26.28 9.636 26.523 9.772 C 26.7 9.871 26.937 9.952 27.051 9.952 C 27.195 9.952 27.746 9.674 28.884 9.028 C 30.965 7.846 31.639 7.402 31.916 7.03 C 32.036 6.868 32.199 6.71 32.278 6.679 C 32.479 6.598 32.522 6.602 32.797 6.729 Z M 77.674 6.957 C 77.733 7.113 77.656 7.333 77.543 7.333 C 77.506 7.333 77.353 7.392 77.203 7.464 L 76.931 7.595 L 77.124 7.388 C 77.296 7.204 77.299 7.193 77.155 7.29 C 76.911 7.453 76.758 7.431 76.758 7.233 C 76.758 7.132 76.803 7.053 76.873 7.032 C 76.936 7.012 77.077 6.956 77.186 6.907 C 77.474 6.777 77.611 6.791 77.674 6.957 Z M 77.294 7.921 C 77.09 8.107 76.984 8.159 76.858 8.135 C 76.695 8.104 76.642 7.961 76.742 7.824 C 76.769 7.788 76.894 7.709 77.021 7.648 C 77.525 7.407 77.685 7.566 77.294 7.921 Z M 77.533 7.886 C 77.562 7.915 77.191 8.65 76.98 8.984 C 76.798 9.27 76.672 9.296 76.527 9.078 C 76.408 8.895 76.459 8.708 76.629 8.708 C 76.695 8.708 76.92 8.518 77.13 8.286 C 77.338 8.053 77.52 7.873 77.533 7.886 Z M 65.435 8.39 C 65.435 8.431 65.179 8.741 64.867 9.08 C 64.324 9.667 64.292 9.691 64.159 9.597 C 64.082 9.543 63.775 9.365 63.477 9.202 C 62.982 8.931 62.896 8.905 62.49 8.907 C 62.215 8.908 61.906 8.959 61.683 9.039 C 61.483 9.111 60.835 9.333 60.242 9.532 C 59.648 9.731 58.79 10.055 58.335 10.251 C 57.879 10.447 57.47 10.607 57.426 10.607 C 57.286 10.607 57.277 10.513 57.381 10.105 L 57.481 9.709 L 58.38 9.424 C 59.281 9.138 59.631 9.092 60.118 9.196 C 60.318 9.239 60.428 9.217 60.716 9.077 C 60.911 8.982 61.134 8.85 61.212 8.782 C 61.354 8.66 62.207 8.518 63.592 8.386 C 64.481 8.302 65.435 8.304 65.435 8.39 Z M 39.3 8.503 C 39.3 8.534 39.219 8.664 39.119 8.792 C 38.91 9.061 38.467 9.74 38.29 10.063 C 38.127 10.359 38.185 10.553 38.547 10.923 C 38.708 11.087 38.84 11.254 38.84 11.293 C 38.84 11.457 38.61 11.661 38.099 11.954 C 37.8 12.125 37.497 12.303 37.424 12.349 C 37.294 12.434 37.293 12.423 37.325 11.272 L 37.358 10.11 L 37.753 9.58 C 37.971 9.288 38.269 8.973 38.417 8.88 C 38.565 8.787 38.74 8.651 38.806 8.578 C 38.924 8.449 39.3 8.391 39.3 8.503 Z M 12.375 10.206 C 12.375 10.276 11.351 12.178 11.277 12.244 C 11.248 12.271 11.115 12.309 10.983 12.329 L 10.744 12.365 L 10.897 11.976 C 10.981 11.762 11.085 11.42 11.127 11.215 C 11.17 11.011 11.237 10.793 11.276 10.731 C 11.329 10.647 11.325 10.591 11.261 10.514 C 11.137 10.366 11.07 10.38 10.443 10.679 C 9.973 10.904 9.85 10.938 9.696 10.887 C 9.405 10.79 9.476 10.718 9.973 10.605 C 10.226 10.548 10.493 10.47 10.565 10.433 C 10.694 10.366 11.289 10.238 11.684 10.192 C 12.085 10.144 12.375 10.15 12.375 10.206 Z M 78.423 10.612 C 78.508 10.603 78.477 10.806 78.39 10.829 C 78.345 10.841 78.16 10.888 77.979 10.933 C 77.798 10.978 77.598 11.029 77.535 11.048 C 77.471 11.066 77.419 11.05 77.419 11.013 C 77.419 10.976 77.634 10.872 77.897 10.781 C 78.159 10.691 78.396 10.615 78.423 10.612 Z M 78.144 11.165 C 78.144 11.183 78.047 11.257 77.93 11.328 C 77.678 11.481 77.736 11.502 78.015 11.358 C 78.122 11.303 78.209 11.287 78.209 11.321 C 78.209 11.397 77.99 11.472 77.699 11.496 C 77.395 11.52 77.435 11.432 77.798 11.272 C 78.153 11.116 78.144 11.119 78.144 11.165 Z M 60.489 11.59 C 60.633 11.589 60.83 11.719 60.83 11.815 C 60.83 11.998 60.557 12.533 60.297 12.859 C 59.986 13.249 59.436 13.619 59.168 13.619 C 58.968 13.619 58.718 13.4 58.549 13.074 C 58.362 12.716 58.476 12.594 59.485 12.069 C 59.99 11.806 60.441 11.591 60.489 11.59 Z M 78.099 11.813 C 78.138 11.914 78.366 11.886 78.539 11.76 C 78.625 11.696 78.625 11.702 78.544 11.806 C 78.375 12.02 78.226 12.061 78.045 11.944 C 77.955 11.885 77.88 11.81 77.88 11.778 C 77.88 11.683 78.061 11.712 78.099 11.813 Z M 77.44 12.09 C 77.654 12.213 77.88 12.389 77.88 12.435 C 77.88 12.462 77.732 12.565 77.551 12.663 C 77.244 12.829 77.125 12.825 77.296 12.655 C 77.336 12.615 77.367 12.461 77.365 12.314 C 77.363 12.124 77.385 12.058 77.44 12.09 Z M 42.167 14.949 C 42.35 14.96 42.363 14.978 42.346 15.19 C 42.324 15.476 41.703 18.154 41.529 18.718 C 41.458 18.948 41.327 19.208 41.238 19.297 C 41.078 19.455 41.072 19.456 40.897 19.341 C 40.541 19.108 40.353 19.046 39.895 19.007 L 39.429 18.969 L 39.448 18.641 L 39.468 18.313 L 39.962 18.197 C 40.746 18.013 41.071 17.85 41.183 17.584 C 41.376 17.123 41.247 16.772 40.681 16.226 C 40.287 15.846 40.097 15.75 39.669 15.714 C 39.318 15.685 39.268 15.664 39.249 15.534 C 39.229 15.392 39.247 15.387 39.743 15.386 C 40.026 15.386 40.406 15.34 40.587 15.284 C 40.768 15.227 41.153 15.127 41.443 15.059 C 41.733 14.992 42.058 14.942 42.167 14.949 Z M 8.824 15.783 C 8.88 15.784 8.795 15.897 8.626 16.044 C 8.463 16.187 8.286 16.302 8.231 16.301 C 8.175 16.299 8.26 16.187 8.429 16.039 C 8.592 15.897 8.77 15.781 8.824 15.783 Z M 9.469 16.35 L 9.489 16.689 L 9.057 16.822 C 8.747 16.917 8.58 16.938 8.466 16.895 C 8.252 16.814 8.312 16.595 8.585 16.456 C 8.698 16.398 8.89 16.265 9.011 16.16 C 9.328 15.885 9.445 15.934 9.469 16.35 Z M 59.052 16.301 C 59.052 16.349 58.706 16.501 58.598 16.5 C 58.577 16.499 58.648 16.429 58.756 16.342 C 58.943 16.193 59.052 16.178 59.052 16.301 Z M 57.341 16.391 C 57.341 16.495 56.656 17.26 56.478 17.355 C 56.215 17.495 56.36 17.23 56.798 16.77 C 57.247 16.298 57.341 16.233 57.341 16.391 Z M 45.203 16.533 C 45.256 16.605 45.287 16.708 45.272 16.762 C 45.161 17.153 45.05 17.545 44.94 17.937 C 44.624 19.055 44.559 19.2 44.428 19.069 C 44.37 19.012 44.386 18.878 44.493 18.516 C 44.571 18.254 44.691 17.788 44.758 17.482 C 44.826 17.176 44.931 16.808 44.993 16.664 C 45.101 16.411 45.109 16.407 45.203 16.533 Z M 57.933 16.599 C 57.933 16.659 57.772 16.922 57.642 17.073 C 57.513 17.223 57.143 17.282 57.143 17.152 C 57.143 17.076 57.404 16.69 57.505 16.616 C 57.58 16.561 57.933 16.548 57.933 16.599 Z" fill="#0F0F0F"></path></svg>