<svg xmlns="http://www.w3.org/2000/svg" xmlns:xlink="http://www.w3.org/1999/xlink" viewBox="0 0 122 28"><path d="M 9.459 1.294 C 7.654 1.81 5.802 2.807 4.581 3.92 L 3.521 4.885 L 4.234 4.895 C 5.394 4.909 6.928 4.348 7.853 3.571 C 9.22 2.421 10.257 2.054 12.427 1.949 C 14.731 1.837 16.106 2.174 17.537 3.201 C 19.15 4.359 19.943 4.704 21.256 4.819 L 22.507 4.929 L 21.508 4.003 C 20.361 2.941 17.422 1.444 15.852 1.123 C 14.217 0.789 10.918 0.877 9.459 1.294 Z M 12.313 3.355 C 12.263 3.492 12.199 4.234 12.169 5.004 L 12.115 6.403 L 9.916 6.503 L 7.718 6.602 L 7.618 14.897 C 7.563 19.458 7.538 23.226 7.563 23.269 C 7.68 23.473 8.451 22.28 8.812 21.335 C 9.186 20.358 9.217 19.82 9.217 14.204 C 9.217 8.949 9.259 8.088 9.531 7.816 C 9.791 7.555 10.418 7.502 13.214 7.502 C 16.937 7.502 17.211 7.586 17.211 8.727 C 17.211 9.295 17.248 9.322 17.96 9.263 L 18.71 9.201 L 18.771 8.135 C 18.861 6.568 18.752 6.503 16.087 6.503 C 13.947 6.503 13.813 6.479 13.813 6.103 C 13.813 5.746 13.948 5.703 15.062 5.7 C 16.472 5.697 16.883 5.524 16.779 4.98 C 16.72 4.667 16.474 4.587 15.312 4.504 C 14.117 4.418 13.906 4.347 13.844 4.004 C 13.733 3.4 13.417 3.105 12.883 3.105 C 12.618 3.105 12.362 3.217 12.313 3.355 Z M 30.987 4.431 C 31.215 4.721 31.401 5.08 31.401 5.23 C 31.401 5.435 31.751 5.503 32.8 5.503 L 34.199 5.503 L 34.199 9.491 C 34.199 13.291 34.047 14.497 33.567 14.497 C 33.475 14.497 33.4 14.587 33.4 14.697 C 33.4 14.814 34.101 14.897 35.104 14.897 L 36.809 14.897 L 36.414 14.347 C 36.057 13.85 36.014 13.404 35.959 9.65 L 35.898 5.503 L 37.247 5.503 C 38.254 5.503 38.596 5.434 38.596 5.23 C 38.596 5.08 38.782 4.721 39.01 4.431 L 39.424 3.904 L 34.998 3.904 L 30.573 3.904 Z M 41.14 4.445 C 41.444 4.909 41.504 5.574 41.562 9.157 C 41.627 13.213 41.485 14.497 40.97 14.497 C 40.873 14.497 40.795 14.587 40.795 14.697 C 40.795 14.814 41.494 14.897 42.493 14.897 C 43.428 14.897 44.192 14.852 44.192 14.797 C 44.192 14.742 44.012 14.517 43.792 14.297 C 43.416 13.921 43.393 13.631 43.393 9.345 C 43.393 5.548 43.444 4.719 43.704 4.349 L 44.015 3.904 L 42.4 3.904 L 40.785 3.904 Z M 47.334 4.351 C 46.155 5.035 45.527 6.51 45.425 8.837 C 45.334 10.921 45.666 12.322 46.519 13.448 C 47.346 14.539 48.01 14.762 50.738 14.858 C 52.084 14.906 53.186 14.874 53.186 14.786 C 53.186 14.7 53.028 14.454 52.836 14.242 C 52.3 13.649 52.324 9.722 52.867 9.122 L 53.248 8.701 L 51.621 8.701 L 49.994 8.701 L 50.39 9.351 C 50.7 9.858 50.786 10.358 50.787 11.639 L 50.788 13.279 L 50.071 13.477 C 48.225 13.986 47.39 12.655 47.39 9.201 C 47.39 5.974 47.859 5.104 49.596 5.104 C 50.414 5.104 50.659 5.202 51.223 5.755 C 51.588 6.113 51.994 6.585 52.125 6.804 C 52.322 7.134 52.365 6.922 52.375 5.553 L 52.386 3.904 L 50.238 3.909 C 48.395 3.913 47.982 3.976 47.334 4.351 Z M 54.769 4.454 C 55.131 4.955 55.17 5.383 55.218 9.32 C 55.265 13.118 55.23 13.698 54.928 14.159 C 54.739 14.447 54.585 14.731 54.585 14.79 C 54.585 14.848 56.159 14.897 58.082 14.897 L 61.58 14.897 L 61.568 13.148 C 61.558 11.714 61.513 11.467 61.318 11.776 C 60.322 13.351 59.343 13.864 58.016 13.507 C 57.067 13.251 56.983 13.07 56.983 11.283 L 56.983 9.9 L 58.032 9.901 C 58.725 9.901 59.302 10.036 59.731 10.298 L 60.381 10.694 L 60.381 9.397 C 60.381 8.09 60.237 7.852 59.781 8.401 C 59.608 8.61 59.147 8.701 58.258 8.701 L 56.983 8.701 L 56.983 7.109 C 56.983 5.28 57.129 5.104 58.642 5.104 C 59.636 5.104 60.385 5.574 61.002 6.585 L 61.379 7.202 L 61.379 5.553 L 61.38 3.904 L 57.876 3.904 L 54.373 3.904 Z M 63.181 4.554 C 63.542 5.146 63.577 5.569 63.578 9.341 C 63.578 13.289 63.431 14.497 62.947 14.497 C 62.855 14.497 62.779 14.587 62.779 14.697 C 62.779 14.809 63.345 14.897 64.078 14.897 L 65.377 14.897 L 65.377 10.224 C 65.377 5.082 65.409 4.947 66.547 5.197 C 67.926 5.5 68.381 7.302 67.31 8.223 C 67.004 8.486 66.534 8.701 66.265 8.701 C 65.997 8.701 65.777 8.73 65.777 8.766 C 65.777 8.802 66.391 10.173 67.142 11.814 L 68.508 14.797 L 69.84 14.856 C 71.199 14.916 71.467 14.777 70.798 14.359 C 70.445 14.138 68.175 10.097 68.175 9.689 C 68.175 9.585 68.302 9.5 68.457 9.5 C 68.612 9.5 68.972 9.224 69.257 8.885 C 69.928 8.088 69.986 6.353 69.375 5.352 C 68.633 4.134 67.979 3.906 65.23 3.905 L 62.785 3.904 Z M 77.828 4.296 C 76.245 5.261 76.099 7.85 77.56 9.056 C 77.729 9.196 78.498 9.633 79.268 10.027 C 81.003 10.915 81.568 11.421 81.559 12.083 C 81.543 13.448 79.952 14.052 77.884 13.478 C 77.453 13.358 76.846 13.006 76.535 12.695 L 75.97 12.129 L 75.97 13.536 L 75.97 14.943 L 78.618 14.859 C 81.436 14.77 82.03 14.601 82.931 13.636 C 83.499 13.029 83.693 11.796 83.374 10.829 C 83.075 9.921 82.305 9.276 80.343 8.289 C 78.277 7.251 77.845 6.408 78.859 5.394 C 79.264 4.989 79.546 4.904 80.477 4.904 C 81.495 4.904 82.765 5.35 82.765 5.708 C 82.765 5.773 82.897 6.001 83.058 6.215 C 83.326 6.568 83.352 6.483 83.358 5.253 L 83.365 3.904 L 80.916 3.905 C 78.841 3.906 78.371 3.965 77.828 4.296 Z M 85.082 4.324 C 85.422 4.7 85.474 5.175 85.563 8.771 C 85.649 12.25 85.714 12.883 86.04 13.42 C 86.609 14.36 87.453 14.767 88.852 14.776 C 90.226 14.786 91.032 14.455 91.641 13.633 C 92.024 13.116 92.067 12.729 92.158 8.907 C 92.248 5.177 92.298 4.701 92.639 4.324 L 93.02 3.904 L 91.664 3.904 L 90.309 3.904 L 90.432 7.652 C 90.568 11.757 90.454 12.469 89.549 13.139 C 89.142 13.441 88.932 13.477 88.51 13.316 C 87.517 12.939 87.362 12.271 87.359 8.361 C 87.358 6.405 87.302 4.601 87.236 4.354 C 87.128 3.951 86.991 3.904 85.908 3.904 L 84.702 3.904 Z M 96.36 4.251 C 95.545 4.664 94.847 5.631 94.531 6.783 C 94.21 7.957 94.218 10.633 94.546 11.782 C 94.906 13.04 96.153 14.372 97.255 14.675 C 98.04 14.89 102.151 14.993 102.151 14.797 C 102.151 14.742 101.972 14.517 101.752 14.297 C 101.402 13.947 101.352 13.631 101.352 11.762 C 101.352 9.844 101.396 9.579 101.786 9.163 L 102.221 8.701 L 100.481 8.701 L 98.742 8.701 L 99.156 9.261 C 99.515 9.746 99.562 10.058 99.512 11.596 C 99.454 13.352 99.448 13.371 98.893 13.519 C 98.006 13.756 97.194 13.357 96.737 12.463 C 95.897 10.815 96.053 6.564 96.99 5.566 C 97.67 4.842 99.123 4.913 100.036 5.715 C 100.42 6.052 100.789 6.502 100.856 6.715 C 101.139 7.606 101.366 7.026 101.31 5.553 L 101.252 4.004 L 99.154 3.951 C 97.468 3.909 96.918 3.968 96.36 4.251 Z M 106.468 5.541 C 106.192 6.455 105.515 8.731 104.963 10.6 C 104.285 12.896 103.828 14.105 103.555 14.329 C 102.944 14.831 103.054 14.923 104.184 14.857 C 105.326 14.79 105.195 14.966 105.84 12.648 L 106.16 11.499 L 107.437 11.499 L 108.714 11.499 L 109.031 12.348 C 109.205 12.815 109.468 13.558 109.616 13.997 L 109.885 14.797 L 111.314 14.855 C 112.101 14.888 112.744 14.879 112.744 14.836 C 112.744 14.792 112.46 14.451 112.112 14.077 C 111.617 13.545 111.123 12.379 109.837 8.701 C 108.2 4.018 108.193 4.004 107.581 3.942 C 106.975 3.881 106.963 3.899 106.468 5.541 Z M 113.927 4.288 C 114.455 4.816 114.585 6.161 114.508 10.329 C 114.452 13.349 114.392 13.912 114.093 14.242 C 113.901 14.455 113.743 14.689 113.743 14.762 C 113.743 14.836 114.329 14.897 115.044 14.897 L 116.345 14.897 L 116.213 10.345 C 116.09 6.111 116.106 5.767 116.444 5.43 C 116.901 4.972 117.889 5.123 118.39 5.726 C 118.821 6.245 118.844 7.463 118.434 8.049 C 118.266 8.289 117.811 8.545 117.423 8.618 C 116.879 8.72 116.746 8.825 116.842 9.075 C 116.91 9.254 117.523 10.637 118.203 12.148 L 119.439 14.895 L 120.688 14.896 C 121.375 14.896 121.938 14.842 121.938 14.775 C 121.938 14.709 121.727 14.404 121.47 14.099 C 120.998 13.538 119.138 10.08 119.141 9.768 C 119.141 9.676 119.405 9.45 119.727 9.267 C 120.838 8.636 121.047 6.204 120.095 4.993 C 119.404 4.115 118.602 3.904 115.948 3.904 C 113.578 3.904 113.549 3.91 113.927 4.288 Z M 1.644 7.52 C 0.874 8.921 0.936 9.309 2.066 10.171 C 2.784 10.719 4.685 11.299 5.761 11.299 C 6.269 11.299 6.419 11.215 6.419 10.927 C 6.419 10.67 6.143 10.449 5.532 10.215 C 4.403 9.784 3.286 8.563 3.106 7.564 C 2.972 6.818 2.701 6.303 2.443 6.303 C 2.372 6.303 2.012 6.851 1.644 7.52 Z M 23.257 6.552 C 23.148 6.69 22.997 7.145 22.922 7.564 C 22.741 8.566 21.624 9.785 20.487 10.219 C 19.876 10.452 19.611 10.662 19.652 10.88 C 19.824 11.787 23.343 10.98 24.385 9.794 C 24.726 9.405 25.006 8.989 25.006 8.869 C 25.006 8.575 23.748 6.303 23.585 6.303 C 23.514 6.303 23.366 6.415 23.257 6.552 Z M 107.868 9.101 L 108.288 10.3 L 107.405 10.3 C 106.658 10.3 106.537 10.246 106.622 9.95 C 106.677 9.758 106.833 9.218 106.967 8.751 C 107.101 8.284 107.264 7.902 107.33 7.902 C 107.395 7.902 107.637 8.441 107.868 9.101 Z M 11.858 8.783 C 10.169 9.334 9.878 10.019 11.411 9.838 C 12.158 9.749 12.482 9.796 12.712 10.026 C 13.054 10.368 12.946 10.7 12.493 10.7 C 11.967 10.7 11.015 11.299 11.015 11.629 C 11.015 11.89 11.161 11.926 11.799 11.825 C 12.767 11.67 13.214 11.826 13.214 12.32 C 13.214 12.598 13.069 12.699 12.664 12.703 C 11.921 12.709 10.362 13.436 10.46 13.731 C 10.53 13.94 11.802 14.073 13.614 14.06 C 16.355 14.04 16.811 13.995 16.811 13.744 C 16.811 13.441 15.324 12.709 14.696 12.703 C 14.125 12.697 13.991 12.514 14.23 12.067 C 14.405 11.741 14.575 11.706 15.449 11.823 C 16.732 11.993 16.712 11.613 15.402 10.946 C 13.93 10.196 14.155 9.641 15.851 9.842 C 16.629 9.934 16.811 9.898 16.811 9.65 C 16.811 8.854 13.447 8.265 11.858 8.783 Z M 0.33 11.041 C 0.252 11.238 0.142 12.254 0.086 13.298 C -0.112 16.964 0.95 19.904 3.43 22.56 C 4.202 23.387 5.393 24.416 6.076 24.847 C 7.308 25.625 8.217 26.027 8.217 25.795 C 8.217 25.729 7.392 24.756 6.384 23.633 C 3.481 20.4 2.022 17.874 2.022 16.079 C 2.022 15.538 2.03 15.535 3.35 15.565 C 5.03 15.604 5.209 15.275 3.832 14.683 C 2.699 14.196 1.685 13.172 1.516 12.345 C 1.257 11.073 0.602 10.354 0.33 11.041 Z M 25.061 10.943 C 24.95 11.084 24.793 11.559 24.715 11.999 C 24.542 12.967 22.991 14.581 22.03 14.792 C 21.579 14.891 21.408 15.042 21.408 15.341 C 21.408 15.728 21.488 15.746 22.707 15.632 L 24.006 15.511 L 24.006 16.524 C 24.006 18.299 22.509 20.806 19.521 24.033 C 18.32 25.33 17.968 25.892 18.36 25.887 C 18.913 25.88 20.977 24.366 22.433 22.9 C 24.302 21.017 25.358 19.202 25.786 17.135 C 26.017 16.019 26.046 12.405 25.831 11.415 C 25.689 10.759 25.366 10.56 25.061 10.943 Z M 11.137 15.213 C 11.07 15.387 11.015 16.147 11.015 16.902 C 11.015 19.039 10.702 20.138 9.802 21.161 C 8.492 22.649 8.855 22.945 10.555 21.774 C 11.786 20.926 12.329 19.933 12.513 18.194 C 12.762 15.833 12.744 15.867 13.682 15.935 L 14.513 15.996 L 14.614 18.639 C 14.705 21.032 14.757 21.325 15.159 21.728 C 15.936 22.504 19.378 22.448 19.881 21.651 C 20.034 21.408 19.939 20.725 19.518 19.058 C 19.205 17.814 18.904 16.716 18.851 16.62 C 18.675 16.299 18.456 16.979 18.314 18.294 C 18.158 19.73 17.787 20.493 17.246 20.493 C 16.558 20.493 16.412 20.071 16.412 18.079 C 16.412 17.016 16.355 15.865 16.287 15.521 L 16.162 14.897 L 13.71 14.897 C 11.659 14.897 11.238 14.948 11.137 15.213 Z M 33.799 18.094 C 33.799 18.688 33.788 18.694 32.7 18.694 C 31.734 18.694 31.601 18.742 31.601 19.094 C 31.601 19.445 31.734 19.493 32.7 19.493 C 33.739 19.493 33.799 19.521 33.799 19.993 C 33.799 20.482 33.766 20.493 32.3 20.493 C 30.935 20.493 30.801 20.528 30.801 20.892 C 30.801 21.257 30.938 21.293 32.35 21.302 L 33.899 21.312 L 32.264 22.152 C 30.768 22.919 30.651 23.022 30.896 23.354 C 31.152 23.7 31.21 23.693 32.182 23.2 L 33.2 22.684 L 33.2 23.88 C 33.2 25.398 33.356 25.489 35.946 25.489 C 38.142 25.489 38.523 25.335 38.712 24.368 C 38.813 23.859 38.763 23.728 38.436 23.643 C 38.12 23.561 38.013 23.66 37.922 24.114 L 37.807 24.69 L 35.903 24.69 L 33.999 24.69 L 33.999 23.99 L 33.999 23.291 L 35.898 23.291 C 37.663 23.291 37.797 23.263 37.797 22.891 C 37.797 22.519 37.663 22.491 35.898 22.491 C 34.854 22.491 34 22.424 34.002 22.341 C 34.003 22.259 34.317 21.989 34.698 21.742 C 35.28 21.365 35.668 21.292 37.094 21.292 C 38.663 21.292 38.796 21.261 38.796 20.892 C 38.796 20.537 38.663 20.493 37.577 20.493 L 36.357 20.493 L 37.378 19.376 C 37.939 18.762 38.348 18.178 38.285 18.077 C 38.088 17.758 37.502 17.88 37.243 18.294 C 37.039 18.622 36.777 18.694 35.796 18.694 C 34.599 18.694 34.599 18.694 34.599 18.094 C 34.599 17.628 34.51 17.495 34.199 17.495 C 33.888 17.495 33.799 17.628 33.799 18.094 Z M 47.989 18.394 L 47.989 19.294 L 46.816 19.294 L 45.643 19.294 L 45.551 21.366 C 45.481 22.944 45.357 23.643 45.032 24.301 C 44.718 24.936 44.662 25.233 44.821 25.424 C 45.119 25.784 45.37 25.579 45.807 24.615 C 46.09 23.993 46.183 23.313 46.186 21.842 L 46.191 19.893 L 47.09 19.893 C 47.856 19.893 47.989 19.952 47.989 20.293 C 47.989 20.595 47.855 20.693 47.44 20.696 C 47.138 20.697 46.766 20.777 46.615 20.873 C 46.147 21.169 46.59 21.536 47.313 21.451 C 47.9 21.383 47.989 21.431 47.989 21.811 C 47.989 22.39 48.32 22.491 50.204 22.491 C 51.653 22.491 51.787 22.458 51.787 22.092 C 51.787 21.728 51.653 21.692 50.3 21.692 C 48.467 21.692 48.137 21.363 49.783 21.177 C 50.752 21.067 50.987 20.971 50.987 20.686 C 50.987 20.387 50.853 20.346 50.138 20.424 C 49.671 20.475 49.131 20.548 48.939 20.586 C 48.704 20.632 48.589 20.53 48.589 20.274 C 48.589 19.935 48.745 19.893 50.001 19.893 C 51.293 19.893 51.404 19.925 51.295 20.269 C 51.216 20.515 51.291 20.69 51.509 20.774 C 51.693 20.844 51.858 20.877 51.875 20.847 C 52.042 20.551 52.386 19.633 52.386 19.484 C 52.386 19.378 51.594 19.294 50.588 19.294 C 49.522 19.294 48.789 19.212 48.789 19.094 C 48.789 18.98 49.388 18.894 50.188 18.894 C 51.454 18.894 51.587 18.856 51.587 18.494 C 51.587 18.132 51.454 18.094 50.188 18.094 C 49.077 18.094 48.789 18.032 48.789 17.795 C 48.789 17.628 48.611 17.495 48.389 17.495 C 48.049 17.495 47.989 17.628 47.989 18.394 Z M 59.81 17.673 C 59.587 17.814 59.6 17.937 59.883 18.369 L 60.227 18.894 L 59.504 18.894 L 58.782 18.894 L 58.782 19.893 C 58.782 20.759 58.835 20.892 59.182 20.892 C 59.492 20.892 59.581 20.759 59.581 20.293 L 59.581 19.693 L 62.579 19.693 L 65.577 19.693 L 65.577 20.293 C 65.577 20.759 65.666 20.892 65.977 20.892 C 66.323 20.892 66.376 20.759 66.376 19.893 L 66.376 18.894 L 65.654 18.894 L 64.931 18.894 L 65.275 18.369 C 65.559 17.937 65.571 17.814 65.348 17.673 C 64.924 17.404 64.838 17.449 64.378 18.194 C 64.077 18.682 63.799 18.894 63.462 18.894 C 63.043 18.894 62.979 18.801 62.979 18.194 C 62.979 17.628 62.903 17.495 62.579 17.495 C 62.256 17.495 62.179 17.628 62.179 18.194 C 62.179 18.797 62.114 18.894 61.706 18.894 C 61.388 18.894 61.075 18.663 60.756 18.196 C 60.239 17.436 60.209 17.42 59.81 17.673 Z M 87.562 18.994 L 87.562 20.493 L 86.962 20.493 C 86.562 20.493 86.363 20.593 86.363 20.793 C 86.363 20.992 86.562 21.092 86.962 21.092 C 87.356 21.092 87.562 21.193 87.562 21.386 C 87.562 21.547 87.449 21.639 87.312 21.589 C 86.922 21.447 86.161 24.011 86.468 24.432 C 86.702 24.751 86.856 24.472 87.433 22.691 C 87.487 22.526 87.537 23.134 87.546 24.04 C 87.559 25.366 87.62 25.689 87.861 25.689 C 88.104 25.689 88.164 25.355 88.176 23.94 L 88.191 22.192 L 88.527 22.95 C 88.805 23.58 88.908 23.665 89.134 23.45 C 89.361 23.234 89.381 23.273 89.258 23.691 C 89.176 23.965 88.991 24.424 88.846 24.71 C 88.595 25.204 88.755 25.689 89.17 25.689 C 89.416 25.689 89.998 24.138 90.154 23.067 C 90.24 22.476 90.321 22.104 90.335 22.242 C 90.35 22.389 90.646 22.491 91.059 22.491 C 91.444 22.491 91.759 22.581 91.759 22.691 C 91.759 22.801 91.489 22.891 91.159 22.891 L 90.56 22.891 L 90.56 24.29 C 90.56 25.401 90.622 25.689 90.859 25.689 C 91.024 25.689 91.159 25.599 91.159 25.489 C 91.159 25.379 91.654 25.289 92.258 25.289 C 92.863 25.289 93.358 25.379 93.358 25.489 C 93.358 25.599 93.537 25.689 93.757 25.689 C 94.119 25.689 94.157 25.556 94.157 24.29 L 94.157 22.891 L 93.358 22.891 C 92.918 22.891 92.558 22.801 92.558 22.691 C 92.558 22.581 92.873 22.491 93.258 22.491 C 93.871 22.491 93.957 22.429 93.957 21.992 C 93.957 21.717 94.047 21.492 94.157 21.492 C 94.267 21.492 94.357 21.312 94.357 21.092 C 94.357 20.872 94.267 20.693 94.157 20.693 C 94.047 20.693 93.957 20.468 93.957 20.193 C 93.957 19.755 93.871 19.693 93.258 19.693 C 92.769 19.693 92.558 19.603 92.558 19.394 C 92.558 19.171 92.791 19.094 93.458 19.094 C 94.124 19.094 94.357 19.016 94.357 18.794 C 94.357 18.572 94.123 18.494 93.453 18.494 C 92.672 18.494 92.522 18.426 92.358 17.995 C 92.241 17.687 92.012 17.495 91.76 17.495 C 91.424 17.495 91.374 17.584 91.477 17.995 C 91.598 18.479 91.57 18.494 90.581 18.494 L 89.56 18.494 L 89.56 20.593 C 89.56 21.747 89.481 22.691 89.385 22.691 C 89.288 22.691 89.095 22.417 88.956 22.081 C 88.8 21.704 88.6 21.511 88.432 21.575 C 88.28 21.634 88.161 21.551 88.161 21.386 C 88.161 21.206 88.355 21.092 88.661 21.092 C 88.972 21.092 89.161 20.979 89.161 20.793 C 89.161 20.606 88.972 20.493 88.661 20.493 C 88.386 20.493 88.161 20.406 88.161 20.299 C 88.161 20.193 88.283 20.152 88.432 20.21 C 88.708 20.315 89.021 19.731 89.28 18.624 C 89.392 18.147 89.355 18.066 89.055 18.125 C 88.839 18.167 88.599 18.511 88.45 18.994 L 88.203 19.793 L 88.182 18.644 C 88.166 17.765 88.091 17.495 87.861 17.495 C 87.622 17.495 87.562 17.795 87.562 18.994 Z M 103.95 17.795 C 103.95 18.038 103.628 18.094 102.251 18.094 C 100.686 18.094 100.553 18.126 100.553 18.494 C 100.553 18.86 100.699 18.897 102.301 18.934 L 104.05 18.973 L 102.601 19.042 L 101.152 19.111 L 101.152 20.402 L 101.152 21.692 L 102.551 21.692 C 103.351 21.692 103.95 21.778 103.95 21.892 C 103.95 22.009 103.251 22.092 102.251 22.092 C 100.874 22.092 100.553 22.148 100.553 22.391 C 100.553 22.642 100.963 22.691 103.051 22.691 C 104.583 22.691 105.549 22.769 105.549 22.891 C 105.549 23.014 104.55 23.091 102.951 23.091 C 100.775 23.091 100.353 23.14 100.353 23.391 C 100.353 23.6 100.564 23.691 101.052 23.691 C 101.476 23.691 101.753 23.789 101.756 23.94 C 101.758 24.078 102.108 24.436 102.533 24.737 C 103.222 25.224 103.335 25.25 103.564 24.973 C 103.782 24.71 103.732 24.588 103.237 24.184 L 102.651 23.705 L 104.113 23.698 L 105.574 23.691 L 105.512 24.34 C 105.456 24.914 105.372 24.997 104.787 25.053 C 103.802 25.148 104.113 25.589 105.166 25.589 L 106.049 25.589 L 106.11 24.64 L 106.171 23.691 L 107.259 23.691 C 108.093 23.691 108.347 23.621 108.347 23.391 C 108.347 23.16 108.092 23.091 107.248 23.091 C 106.602 23.091 106.149 23.003 106.149 22.878 C 106.149 22.75 106.484 22.69 106.978 22.728 C 107.986 22.805 108.205 22.443 107.41 22.012 C 107.101 21.845 106.961 21.704 107.098 21.7 C 107.271 21.694 107.348 21.296 107.348 20.402 L 107.348 19.111 L 105.899 19.042 L 104.45 18.973 L 106.199 18.934 C 107.801 18.897 107.947 18.86 107.947 18.494 C 107.947 18.126 107.814 18.094 106.249 18.094 C 104.872 18.094 104.55 18.038 104.55 17.795 C 104.55 17.63 104.415 17.495 104.25 17.495 C 104.085 17.495 103.95 17.63 103.95 17.795 Z M 117.74 17.895 C 117.74 18.263 117.607 18.294 116.042 18.294 C 114.476 18.294 114.343 18.326 114.343 18.694 C 114.343 19.062 114.476 19.094 116.042 19.094 C 117.607 19.094 117.74 19.125 117.74 19.493 C 117.74 19.852 117.607 19.893 116.441 19.893 C 115.42 19.893 115.142 19.957 115.142 20.193 C 115.142 20.447 115.62 20.493 118.24 20.493 C 120.86 20.493 121.338 20.447 121.338 20.193 C 121.338 19.955 121.049 19.893 119.939 19.893 C 118.673 19.893 118.54 19.855 118.54 19.493 C 118.54 19.125 118.673 19.094 120.239 19.094 C 121.804 19.094 121.938 19.062 121.938 18.694 C 121.938 18.326 121.804 18.294 120.239 18.294 C 118.673 18.294 118.54 18.263 118.54 17.895 C 118.54 17.628 118.407 17.495 118.14 17.495 C 117.874 17.495 117.74 17.628 117.74 17.895 Z M 73.372 19.394 L 73.372 20.892 L 74.771 20.892 C 75.881 20.892 76.17 20.954 76.17 21.192 C 76.17 21.432 75.87 21.492 74.671 21.492 C 73.305 21.492 73.172 21.528 73.172 21.892 C 73.172 22.256 73.305 22.291 74.671 22.291 C 75.87 22.291 76.17 22.351 76.17 22.591 C 76.17 22.836 75.836 22.891 74.371 22.891 C 72.705 22.891 72.572 22.921 72.572 23.291 C 72.572 23.677 72.705 23.691 76.469 23.691 C 80.233 23.691 80.367 23.677 80.367 23.291 C 80.367 22.922 80.233 22.891 78.668 22.891 C 77.291 22.891 76.969 22.834 76.969 22.591 C 76.969 22.353 77.258 22.291 78.368 22.291 C 79.634 22.291 79.767 22.254 79.767 21.892 C 79.767 21.528 79.634 21.492 78.268 21.492 C 77.069 21.492 76.769 21.432 76.769 21.192 C 76.769 20.954 77.058 20.892 78.168 20.892 L 79.567 20.892 L 79.567 19.394 L 79.567 17.895 L 76.469 17.895 L 73.372 17.895 Z M 86.371 18.13 C 86.376 18.165 86.489 18.663 86.623 19.235 C 86.812 20.045 86.928 20.238 87.146 20.103 C 87.551 19.852 87.193 18.225 86.712 18.132 C 86.52 18.095 86.366 18.094 86.371 18.13 Z M 74.698 18.944 C 74.712 19.191 74.79 19.596 74.871 19.843 C 74.991 20.214 74.943 20.293 74.594 20.293 C 74.226 20.293 74.171 20.176 74.171 19.394 C 74.171 18.807 74.258 18.494 74.421 18.494 C 74.558 18.494 74.683 18.697 74.698 18.944 Z M 76.048 18.81 C 76.115 18.984 76.17 19.389 76.17 19.71 C 76.17 20.186 76.087 20.29 75.72 20.277 C 75.473 20.268 75.381 20.216 75.516 20.162 C 75.706 20.085 75.695 19.901 75.466 19.354 C 75.097 18.469 75.094 18.494 75.549 18.494 C 75.757 18.494 75.982 18.636 76.048 18.81 Z M 77.416 19.394 C 77.233 19.888 77.012 20.293 76.926 20.293 C 76.84 20.293 76.769 19.888 76.769 19.394 C 76.769 18.572 76.812 18.494 77.259 18.494 L 77.749 18.494 Z M 78.768 19.394 C 78.768 20.22 78.727 20.293 78.268 20.293 C 77.68 20.293 77.666 20.236 78.09 19.588 C 78.267 19.318 78.36 18.961 78.296 18.796 C 78.226 18.611 78.295 18.494 78.474 18.494 C 78.689 18.494 78.768 18.736 78.768 19.394 Z M 91.759 19.393 C 91.759 19.603 91.548 19.693 91.059 19.693 C 90.571 19.693 90.36 19.603 90.36 19.393 C 90.36 19.184 90.571 19.094 91.059 19.094 C 91.548 19.094 91.759 19.184 91.759 19.393 Z M 35.598 19.993 C 35.34 20.268 35.01 20.493 34.864 20.493 C 34.714 20.493 34.599 20.275 34.599 19.993 C 34.599 19.551 34.683 19.493 35.333 19.493 L 36.068 19.493 Z M 103.95 19.893 C 103.95 20.003 103.5 20.093 102.951 20.093 C 102.401 20.093 101.952 20.003 101.952 19.893 C 101.952 19.783 102.401 19.693 102.951 19.693 C 103.5 19.693 103.95 19.783 103.95 19.893 Z M 106.548 19.893 C 106.548 20.003 106.099 20.093 105.549 20.093 C 104.999 20.093 104.55 20.003 104.55 19.893 C 104.55 19.783 104.999 19.693 105.549 19.693 C 106.099 19.693 106.548 19.783 106.548 19.893 Z M 60.181 21.192 L 60.181 22.291 L 61.18 22.291 C 62.046 22.291 62.179 22.345 62.179 22.691 C 62.179 23.05 62.046 23.091 60.88 23.091 C 59.715 23.091 59.581 23.132 59.581 23.491 C 59.581 23.849 59.715 23.89 60.88 23.89 C 62.046 23.89 62.179 23.931 62.179 24.29 C 62.179 24.658 62.046 24.69 60.481 24.69 C 58.915 24.69 58.782 24.721 58.782 25.089 C 58.782 25.475 58.915 25.489 62.579 25.489 C 66.243 25.489 66.376 25.475 66.376 25.089 C 66.376 24.721 66.243 24.69 64.678 24.69 C 63.112 24.69 62.979 24.658 62.979 24.29 C 62.979 23.928 63.112 23.89 64.378 23.89 C 65.644 23.89 65.777 23.852 65.777 23.491 C 65.777 23.129 65.644 23.091 64.378 23.091 C 63.112 23.091 62.979 23.053 62.979 22.691 C 62.979 22.34 63.112 22.291 64.078 22.291 L 65.177 22.291 L 65.177 21.192 L 65.177 20.093 L 62.679 20.093 L 60.181 20.093 Z M 91.759 20.493 C 91.759 20.603 91.444 20.693 91.059 20.693 C 90.674 20.693 90.36 20.603 90.36 20.493 C 90.36 20.383 90.674 20.293 91.059 20.293 C 91.444 20.293 91.759 20.383 91.759 20.493 Z M 93.358 20.493 C 93.358 20.603 93.178 20.693 92.958 20.693 C 92.738 20.693 92.558 20.603 92.558 20.493 C 92.558 20.383 92.738 20.293 92.958 20.293 C 93.178 20.293 93.358 20.383 93.358 20.493 Z M 103.95 20.892 C 103.95 21.002 103.5 21.092 102.951 21.092 C 102.401 21.092 101.952 21.002 101.952 20.892 C 101.952 20.782 102.401 20.693 102.951 20.693 C 103.5 20.693 103.95 20.782 103.95 20.892 Z M 106.748 20.892 C 106.748 21.002 106.254 21.092 105.649 21.092 C 105.044 21.092 104.55 21.002 104.55 20.892 C 104.55 20.782 105.044 20.693 105.649 20.693 C 106.254 20.693 106.748 20.782 106.748 20.892 Z M 64.378 21.292 C 64.378 21.662 64.245 21.692 62.579 21.692 C 60.914 21.692 60.78 21.662 60.78 21.292 C 60.78 20.922 60.914 20.892 62.579 20.892 C 64.245 20.892 64.378 20.922 64.378 21.292 Z M 114.543 21.992 C 114.543 22.758 114.602 22.891 114.942 22.891 C 115.236 22.891 115.342 22.758 115.342 22.391 L 115.342 21.892 L 118.14 21.892 L 120.938 21.892 L 120.938 22.391 C 120.938 22.758 121.045 22.891 121.338 22.891 C 121.678 22.891 121.738 22.758 121.738 21.992 L 121.738 21.092 L 118.14 21.092 L 114.543 21.092 Z M 91.759 21.692 C 91.759 21.802 91.444 21.892 91.059 21.892 C 90.674 21.892 90.36 21.802 90.36 21.692 C 90.36 21.582 90.674 21.492 91.059 21.492 C 91.444 21.492 91.759 21.582 91.759 21.692 Z M 93.358 21.692 C 93.358 21.802 93.178 21.892 92.958 21.892 C 92.738 21.892 92.558 21.802 92.558 21.692 C 92.558 21.582 92.738 21.492 92.958 21.492 C 93.178 21.492 93.358 21.582 93.358 21.692 Z M 105.549 21.892 C 105.549 22.002 105.369 22.092 105.149 22.092 C 104.929 22.092 104.75 22.002 104.75 21.892 C 104.75 21.782 104.929 21.692 105.149 21.692 C 105.369 21.692 105.549 21.782 105.549 21.892 Z M 11.933 22.913 C 11.428 23.474 11.015 24.014 11.015 24.112 C 11.015 24.477 10.672 24.272 10.443 23.77 C 10.257 23.362 10.147 23.299 9.934 23.476 C 9.597 23.755 8.364 26.302 8.5 26.438 C 8.814 26.752 11.228 27.082 13.214 27.082 C 15.226 27.082 17.614 26.751 17.937 26.428 C 18.096 26.27 16.556 23.426 16.262 23.335 C 16.124 23.292 16.012 23.389 16.012 23.549 C 16.012 23.71 15.883 23.948 15.726 24.079 C 15.497 24.269 15.394 24.23 15.21 23.886 C 14.793 23.107 13.574 21.892 13.209 21.892 C 13.012 21.892 12.438 22.351 11.933 22.913 Z M 116.541 22.601 C 116.541 23.7 115.447 24.89 114.436 24.89 C 114.053 24.89 114.134 25.277 114.575 25.555 C 114.982 25.812 116.28 25.175 116.8 24.463 C 117.012 24.173 117.232 23.521 117.289 23.014 C 117.383 22.173 117.355 22.092 116.967 22.092 C 116.644 22.092 116.541 22.214 116.541 22.601 Z M 118.743 23.541 C 118.745 24.337 118.82 25.106 118.911 25.249 C 119.026 25.432 119.487 25.491 120.457 25.449 L 121.838 25.389 L 121.899 24.54 C 121.947 23.878 121.892 23.69 121.649 23.69 C 121.45 23.69 121.338 23.871 121.338 24.19 C 121.338 24.649 121.265 24.69 120.439 24.69 L 119.539 24.69 L 119.539 23.391 C 119.539 22.225 119.498 22.092 119.139 22.092 C 118.776 22.092 118.74 22.224 118.743 23.541 Z M 47.59 23.181 C 47.59 23.966 47.183 24.644 46.557 24.903 C 45.909 25.172 45.9 25.556 46.54 25.651 C 47.252 25.756 48.15 24.731 48.302 23.64 C 48.424 22.766 48.401 22.691 48.012 22.691 C 47.697 22.691 47.59 22.816 47.59 23.181 Z M 49.829 24.04 L 49.888 25.389 L 51.169 25.45 C 52.559 25.515 52.778 25.381 52.783 24.461 C 52.788 23.671 52.205 23.546 52.054 24.305 C 51.942 24.86 51.873 24.906 51.21 24.85 C 50.488 24.79 50.488 24.789 50.427 23.74 C 50.383 22.97 50.288 22.691 50.068 22.691 C 49.827 22.691 49.781 22.951 49.829 24.04 Z M 93.358 24.19 C 93.358 24.663 93.298 24.69 92.258 24.69 C 91.219 24.69 91.159 24.663 91.159 24.19 C 91.159 23.718 91.219 23.69 92.258 23.69 C 93.298 23.69 93.358 23.718 93.358 24.19 Z M 73.107 24.633 C 72.652 25.272 72.621 25.401 72.885 25.549 C 73.256 25.756 73.682 25.442 74.084 24.664 C 74.452 23.953 74.446 23.89 74.003 23.89 C 73.801 23.89 73.397 24.225 73.107 24.633 Z M 75.147 23.98 C 75.098 24.029 75.093 24.439 75.136 24.89 C 75.196 25.517 75.291 25.695 75.54 25.647 C 75.918 25.574 76.057 25.063 75.884 24.374 C 75.776 23.943 75.391 23.737 75.147 23.98 Z M 76.926 24 C 76.773 24.153 77.212 25.47 77.419 25.481 C 78.148 25.521 78.155 25.51 77.888 24.74 C 77.647 24.042 77.215 23.711 76.926 24 Z M 78.576 24.04 C 78.58 24.123 78.882 24.539 79.247 24.965 C 79.757 25.561 79.986 25.699 80.236 25.559 C 80.525 25.397 80.502 25.294 80.032 24.633 C 79.68 24.138 79.347 23.89 79.036 23.89 C 78.778 23.89 78.571 23.958 78.576 24.04 Z" fill="#0F0F0F"></path></svg>