<svg xmlns="http://www.w3.org/2000/svg" xmlns:xlink="http://www.w3.org/1999/xlink" viewBox="0 0 20 20"><path d="M 15.857 4.635 C 15.736 4.57 15.617 4.498 15.503 4.42 C 15.169 4.191 14.864 3.92 14.593 3.615 C 13.914 2.806 13.66 1.985 13.567 1.411 L 13.571 1.411 C 13.493 0.934 13.525 0.625 13.53 0.625 L 10.438 0.625 L 10.438 13.077 C 10.438 13.245 10.438 13.41 10.432 13.573 C 10.432 13.593 10.43 13.612 10.429 13.634 C 10.429 13.643 10.429 13.652 10.427 13.662 C 10.427 13.664 10.427 13.666 10.427 13.669 C 10.394 14.116 10.257 14.547 10.026 14.926 C 9.796 15.304 9.48 15.618 9.106 15.839 C 8.716 16.07 8.275 16.191 7.827 16.191 C 6.386 16.191 5.219 14.967 5.219 13.456 C 5.219 11.945 6.386 10.722 7.827 10.722 C 8.1 10.722 8.37 10.766 8.63 10.854 L 8.633 7.575 C 7.846 7.47 7.047 7.535 6.285 7.767 C 5.524 7.999 4.817 8.393 4.208 8.924 C 3.676 9.406 3.228 9.982 2.885 10.624 C 2.754 10.859 2.262 11.8 2.202 13.329 C 2.165 14.196 2.415 15.095 2.534 15.467 L 2.534 15.475 C 2.609 15.693 2.9 16.44 3.373 17.069 C 3.755 17.574 4.206 18.017 4.712 18.385 L 4.712 18.377 L 4.72 18.385 C 6.217 19.445 7.876 19.375 7.876 19.375 C 8.163 19.363 9.125 19.375 10.218 18.836 C 11.43 18.238 12.12 17.346 12.12 17.346 C 12.561 16.814 12.912 16.207 13.157 15.552 C 13.436 14.786 13.53 13.868 13.53 13.5 L 13.53 6.894 C 13.567 6.918 14.067 7.262 14.067 7.262 C 14.067 7.262 14.786 7.742 15.909 8.055 C 16.715 8.278 17.8 8.325 17.8 8.325 L 17.8 5.128 C 17.42 5.171 16.648 5.046 15.857 4.635 Z" fill="rgb(15,15,15)"></path></svg>