<svg xmlns="http://www.w3.org/2000/svg" xmlns:xlink="http://www.w3.org/1999/xlink" viewBox="0 0 20 20"><g transform="translate(0.4 0.417)" id="ss4265560743_1"><path d="M 0 20 L 0 0 L 19.2 0 L 19.2 20 Z" fill="transparent"></path><path d="M 17.183 5.803 C 17.195 5.978 17.195 6.153 17.195 6.329 C 17.195 11.711 13.262 17.917 6.07 17.917 L 6.07 17.914 C 3.946 17.917 1.866 17.283 0.077 16.088 C 0.386 16.127 0.697 16.146 1.008 16.147 C 2.768 16.149 4.479 15.533 5.864 14.4 C 4.191 14.367 2.724 13.231 2.211 11.572 C 2.797 11.69 3.401 11.666 3.976 11.502 C 2.152 11.118 0.84 9.449 0.84 7.51 C 0.84 7.492 0.84 7.475 0.84 7.458 C 1.383 7.774 1.992 7.949 2.614 7.968 C 0.896 6.772 0.367 4.391 1.404 2.53 C 3.389 5.074 6.318 6.621 9.462 6.785 C 9.147 5.37 9.577 3.888 10.593 2.894 C 12.168 1.352 14.645 1.431 16.125 3.07 C 17 2.891 17.84 2.556 18.608 2.082 C 18.316 3.024 17.705 3.825 16.889 4.334 C 17.664 4.239 18.421 4.023 19.134 3.693 C 18.609 4.512 17.948 5.226 17.183 5.803 Z" fill="rgb(15,15,15)"></path></g></svg>