<svg xmlns="http://www.w3.org/2000/svg" xmlns:xlink="http://www.w3.org/1999/xlink" viewBox="0 0 118 26"><path d="M 104.933 0.643 C 104.857 0.719 103.788 1.647 102.556 2.705 L 100.316 4.627 L 100.242 5.052 C 100.148 5.589 100.142 5.547 100.316 5.592 C 100.587 5.663 101.247 5.457 101.624 5.183 C 103.141 4.081 106.27 1.508 106.27 1.362 C 106.27 1.223 105.308 0.491 105.138 0.5 C 105.101 0.502 105.008 0.566 104.933 0.643 Z M 28.81 0.949 C 28.762 0.97 28.657 1.116 28.577 1.273 C 28.497 1.43 28.287 1.774 28.109 2.038 C 27.424 3.054 27.229 3.627 27.357 4.243 L 27.433 4.609 L 27.798 4.609 L 28.163 4.609 L 28.775 3.667 C 29.111 3.148 29.48 2.554 29.594 2.347 C 29.819 1.939 30.19 1.046 30.151 1.007 C 30.106 0.961 28.897 0.909 28.81 0.949 Z M 21.767 3.115 C 16.974 4.045 14.003 4.713 11.301 5.469 C 5.99 6.954 4.213 7.389 2.449 7.632 C 1.774 7.726 1.782 7.716 1.954 8.294 C 2.02 8.517 2.134 8.708 2.267 8.821 C 2.459 8.982 2.53 8.997 3.106 8.997 C 4.169 8.997 5.371 8.752 7.472 8.11 C 7.943 7.966 8.56 7.795 8.843 7.731 C 9.871 7.496 13.162 6.661 14.534 6.287 C 16.648 5.711 17.622 5.502 19.667 5.189 C 19.896 5.154 19.959 5.164 19.937 5.231 C 19.903 5.332 19.688 5.5 15.424 8.733 C 6.987 15.132 5.095 16.574 4.143 17.335 C 2.324 18.788 0.807 19.889 0.318 20.112 C 0.081 20.22 0.087 20.364 0.351 20.832 L 0.567 21.214 L 1.123 21.168 C 1.428 21.143 2.156 21.049 2.741 20.958 C 3.325 20.868 4.066 20.764 4.386 20.727 C 4.707 20.69 5.494 20.597 6.135 20.521 C 7.602 20.346 9.599 20.207 12.579 20.069 C 13.862 20.01 15.358 19.933 15.905 19.897 C 17.344 19.803 37.385 19.809 37.479 19.904 C 37.532 19.956 37.481 20.117 37.304 20.461 C 37.061 20.935 37.056 20.961 37.056 21.742 C 37.056 22.319 37.102 22.759 37.223 23.34 C 37.373 24.066 37.419 24.182 37.71 24.578 C 38.071 25.07 38.545 25.419 38.941 25.486 C 39.157 25.523 39.291 25.492 39.641 25.323 C 40.776 24.774 41.338 23.924 42.18 21.482 C 42.367 20.939 42.578 20.36 42.649 20.196 L 42.777 19.897 L 46.121 19.932 C 47.961 19.952 50.345 19.983 51.42 20.001 C 52.495 20.019 53.409 20.011 53.451 19.983 C 53.493 19.956 53.609 19.813 53.708 19.666 C 53.924 19.346 53.944 18.995 53.755 18.806 C 53.471 18.522 53.267 18.507 48.883 18.456 C 46.564 18.429 44.389 18.403 44.05 18.397 C 43.71 18.392 43.391 18.362 43.339 18.329 C 43.262 18.28 43.272 18.155 43.396 17.593 C 43.674 16.346 43.605 16.468 44.342 15.906 C 44.709 15.626 45.241 15.242 45.524 15.052 C 46.131 14.645 48.116 13.454 48.184 13.455 C 48.21 13.455 48.34 13.643 48.472 13.873 C 48.806 14.454 49.289 14.936 49.749 15.146 C 50.09 15.303 50.196 15.319 50.658 15.287 C 51.537 15.225 51.823 15.073 53.043 14.019 C 55.091 12.25 57.409 9.836 58.663 8.166 C 59.049 7.651 59.14 7.569 59.36 7.532 C 59.746 7.468 60.372 7.481 60.57 7.557 L 60.748 7.624 L 60.184 8.396 C 58.919 10.128 58.586 10.632 58.136 11.492 C 57.877 11.987 57.614 12.592 57.551 12.836 C 57.294 13.841 57.659 14.68 58.475 14.953 C 58.989 15.125 58.913 15.179 61.505 12.807 C 62.671 11.74 63.704 10.877 64.346 10.436 C 64.577 10.277 64.685 10.237 64.74 10.292 C 64.845 10.397 64.351 11.095 63.447 12.117 C 63.046 12.569 62.581 13.123 62.412 13.347 C 62.141 13.708 62.111 13.783 62.151 13.996 C 62.204 14.279 62.353 14.588 62.475 14.667 C 62.647 14.778 63.245 14.941 63.365 14.91 C 63.433 14.892 63.98 14.316 64.581 13.629 C 65.792 12.244 66.706 11.34 67.512 10.728 C 68.291 10.136 68.561 10.023 68.561 10.287 C 68.561 10.485 68.003 11.525 67.436 12.383 C 67.15 12.817 66.915 13.239 66.915 13.32 C 66.915 13.554 67.116 13.915 67.371 14.139 C 67.545 14.293 67.673 14.345 67.872 14.345 C 68.275 14.345 68.343 14.297 68.68 13.77 C 69.222 12.922 69.736 12.276 70.478 11.511 C 71.148 10.821 72.09 10.036 72.163 10.109 C 72.22 10.166 72.015 10.734 71.674 11.466 C 71.363 12.131 71.337 12.225 71.337 12.712 C 71.337 13.334 71.448 13.535 71.924 13.785 C 72.178 13.917 72.304 13.939 72.681 13.914 C 73.17 13.883 73.561 13.712 74.629 13.065 C 75.23 12.701 75.69 12.521 75.856 12.585 C 75.945 12.619 75.961 12.747 75.95 13.331 C 75.938 13.974 75.952 14.068 76.117 14.384 C 76.495 15.11 77.268 15.54 77.895 15.371 C 78.35 15.248 78.706 14.961 79.473 14.096 C 79.863 13.656 80.249 13.252 80.332 13.198 C 80.477 13.103 80.49 13.116 80.688 13.506 C 81.048 14.22 81.424 14.547 82.002 14.65 C 82.323 14.708 82.49 14.605 83.659 13.636 C 85.036 12.495 86.911 11.095 88.232 10.221 C 88.851 9.812 89.383 9.477 89.415 9.477 C 89.557 9.477 89.45 9.947 89.205 10.394 C 89.058 10.663 88.916 11.022 88.89 11.191 C 88.864 11.361 88.695 11.871 88.513 12.324 C 87.931 13.781 87.846 14.254 88.094 14.661 C 88.244 14.907 88.607 15.149 88.855 15.169 C 89.285 15.204 89.321 15.181 89.617 14.671 C 90.556 13.051 91.424 11.905 92.588 10.745 C 93.503 9.834 93.873 9.537 93.972 9.635 C 93.996 9.66 93.871 10.182 93.694 10.795 C 93.209 12.476 93.06 13.792 93.244 14.764 C 93.354 15.343 93.807 15.825 94.331 15.92 C 94.668 15.982 94.608 16.021 96.096 14.769 C 97.336 13.725 98.447 12.867 99.474 12.163 L 100.186 11.674 L 100.411 11.871 C 100.535 11.98 100.81 12.134 101.022 12.213 C 101.832 12.516 101.908 12.58 102.455 13.408 C 103.358 14.775 104.166 15.421 105.064 15.493 C 105.974 15.566 106.641 15.01 107.379 13.561 C 107.61 13.106 107.863 12.649 107.94 12.544 L 108.08 12.354 L 110.663 12.359 L 113.245 12.363 L 113.648 12.17 C 113.936 12.032 114.058 11.934 114.073 11.826 C 114.094 11.679 113.763 11.12 113.588 11.006 C 113.541 10.976 112.624 10.949 111.549 10.946 C 109.993 10.942 109.491 10.918 109.085 10.827 C 108.805 10.765 108.553 10.69 108.526 10.661 C 108.499 10.632 108.537 10.393 108.611 10.129 C 108.685 9.865 108.8 9.448 108.868 9.203 C 108.935 8.958 109.196 8.364 109.447 7.883 C 109.698 7.403 109.903 6.94 109.903 6.854 C 109.903 6.62 109.465 6.015 109.223 5.914 C 109.042 5.839 108.928 5.848 108.424 5.974 C 104.612 6.93 100.96 8.976 95.9 12.99 C 95.219 13.53 94.915 13.732 94.803 13.716 C 94.656 13.695 94.65 13.67 94.673 13.18 C 94.709 12.414 94.943 11.596 95.595 9.957 C 95.918 9.146 96.236 8.277 96.302 8.026 L 96.423 7.568 L 96.234 7.296 C 96.13 7.146 95.909 6.951 95.743 6.863 L 95.441 6.703 L 95.01 6.918 C 94.46 7.192 93.836 7.635 92.771 8.508 C 91.984 9.153 91.664 9.329 91.667 9.117 C 91.668 9.07 91.776 8.771 91.907 8.452 C 92.153 7.854 92.211 7.396 92.072 7.137 C 91.972 6.95 91.403 6.598 91.201 6.598 C 90.732 6.598 88.485 8.067 85.098 10.591 C 83.338 11.901 82.988 12.135 82.907 12.054 C 82.832 11.979 83.131 11.367 83.839 10.148 C 84.516 8.984 84.922 8.108 84.996 7.653 C 85.048 7.329 84.886 7.118 84.389 6.867 C 83.995 6.668 83.941 6.659 83.447 6.702 C 82.629 6.773 81.731 6.978 81.067 7.246 C 80.247 7.576 79.219 8.2 78.881 8.571 C 77.34 10.266 76.854 10.597 74.566 11.51 C 73.456 11.953 73.291 12 73.291 11.875 C 73.291 11.836 73.507 11.418 73.771 10.946 C 74.191 10.197 74.543 9.646 75.297 8.562 C 75.638 8.072 75.512 7.359 75.028 7.042 C 74.89 6.952 74.76 6.932 74.48 6.961 C 74.006 7.01 73.565 7.217 72.658 7.816 C 72.253 8.083 71.856 8.323 71.776 8.348 C 71.66 8.385 71.549 8.315 71.232 8.001 L 70.835 7.608 L 70.292 7.639 C 69.676 7.675 69.255 7.843 68.298 8.437 C 67.984 8.632 67.668 8.792 67.597 8.792 C 67.433 8.792 67.287 8.562 67.226 8.209 C 67.165 7.852 67.034 7.655 66.762 7.515 C 66.493 7.376 65.91 7.366 65.673 7.496 C 65.509 7.587 65.088 7.887 61.807 10.252 C 61.053 10.796 60.426 11.215 60.413 11.184 C 60.379 11.093 61.037 10.176 61.705 9.384 C 62.04 8.988 62.392 8.539 62.488 8.387 C 62.584 8.236 62.907 7.909 63.205 7.662 C 63.829 7.146 63.943 6.933 63.818 6.515 C 63.617 5.847 62.716 5.619 61.293 5.875 C 60.392 6.038 59.716 6.016 59.265 5.81 C 58.809 5.601 58.222 5.52 58.007 5.635 C 57.809 5.741 57.659 6.102 57.658 6.475 C 57.657 6.817 57.435 7.246 56.783 8.166 C 56.189 9.004 55.304 9.922 53.403 11.675 C 51.416 13.506 50.666 14.023 50.146 13.923 C 49.985 13.892 49.846 13.356 49.846 12.768 L 49.845 12.323 L 50.357 11.957 C 50.639 11.755 51.526 11.169 52.327 10.653 C 54.274 9.4 54.752 9.04 55.604 8.182 C 56.466 7.314 56.704 6.98 56.75 6.571 C 56.857 5.622 56.253 4.913 55.225 4.779 C 54.946 4.743 54.755 4.775 54.197 4.954 C 52.747 5.418 51.404 6.177 50.436 7.081 C 49.387 8.061 48.899 8.919 48.634 10.249 C 48.379 11.531 48.47 11.431 46.213 12.885 C 45.141 13.575 44.238 14.116 44.209 14.086 C 44.117 13.995 44.612 11.917 45.019 10.677 C 45.468 9.311 45.933 8.301 46.374 7.734 C 46.808 7.175 46.797 7.043 46.28 6.588 C 46.055 6.39 45.841 6.145 45.806 6.043 C 45.757 5.902 45.648 5.823 45.356 5.714 C 45.144 5.634 44.886 5.569 44.782 5.569 C 44.42 5.569 42.503 6.724 41.136 7.766 C 39.831 8.761 38.893 9.589 37.384 11.077 C 36.961 11.494 36.599 11.819 36.578 11.799 C 36.558 11.779 36.742 11.308 36.986 10.753 C 37.638 9.268 38.084 7.958 38.31 6.853 C 38.373 6.546 38.366 6.518 38.203 6.389 C 37.969 6.206 37.328 6.026 37.083 6.075 C 36.967 6.098 36.178 6.68 35.169 7.487 C 34.226 8.242 33.424 8.86 33.387 8.86 C 33.35 8.86 33.32 8.82 33.32 8.772 C 33.32 8.585 33.895 7.105 34.091 6.786 C 34.587 5.979 34.332 5.491 33.318 5.307 C 32.864 5.225 32.653 5.312 32.373 5.698 C 32.17 5.979 31.53 6.558 29.751 8.07 C 28.405 9.214 27.271 10.259 26.429 11.131 C 25.257 12.344 25.028 12.563 24.927 12.563 C 24.837 12.563 24.837 12.523 24.927 12.22 C 25.239 11.169 25.956 9.651 27.114 7.592 C 27.84 6.3 27.96 6 27.863 5.721 C 27.763 5.438 27.53 5.351 26.978 5.391 C 26.42 5.432 26.514 5.334 25.784 6.625 C 24.811 8.345 23.599 11.154 23.132 12.768 C 22.761 14.054 22.918 14.915 23.601 15.332 C 23.798 15.452 24.059 15.544 24.259 15.563 L 24.59 15.595 L 25.185 14.805 C 26.15 13.528 27.02 12.545 28.447 11.12 C 30.459 9.11 31.605 8.138 31.605 8.441 C 31.605 8.557 31.137 9.93 30.678 11.157 C 30.424 11.836 30.051 12.883 29.849 13.483 L 29.481 14.575 L 29.689 14.898 C 29.803 15.076 29.949 15.239 30.014 15.259 C 30.078 15.279 30.258 15.343 30.413 15.4 C 30.853 15.562 30.96 15.496 31.275 14.868 C 32.371 12.684 33.671 10.814 34.896 9.662 C 35.628 8.973 35.845 8.819 35.895 8.949 C 35.916 9.004 35.734 9.507 35.491 10.068 C 35.249 10.629 34.842 11.567 34.589 12.151 C 34.108 13.257 33.528 14.891 33.526 15.141 C 33.525 15.346 33.879 15.807 34.183 15.995 C 34.554 16.224 34.815 16.201 35.27 15.899 C 35.883 15.493 36.163 15.204 36.907 14.216 C 37.581 13.32 38.29 12.494 38.385 12.494 C 38.411 12.494 38.487 12.71 38.555 12.975 C 38.934 14.446 40.271 14.967 41.243 14.023 C 41.354 13.915 41.686 13.558 41.981 13.229 C 42.276 12.9 42.549 12.631 42.589 12.631 C 42.667 12.631 42.615 13.231 42.498 13.682 C 42.461 13.827 42.421 14.185 42.41 14.479 C 42.374 15.449 42.008 15.93 40.54 16.936 C 40.084 17.249 39.556 17.668 39.367 17.868 L 39.024 18.23 L 28.956 18.276 C 23.418 18.301 18.239 18.352 17.447 18.388 C 15.561 18.475 14.494 18.517 12.991 18.565 C 12.132 18.593 10.819 18.718 8.671 18.979 C 6.975 19.184 5.254 19.393 4.848 19.442 C 4.441 19.491 4.117 19.508 4.128 19.48 C 4.159 19.394 6.7 17.366 8.706 15.826 C 10.851 14.179 12.097 13.247 16.841 9.74 C 18.695 8.37 20.957 6.682 21.869 5.989 C 23.947 4.408 23.991 4.338 23.349 3.607 C 22.863 3.054 22.564 2.961 21.767 3.115 Z M 54.848 6.449 C 54.848 6.631 54.34 7.211 53.699 7.76 C 52.747 8.576 50.732 9.91 50.621 9.798 C 50.6 9.777 50.668 9.605 50.772 9.414 C 51.314 8.419 52.276 7.585 53.709 6.868 C 54.628 6.409 54.848 6.328 54.848 6.449 Z M 107.481 8.199 C 107.459 8.364 107.3 8.935 107.129 9.469 C 106.958 10.003 106.818 10.484 106.818 10.538 C 106.818 10.666 106.62 10.696 105.192 10.779 C 103.874 10.857 102.416 10.862 101.954 10.792 L 101.649 10.746 L 102.194 10.295 C 103.447 9.258 104.611 8.662 106.407 8.137 C 106.84 8.01 107.269 7.905 107.359 7.904 C 107.513 7.901 107.52 7.918 107.481 8.199 Z M 43.878 8.081 C 43.878 8.174 43.076 9.325 42.561 9.971 C 42.265 10.342 41.634 11.049 41.159 11.541 L 40.294 12.435 L 40.34 12.147 C 40.482 11.256 41.102 10.203 41.98 9.36 C 42.741 8.629 43.878 7.863 43.878 8.081 Z M 82.135 8.569 C 82.133 8.772 81.997 8.95 81.04 10.003 C 79.313 11.903 78.03 13.19 77.656 13.396 C 77.545 13.457 77.535 13.446 77.578 13.306 C 77.776 12.654 78.107 11.963 78.505 11.371 C 78.965 10.687 80.189 9.226 80.456 9.043 C 80.531 8.991 80.84 8.867 81.142 8.766 C 81.443 8.666 81.736 8.554 81.793 8.517 C 81.958 8.411 82.136 8.437 82.135 8.569 Z M 115.996 10.446 C 115.86 10.484 115.659 10.608 115.551 10.721 C 115.369 10.911 115.354 10.967 115.354 11.453 C 115.354 11.9 115.379 12.015 115.519 12.211 C 115.735 12.513 116.194 12.713 116.683 12.718 C 117.13 12.722 117.416 12.596 117.684 12.277 C 117.857 12.072 117.868 12.019 117.844 11.546 C 117.82 11.062 117.807 11.026 117.581 10.835 C 117.139 10.461 116.501 10.305 115.996 10.446 Z M 117.197 10.744 C 117.706 10.99 117.875 11.799 117.502 12.199 C 117.129 12.598 116.671 12.664 116.103 12.399 C 115.694 12.209 115.501 11.887 115.5 11.393 C 115.499 11.057 115.629 10.81 115.885 10.661 C 116.102 10.536 116.866 10.584 117.197 10.744 Z M 116.143 11.32 C 116.143 11.797 116.205 12.151 116.288 12.151 C 116.321 12.151 116.348 12.058 116.348 11.943 C 116.348 11.685 116.532 11.592 116.669 11.78 C 116.722 11.852 116.831 11.987 116.912 12.08 C 117.115 12.314 117.165 12.132 116.97 11.868 L 116.821 11.667 L 116.962 11.489 C 117.252 11.119 117.085 10.917 116.49 10.917 L 116.143 10.917 Z M 116.933 11.126 C 116.957 11.165 116.927 11.273 116.867 11.366 C 116.736 11.566 116.322 11.607 116.253 11.426 C 116.173 11.217 116.334 11.054 116.621 11.054 C 116.768 11.054 116.909 11.086 116.933 11.126 Z M 105.969 12.58 C 105.894 12.956 105.579 13.528 105.292 13.806 C 104.967 14.121 104.657 14.158 104.311 13.921 C 104.142 13.805 103.38 12.808 103.267 12.555 C 103.218 12.445 103.85 12.371 104.89 12.364 L 106.012 12.357 Z M 93.734 17.435 C 93.646 17.47 93.183 17.546 92.705 17.604 C 91.877 17.705 91.418 17.803 91.306 17.905 C 91.125 18.069 90.815 21.613 90.973 21.711 C 91.186 21.843 91.906 21.875 92.534 21.781 C 93.443 21.644 93.912 21.415 94.132 21.001 C 94.209 20.857 94.203 20.823 94.091 20.741 C 93.864 20.575 93.68 20.57 93.16 20.716 C 92.88 20.794 92.507 20.859 92.33 20.859 C 92.039 20.859 92.009 20.843 92.009 20.698 C 92.009 20.403 92.372 20.208 93.121 20.102 C 93.891 19.993 94.07 19.857 93.97 19.459 C 93.906 19.201 93.64 19.132 92.914 19.186 L 92.263 19.233 L 92.312 19.035 C 92.433 18.541 92.712 18.392 93.517 18.39 C 94.014 18.388 94.228 18.305 94.426 18.039 C 94.603 17.8 94.531 17.583 94.233 17.458 C 93.969 17.348 93.952 17.347 93.734 17.435 Z M 81.665 17.67 C 80.915 18.524 80.079 20.412 80.079 21.251 L 80.079 21.544 L 80.381 21.544 C 80.63 21.544 80.713 21.509 80.849 21.348 C 80.94 21.239 81.053 21.058 81.1 20.945 C 81.211 20.676 81.445 20.573 82.039 20.533 C 82.505 20.5 82.53 20.507 82.673 20.688 C 82.755 20.792 82.822 20.973 82.822 21.091 C 82.822 21.468 82.956 21.82 83.129 21.899 C 83.329 21.99 83.724 21.922 83.912 21.765 C 84.038 21.66 84.045 21.614 83.983 21.338 C 83.701 20.086 82.904 18.244 82.392 17.661 C 82.13 17.362 81.934 17.364 81.665 17.67 Z M 56.029 17.549 C 55.656 17.595 55.567 17.815 55.575 18.662 C 55.587 19.829 55.981 21.071 56.4 21.262 C 56.719 21.407 57.195 21.354 57.665 21.121 C 58.269 20.821 59.505 19.596 59.755 19.05 C 59.989 18.539 59.961 18.273 59.651 18.065 C 59.037 17.652 57.25 17.398 56.029 17.549 Z M 109.698 17.614 C 109.51 17.675 108.946 17.733 108.254 17.762 C 107.382 17.797 107.08 17.834 106.95 17.92 C 106.784 18.028 106.775 18.081 106.614 19.721 C 106.458 21.323 106.456 21.417 106.568 21.529 C 106.673 21.634 106.855 21.647 108.175 21.644 C 109.837 21.64 110.012 21.601 110.18 21.195 C 110.256 21.012 110.255 20.949 110.173 20.803 C 110.024 20.539 109.745 20.476 109.321 20.609 C 108.943 20.729 107.948 20.762 107.788 20.66 C 107.648 20.572 107.756 20.325 107.985 20.207 C 108.117 20.139 108.386 20.104 108.793 20.104 C 109.315 20.104 109.437 20.082 109.636 19.948 C 109.909 19.764 109.96 19.595 109.799 19.417 C 109.617 19.216 109.165 19.182 108.563 19.323 L 108.036 19.448 L 107.907 19.289 C 107.584 18.89 107.859 18.729 108.978 18.662 C 109.661 18.621 109.874 18.583 110.06 18.468 C 110.449 18.228 110.569 17.795 110.299 17.606 C 110.121 17.481 110.102 17.481 109.698 17.614 Z M 102.858 17.63 C 102.481 17.727 101.599 18.205 101.327 18.46 C 100.97 18.795 100.928 19.01 101.154 19.351 C 101.4 19.722 101.757 19.942 102.327 20.07 C 102.962 20.214 103.253 20.309 103.253 20.374 C 103.253 20.441 102.824 20.626 102.445 20.722 C 102.283 20.763 102.054 20.882 101.937 20.987 C 101.764 21.142 101.732 21.212 101.769 21.359 C 101.825 21.58 102.239 21.715 102.666 21.651 C 103.271 21.56 104.126 21.044 104.471 20.56 C 104.786 20.119 104.798 20.014 104.562 19.745 C 104.315 19.464 103.994 19.358 103.161 19.279 C 102.428 19.211 102.275 19.115 102.457 18.837 C 102.621 18.587 102.828 18.527 103.528 18.527 C 104.206 18.527 104.435 18.456 104.548 18.208 C 104.669 17.942 104.638 17.802 104.436 17.708 C 104.207 17.601 103.168 17.551 102.858 17.63 Z M 67.642 17.742 C 67.479 17.905 67.339 18.459 67.257 19.268 C 67.216 19.671 67.153 20.245 67.117 20.544 C 67.081 20.842 67.052 21.144 67.052 21.214 C 67.052 21.433 67.32 21.472 68.159 21.374 C 69.441 21.225 70.069 20.999 70.069 20.686 C 70.069 20.485 69.848 20.241 69.666 20.241 C 69.595 20.241 69.317 20.291 69.049 20.352 C 68.78 20.412 68.483 20.443 68.389 20.419 C 68.229 20.379 68.218 20.347 68.217 19.949 C 68.216 19.714 68.268 19.154 68.331 18.705 L 68.446 17.889 L 68.29 17.762 C 68.1 17.608 67.785 17.599 67.642 17.742 Z M 63.384 17.755 C 62.737 17.85 61.927 18.059 61.776 18.171 C 61.439 18.421 61.42 18.527 61.455 19.967 C 61.472 20.703 61.508 21.374 61.535 21.458 C 61.576 21.59 61.631 21.613 61.912 21.613 C 62.094 21.613 62.507 21.55 62.831 21.473 C 63.274 21.368 63.543 21.343 63.916 21.373 C 64.476 21.419 64.688 21.346 64.854 21.051 C 64.947 20.884 64.945 20.855 64.827 20.725 C 64.595 20.468 64.271 20.422 63.531 20.54 C 63.164 20.598 62.819 20.629 62.763 20.608 C 62.708 20.586 62.643 20.491 62.619 20.395 C 62.557 20.147 62.716 20.057 63.302 20.006 C 64.253 19.922 64.446 19.885 64.617 19.75 C 64.837 19.577 64.846 19.311 64.635 19.237 C 64.55 19.207 64.165 19.19 63.78 19.199 C 63.284 19.211 63.007 19.186 62.837 19.115 C 62.311 18.895 62.655 18.691 63.693 18.606 C 64.838 18.512 65.406 18.224 65.201 17.842 C 65.134 17.716 65.063 17.706 64.359 17.715 C 63.936 17.721 63.497 17.739 63.384 17.755 Z M 72.28 17.806 L 72.057 17.904 L 72.052 19.09 C 72.049 19.742 72.036 20.329 72.024 20.395 C 71.999 20.523 71.969 21.362 71.981 21.565 C 71.985 21.635 72.085 21.728 72.211 21.781 C 72.401 21.861 72.468 21.86 72.674 21.775 C 73.127 21.586 73.113 21.654 73.117 19.7 C 73.12 17.755 73.137 17.837 72.706 17.75 C 72.59 17.726 72.408 17.75 72.28 17.806 Z M 97.653 17.803 C 97.275 17.922 96.538 18.337 96.35 18.539 C 95.98 18.935 95.985 19.396 96.364 19.763 C 96.578 19.971 96.658 20 97.119 20.044 C 97.731 20.103 98.076 20.273 98.076 20.516 C 98.076 20.7 97.914 20.772 97.474 20.783 C 96.862 20.799 96.475 21.169 96.705 21.519 C 96.833 21.714 97.108 21.73 97.752 21.578 C 98.338 21.44 98.79 21.198 99.095 20.86 C 99.557 20.349 99.579 20.058 99.181 19.709 C 98.942 19.499 98.684 19.42 97.782 19.278 C 97.48 19.231 97.291 19.17 97.306 19.125 C 97.369 18.934 97.692 18.801 98.236 18.741 C 98.68 18.692 98.844 18.644 98.973 18.522 C 99.18 18.328 99.183 18.181 98.985 17.995 C 98.67 17.7 98.2 17.632 97.653 17.803 Z M 87.796 17.916 C 87.535 17.988 86.94 18.077 86.475 18.115 C 85.524 18.192 85.322 18.275 85.273 18.613 C 85.206 19.063 85.251 19.098 85.831 19.058 C 86.118 19.037 86.395 19.01 86.447 18.997 C 86.599 18.959 86.655 19.298 86.665 20.329 C 86.673 21.168 86.69 21.299 86.805 21.414 C 86.969 21.578 87.232 21.577 87.597 21.412 C 87.957 21.249 88.014 21.078 87.86 20.625 C 87.759 20.327 87.75 20.167 87.801 19.555 L 87.861 18.836 L 88.204 18.779 C 88.702 18.696 89.121 18.489 89.197 18.288 C 89.382 17.802 88.793 17.645 87.796 17.916 Z M 76.657 17.916 C 76.099 18.026 75.506 18.569 75.199 19.253 C 75.09 19.497 75.041 19.76 75.023 20.207 C 74.993 20.942 75.105 21.238 75.485 21.418 C 75.7 21.521 75.794 21.523 76.377 21.445 C 77.46 21.299 77.991 21.105 78.416 20.701 C 78.675 20.455 78.696 20.298 78.496 20.098 C 78.308 19.91 78.045 19.956 77.262 20.315 C 76.393 20.712 76.034 20.666 76.034 20.156 C 76.034 19.831 76.254 19.256 76.456 19.055 L 76.66 18.851 L 77.356 18.889 C 78.201 18.936 78.43 18.85 78.432 18.488 C 78.434 18.285 78.16 18.055 77.779 17.94 C 77.42 17.832 77.118 17.826 76.657 17.916 Z M 116.014 18.223 C 115.938 18.32 115.84 18.574 115.796 18.789 C 115.653 19.487 115.529 19.879 115.424 19.966 C 115.339 20.036 115.28 20.015 115.087 19.846 C 114.958 19.732 114.703 19.538 114.52 19.414 C 114.338 19.29 113.973 18.967 113.709 18.696 C 113.391 18.37 113.159 18.191 113.023 18.166 C 112.781 18.12 112.398 18.281 112.297 18.47 C 112.189 18.671 111.989 21.6 112.077 21.688 C 112.195 21.806 112.705 21.846 112.882 21.752 C 113.121 21.624 113.194 21.393 113.194 20.766 C 113.194 20.391 113.227 20.155 113.29 20.069 C 113.382 19.943 113.392 19.944 113.649 20.115 C 113.795 20.212 114.069 20.429 114.257 20.598 C 115.131 21.381 115.536 21.589 115.954 21.469 C 116.388 21.345 116.477 21.217 116.593 20.553 C 116.652 20.216 116.792 19.584 116.905 19.148 L 117.109 18.356 L 116.931 18.202 C 116.668 17.975 116.201 17.986 116.014 18.223 Z M 58.348 18.499 C 58.61 18.558 58.825 18.621 58.825 18.638 C 58.825 18.757 58.508 19.246 58.23 19.555 C 57.906 19.916 57.175 20.447 57.002 20.447 C 56.88 20.447 56.616 19.263 56.643 18.836 C 56.663 18.518 56.679 18.491 56.871 18.45 C 57.252 18.369 57.869 18.39 58.348 18.499 Z M 82.239 19.036 C 82.432 19.472 82.484 19.799 82.359 19.789 C 82.311 19.785 82.072 19.778 81.826 19.772 L 81.38 19.762 L 81.656 19.213 C 81.807 18.911 81.964 18.665 82.003 18.665 C 82.042 18.665 82.149 18.832 82.239 19.036 Z M 40.749 20.521 C 40.731 21.581 40.316 22.694 39.656 23.448 C 39.391 23.751 39.306 23.807 39.105 23.807 C 38.799 23.807 38.499 23.531 38.556 23.303 C 38.577 23.218 38.643 22.826 38.702 22.432 C 38.892 21.167 39.107 20.554 39.479 20.218 C 39.688 20.028 40.104 19.9 40.45 19.917 L 40.759 19.933 Z" fill="#0F0F0F"></path></svg>